<?xml version="1.0" encoding="utf-8" standalone="no"?>
<!DOCTYPE svg PUBLIC "-//W3C//DTD SVG 1.1//EN"
  "http://www.w3.org/Graphics/SVG/1.1/DTD/svg11.dtd">
<!-- Created with matplotlib (http://matplotlib.org/) -->
<svg height="1014.826347pt" version="1.1" viewBox="0 0 377.189876 1014.826347" width="377.189876pt" xmlns="http://www.w3.org/2000/svg" xmlns:xlink="http://www.w3.org/1999/xlink">
 <defs>
  <style type="text/css">
*{stroke-linecap:butt;stroke-linejoin:round;}
  </style>
 </defs>
 <g id="figure_1">
  <g id="patch_1">
   <path d="M 0 1014.826347 
L 377.189876 1014.826347 
L 377.189876 0 
L 0 0 
z
" style="fill:#ffffff;"/>
  </g>
  <g id="axes_1">
   <g id="patch_2">
    <path d="M 31.689876 183.258281 
L 366.489876 183.258281 
L 366.489876 21.558281 
L 31.689876 21.558281 
z
" style="fill:#ffffff;"/>
   </g>
   <g id="matplotlib.axis_1">
    <g id="xtick_1">
     <g id="line2d_1">
      <defs>
       <path d="M 0 0 
L 0 3.5 
" id="mb725ae8ced" style="stroke:#000000;stroke-width:0.8;"/>
      </defs>
      <g>
       <use style="stroke:#000000;stroke-width:0.8;" x="31.689876" xlink:href="#mb725ae8ced" y="183.258281"/>
      </g>
     </g>
     <g id="text_1">
      <!-- 0 -->
      <defs>
       <path d="M 31.78125 66.40625 
Q 24.171875 66.40625 20.328125 58.90625 
Q 16.5 51.421875 16.5 36.375 
Q 16.5 21.390625 20.328125 13.890625 
Q 24.171875 6.390625 31.78125 6.390625 
Q 39.453125 6.390625 43.28125 13.890625 
Q 47.125 21.390625 47.125 36.375 
Q 47.125 51.421875 43.28125 58.90625 
Q 39.453125 66.40625 31.78125 66.40625 
z
M 31.78125 74.21875 
Q 44.046875 74.21875 50.515625 64.515625 
Q 56.984375 54.828125 56.984375 36.375 
Q 56.984375 17.96875 50.515625 8.265625 
Q 44.046875 -1.421875 31.78125 -1.421875 
Q 19.53125 -1.421875 13.0625 8.265625 
Q 6.59375 17.96875 6.59375 36.375 
Q 6.59375 54.828125 13.0625 64.515625 
Q 19.53125 74.21875 31.78125 74.21875 
z
" id="DejaVuSans-30"/>
      </defs>
      <g transform="translate(28.774897 197.22073)scale(0.09163 -0.09163)">
       <use xlink:href="#DejaVuSans-30"/>
      </g>
     </g>
    </g>
    <g id="xtick_2">
     <g id="line2d_2">
      <g>
       <use style="stroke:#000000;stroke-width:0.8;" x="103.837274" xlink:href="#mb725ae8ced" y="183.258281"/>
      </g>
     </g>
     <g id="text_2">
      <!-- 10000 -->
      <defs>
       <path d="M 12.40625 8.296875 
L 28.515625 8.296875 
L 28.515625 63.921875 
L 10.984375 60.40625 
L 10.984375 69.390625 
L 28.421875 72.90625 
L 38.28125 72.90625 
L 38.28125 8.296875 
L 54.390625 8.296875 
L 54.390625 0 
L 12.40625 0 
z
" id="DejaVuSans-31"/>
      </defs>
      <g transform="translate(89.262377 197.22073)scale(0.09163 -0.09163)">
       <use xlink:href="#DejaVuSans-31"/>
       <use x="63.623047" xlink:href="#DejaVuSans-30"/>
       <use x="127.246094" xlink:href="#DejaVuSans-30"/>
       <use x="190.869141" xlink:href="#DejaVuSans-30"/>
       <use x="254.492188" xlink:href="#DejaVuSans-30"/>
      </g>
     </g>
    </g>
    <g id="xtick_3">
     <g id="line2d_3">
      <g>
       <use style="stroke:#000000;stroke-width:0.8;" x="175.984672" xlink:href="#mb725ae8ced" y="183.258281"/>
      </g>
     </g>
     <g id="text_3">
      <!-- 20000 -->
      <defs>
       <path d="M 19.1875 8.296875 
L 53.609375 8.296875 
L 53.609375 0 
L 7.328125 0 
L 7.328125 8.296875 
Q 12.9375 14.109375 22.625 23.890625 
Q 32.328125 33.6875 34.8125 36.53125 
Q 39.546875 41.84375 41.421875 45.53125 
Q 43.3125 49.21875 43.3125 52.78125 
Q 43.3125 58.59375 39.234375 62.25 
Q 35.15625 65.921875 28.609375 65.921875 
Q 23.96875 65.921875 18.8125 64.3125 
Q 13.671875 62.703125 7.8125 59.421875 
L 7.8125 69.390625 
Q 13.765625 71.78125 18.9375 73 
Q 24.125 74.21875 28.421875 74.21875 
Q 39.75 74.21875 46.484375 68.546875 
Q 53.21875 62.890625 53.21875 53.421875 
Q 53.21875 48.921875 51.53125 44.890625 
Q 49.859375 40.875 45.40625 35.40625 
Q 44.1875 33.984375 37.640625 27.21875 
Q 31.109375 20.453125 19.1875 8.296875 
z
" id="DejaVuSans-32"/>
      </defs>
      <g transform="translate(161.409775 197.22073)scale(0.09163 -0.09163)">
       <use xlink:href="#DejaVuSans-32"/>
       <use x="63.623047" xlink:href="#DejaVuSans-30"/>
       <use x="127.246094" xlink:href="#DejaVuSans-30"/>
       <use x="190.869141" xlink:href="#DejaVuSans-30"/>
       <use x="254.492188" xlink:href="#DejaVuSans-30"/>
      </g>
     </g>
    </g>
    <g id="xtick_4">
     <g id="line2d_4">
      <g>
       <use style="stroke:#000000;stroke-width:0.8;" x="248.13207" xlink:href="#mb725ae8ced" y="183.258281"/>
      </g>
     </g>
     <g id="text_4">
      <!-- 30000 -->
      <defs>
       <path d="M 40.578125 39.3125 
Q 47.65625 37.796875 51.625 33 
Q 55.609375 28.21875 55.609375 21.1875 
Q 55.609375 10.40625 48.1875 4.484375 
Q 40.765625 -1.421875 27.09375 -1.421875 
Q 22.515625 -1.421875 17.65625 -0.515625 
Q 12.796875 0.390625 7.625 2.203125 
L 7.625 11.71875 
Q 11.71875 9.328125 16.59375 8.109375 
Q 21.484375 6.890625 26.8125 6.890625 
Q 36.078125 6.890625 40.9375 10.546875 
Q 45.796875 14.203125 45.796875 21.1875 
Q 45.796875 27.640625 41.28125 31.265625 
Q 36.765625 34.90625 28.71875 34.90625 
L 20.21875 34.90625 
L 20.21875 43.015625 
L 29.109375 43.015625 
Q 36.375 43.015625 40.234375 45.921875 
Q 44.09375 48.828125 44.09375 54.296875 
Q 44.09375 59.90625 40.109375 62.90625 
Q 36.140625 65.921875 28.71875 65.921875 
Q 24.65625 65.921875 20.015625 65.03125 
Q 15.375 64.15625 9.8125 62.3125 
L 9.8125 71.09375 
Q 15.4375 72.65625 20.34375 73.4375 
Q 25.25 74.21875 29.59375 74.21875 
Q 40.828125 74.21875 47.359375 69.109375 
Q 53.90625 64.015625 53.90625 55.328125 
Q 53.90625 49.265625 50.4375 45.09375 
Q 46.96875 40.921875 40.578125 39.3125 
z
" id="DejaVuSans-33"/>
      </defs>
      <g transform="translate(233.557173 197.22073)scale(0.09163 -0.09163)">
       <use xlink:href="#DejaVuSans-33"/>
       <use x="63.623047" xlink:href="#DejaVuSans-30"/>
       <use x="127.246094" xlink:href="#DejaVuSans-30"/>
       <use x="190.869141" xlink:href="#DejaVuSans-30"/>
       <use x="254.492188" xlink:href="#DejaVuSans-30"/>
      </g>
     </g>
    </g>
    <g id="xtick_5">
     <g id="line2d_5">
      <g>
       <use style="stroke:#000000;stroke-width:0.8;" x="320.279468" xlink:href="#mb725ae8ced" y="183.258281"/>
      </g>
     </g>
     <g id="text_5">
      <!-- 40000 -->
      <defs>
       <path d="M 37.796875 64.3125 
L 12.890625 25.390625 
L 37.796875 25.390625 
z
M 35.203125 72.90625 
L 47.609375 72.90625 
L 47.609375 25.390625 
L 58.015625 25.390625 
L 58.015625 17.1875 
L 47.609375 17.1875 
L 47.609375 0 
L 37.796875 0 
L 37.796875 17.1875 
L 4.890625 17.1875 
L 4.890625 26.703125 
z
" id="DejaVuSans-34"/>
      </defs>
      <g transform="translate(305.704571 197.22073)scale(0.09163 -0.09163)">
       <use xlink:href="#DejaVuSans-34"/>
       <use x="63.623047" xlink:href="#DejaVuSans-30"/>
       <use x="127.246094" xlink:href="#DejaVuSans-30"/>
       <use x="190.869141" xlink:href="#DejaVuSans-30"/>
       <use x="254.492188" xlink:href="#DejaVuSans-30"/>
      </g>
     </g>
    </g>
   </g>
   <g id="matplotlib.axis_2">
    <g id="ytick_1">
     <g id="line2d_6">
      <defs>
       <path d="M 0 0 
L -3.5 0 
" id="mc12c6159c2" style="stroke:#000000;stroke-width:0.8;"/>
      </defs>
      <g>
       <use style="stroke:#000000;stroke-width:0.8;" x="31.689876" xlink:href="#mc12c6159c2" y="183.258281"/>
      </g>
     </g>
     <g id="text_6">
      <!-- 0 -->
      <g transform="translate(18.859918 186.739505)scale(0.09163 -0.09163)">
       <use xlink:href="#DejaVuSans-30"/>
      </g>
     </g>
    </g>
    <g id="ytick_2">
     <g id="line2d_7">
      <g>
       <use style="stroke:#000000;stroke-width:0.8;" x="31.689876" xlink:href="#mc12c6159c2" y="144.010708"/>
      </g>
     </g>
     <g id="text_7">
      <!-- 5 -->
      <defs>
       <path d="M 10.796875 72.90625 
L 49.515625 72.90625 
L 49.515625 64.59375 
L 19.828125 64.59375 
L 19.828125 46.734375 
Q 21.96875 47.46875 24.109375 47.828125 
Q 26.265625 48.1875 28.421875 48.1875 
Q 40.625 48.1875 47.75 41.5 
Q 54.890625 34.8125 54.890625 23.390625 
Q 54.890625 11.625 47.5625 5.09375 
Q 40.234375 -1.421875 26.90625 -1.421875 
Q 22.3125 -1.421875 17.546875 -0.640625 
Q 12.796875 0.140625 7.71875 1.703125 
L 7.71875 11.625 
Q 12.109375 9.234375 16.796875 8.0625 
Q 21.484375 6.890625 26.703125 6.890625 
Q 35.15625 6.890625 40.078125 11.328125 
Q 45.015625 15.765625 45.015625 23.390625 
Q 45.015625 31 40.078125 35.4375 
Q 35.15625 39.890625 26.703125 39.890625 
Q 22.75 39.890625 18.8125 39.015625 
Q 14.890625 38.140625 10.796875 36.28125 
z
" id="DejaVuSans-35"/>
      </defs>
      <g transform="translate(18.859918 147.491933)scale(0.09163 -0.09163)">
       <use xlink:href="#DejaVuSans-35"/>
      </g>
     </g>
    </g>
    <g id="ytick_3">
     <g id="line2d_8">
      <g>
       <use style="stroke:#000000;stroke-width:0.8;" x="31.689876" xlink:href="#mc12c6159c2" y="104.763136"/>
      </g>
     </g>
     <g id="text_8">
      <!-- 10 -->
      <g transform="translate(13.029959 108.24436)scale(0.09163 -0.09163)">
       <use xlink:href="#DejaVuSans-31"/>
       <use x="63.623047" xlink:href="#DejaVuSans-30"/>
      </g>
     </g>
    </g>
    <g id="ytick_4">
     <g id="line2d_9">
      <g>
       <use style="stroke:#000000;stroke-width:0.8;" x="31.689876" xlink:href="#mc12c6159c2" y="65.515563"/>
      </g>
     </g>
     <g id="text_9">
      <!-- 15 -->
      <g transform="translate(13.029959 68.996787)scale(0.09163 -0.09163)">
       <use xlink:href="#DejaVuSans-31"/>
       <use x="63.623047" xlink:href="#DejaVuSans-35"/>
      </g>
     </g>
    </g>
    <g id="ytick_5">
     <g id="line2d_10">
      <g>
       <use style="stroke:#000000;stroke-width:0.8;" x="31.689876" xlink:href="#mc12c6159c2" y="26.26799"/>
      </g>
     </g>
     <g id="text_10">
      <!-- 20 -->
      <g transform="translate(13.029959 29.749214)scale(0.09163 -0.09163)">
       <use xlink:href="#DejaVuSans-32"/>
       <use x="63.623047" xlink:href="#DejaVuSans-30"/>
      </g>
     </g>
    </g>
   </g>
   <g id="line2d_11">
    <path clip-path="url(#p7fd86439ba)" d="M 32.41135 120.462165 
L 33.854298 120.462165 
L 34.575772 96.913621 
L 35.297246 104.763136 
L 37.461668 104.763136 
L 38.183142 96.913621 
L 39.62609 96.913621 
L 40.347564 104.763136 
L 41.069038 81.214592 
L 41.790512 89.064106 
L 42.511986 89.064106 
L 43.23346 96.913621 
L 43.954934 96.913621 
L 44.676408 89.064106 
L 47.562304 89.064106 
L 48.283778 96.913621 
L 49.726726 65.515563 
L 50.4482 81.214592 
L 51.169674 73.365077 
L 51.891148 81.214592 
L 52.612622 73.365077 
L 53.334096 89.064106 
L 54.05557 89.064106 
L 54.777044 81.214592 
L 57.662939 81.214592 
L 58.384413 89.064106 
L 59.105887 65.515563 
L 59.827361 73.365077 
L 60.548835 89.064106 
L 61.270309 73.365077 
L 61.991783 81.214592 
L 62.713257 73.365077 
L 63.434731 81.214592 
L 64.156205 73.365077 
L 65.599153 73.365077 
L 66.320627 81.214592 
L 67.042101 73.365077 
L 67.763575 73.365077 
L 68.485049 65.515563 
L 69.206523 73.365077 
L 69.927997 73.365077 
L 70.649471 65.515563 
L 71.370945 65.515563 
L 72.092419 73.365077 
L 72.813893 73.365077 
L 73.535367 81.214592 
L 74.256841 65.515563 
L 74.978315 57.666048 
L 75.699789 57.666048 
L 77.142737 73.365077 
L 77.864211 73.365077 
L 78.585685 81.214592 
L 79.307159 73.365077 
L 83.636003 73.365077 
L 85.078951 57.666048 
L 85.800425 57.666048 
L 86.521899 73.365077 
L 87.243373 65.515563 
L 87.964847 73.365077 
L 88.686321 65.515563 
L 89.407795 65.515563 
L 90.129269 73.365077 
L 90.850743 65.515563 
L 91.572217 65.515563 
L 92.29369 73.365077 
L 93.015164 65.515563 
L 95.179586 65.515563 
L 95.90106 73.365077 
L 96.622534 65.515563 
L 97.344008 65.515563 
L 98.065482 73.365077 
L 98.786956 73.365077 
L 99.50843 57.666048 
L 100.229904 57.666048 
L 100.951378 65.515563 
L 105.280222 65.515563 
L 106.001696 73.365077 
L 106.72317 65.515563 
L 109.609066 65.515563 
L 110.33054 57.666048 
L 111.052014 65.515563 
L 111.773488 65.515563 
L 112.494962 57.666048 
L 113.216436 73.365077 
L 113.93791 73.365077 
L 114.659384 41.967019 
L 115.380858 49.816534 
L 116.102332 65.515563 
L 116.823806 57.666048 
L 117.54528 65.515563 
L 118.266754 49.816534 
L 118.988228 65.515563 
L 119.709702 57.666048 
L 120.431176 57.666048 
L 121.15265 49.816534 
L 122.595598 65.515563 
L 124.76002 65.515563 
L 125.481494 57.666048 
L 126.202968 57.666048 
L 126.924441 65.515563 
L 127.645915 65.515563 
L 128.367389 57.666048 
L 129.088863 65.515563 
L 129.810337 49.816534 
L 130.531811 49.816534 
L 131.253285 65.515563 
L 131.974759 57.666048 
L 132.696233 65.515563 
L 133.417707 57.666048 
L 134.139181 41.967019 
L 134.860655 41.967019 
L 135.582129 57.666048 
L 136.303603 65.515563 
L 137.746551 49.816534 
L 138.468025 65.515563 
L 139.189499 49.816534 
L 139.910973 65.515563 
L 141.353921 49.816534 
L 142.075395 57.666048 
L 142.796869 49.816534 
L 143.518343 57.666048 
L 144.239817 49.816534 
L 144.961291 65.515563 
L 145.682765 65.515563 
L 146.404239 49.816534 
L 147.125713 65.515563 
L 147.847187 57.666048 
L 148.568661 65.515563 
L 149.290135 49.816534 
L 150.011609 49.816534 
L 150.733083 57.666048 
L 151.454557 49.816534 
L 152.176031 57.666048 
L 154.340453 57.666048 
L 155.061927 49.816534 
L 155.783401 57.666048 
L 156.504875 57.666048 
L 157.226349 49.816534 
L 157.947823 49.816534 
L 158.669297 57.666048 
L 160.833719 57.666048 
L 161.555192 49.816534 
L 162.276666 49.816534 
L 162.99814 57.666048 
L 163.719614 41.967019 
L 164.441088 57.666048 
L 165.162562 57.666048 
L 165.884036 49.816534 
L 166.60551 57.666048 
L 167.326984 41.967019 
L 168.048458 49.816534 
L 168.769932 41.967019 
L 169.491406 57.666048 
L 171.655828 57.666048 
L 172.377302 49.816534 
L 173.098776 57.666048 
L 173.82025 57.666048 
L 174.541724 49.816534 
L 175.263198 57.666048 
L 177.42762 57.666048 
L 178.149094 49.816534 
L 178.870568 57.666048 
L 181.03499 57.666048 
L 181.756464 65.515563 
L 182.477938 49.816534 
L 183.199412 57.666048 
L 183.920886 49.816534 
L 184.64236 49.816534 
L 185.363834 41.967019 
L 186.806782 57.666048 
L 187.528256 57.666048 
L 188.24973 65.515563 
L 188.971204 41.967019 
L 189.692678 57.666048 
L 190.414152 41.967019 
L 191.135626 65.515563 
L 191.8571 49.816534 
L 192.578574 57.666048 
L 193.300048 57.666048 
L 194.021522 49.816534 
L 194.742996 49.816534 
L 195.46447 57.666048 
L 196.907417 41.967019 
L 197.628891 49.816534 
L 198.350365 34.117505 
L 199.071839 49.816534 
L 199.793313 57.666048 
L 201.957735 57.666048 
L 202.679209 41.967019 
L 203.400683 49.816534 
L 204.122157 41.967019 
L 205.565105 57.666048 
L 206.286579 49.816534 
L 207.729527 49.816534 
L 208.451001 57.666048 
L 209.172475 57.666048 
L 210.615423 41.967019 
L 211.336897 57.666048 
L 212.058371 34.117505 
L 212.779845 49.816534 
L 213.501319 57.666048 
L 214.222793 49.816534 
L 214.944267 49.816534 
L 215.665741 57.666048 
L 216.387215 49.816534 
L 217.108689 49.816534 
L 217.830163 41.967019 
L 218.551637 26.26799 
L 219.994585 57.666048 
L 220.716059 49.816534 
L 222.880481 49.816534 
L 223.601955 34.117505 
L 224.323429 57.666048 
L 225.044903 57.666048 
L 225.766377 49.816534 
L 227.209325 49.816534 
L 227.930799 57.666048 
L 228.652273 57.666048 
L 229.373747 41.967019 
L 230.095221 57.666048 
L 231.538168 41.967019 
L 232.259642 57.666048 
L 232.981116 41.967019 
L 233.70259 49.816534 
L 235.145538 49.816534 
L 235.867012 41.967019 
L 237.30996 57.666048 
L 238.031434 41.967019 
L 238.752908 49.816534 
L 239.474382 49.816534 
L 240.195856 57.666048 
L 241.638804 41.967019 
L 242.360278 49.816534 
L 243.081752 49.816534 
L 243.803226 41.967019 
L 244.5247 49.816534 
L 245.246174 41.967019 
L 245.967648 49.816534 
L 246.689122 41.967019 
L 247.410596 49.816534 
L 248.13207 49.816534 
L 248.853544 41.967019 
L 250.296492 57.666048 
L 251.017966 57.666048 
L 251.73944 34.117505 
L 253.182388 49.816534 
L 253.903862 49.816534 
L 254.625336 57.666048 
L 256.068284 41.967019 
L 256.789758 41.967019 
L 258.232706 57.666048 
L 258.95418 49.816534 
L 264.725971 49.816534 
L 265.447445 41.967019 
L 266.890393 41.967019 
L 267.611867 49.816534 
L 270.497763 49.816534 
L 271.219237 41.967019 
L 271.940711 41.967019 
L 272.662185 49.816534 
L 273.383659 49.816534 
L 274.105133 41.967019 
L 274.826607 41.967019 
L 276.269555 57.666048 
L 276.991029 49.816534 
L 278.433977 49.816534 
L 279.155451 41.967019 
L 282.762821 41.967019 
L 283.484295 34.117505 
L 284.205769 57.666048 
L 284.927243 49.816534 
L 285.648717 57.666048 
L 286.370191 41.967019 
L 287.813139 41.967019 
L 288.534613 49.816534 
L 289.256087 49.816534 
L 289.977561 34.117505 
L 290.699035 57.666048 
L 291.420509 34.117505 
L 292.141983 49.816534 
L 292.863457 34.117505 
L 294.306405 49.816534 
L 295.027879 26.26799 
L 295.749353 49.816534 
L 296.470827 34.117505 
L 297.192301 41.967019 
L 297.913775 41.967019 
L 299.356722 26.26799 
L 300.078196 49.816534 
L 300.79967 41.967019 
L 301.521144 57.666048 
L 302.242618 41.967019 
L 302.964092 49.816534 
L 303.685566 41.967019 
L 304.40704 49.816534 
L 305.128514 41.967019 
L 305.849988 49.816534 
L 306.571462 49.816534 
L 307.292936 41.967019 
L 308.01441 41.967019 
L 308.735884 49.816534 
L 309.457358 41.967019 
L 310.178832 49.816534 
L 310.900306 49.816534 
L 311.62178 41.967019 
L 313.064728 41.967019 
L 313.786202 49.816534 
L 316.672098 49.816534 
L 317.393572 34.117505 
L 318.115046 49.816534 
L 318.83652 49.816534 
L 320.279468 34.117505 
L 321.000942 49.816534 
L 321.722416 49.816534 
L 322.44389 41.967019 
L 323.165364 41.967019 
L 323.886838 26.26799 
L 324.608312 41.967019 
L 326.772734 41.967019 
L 327.494208 57.666048 
L 328.215682 26.26799 
L 328.937156 41.967019 
L 329.65863 49.816534 
L 330.380104 49.816534 
L 331.101578 34.117505 
L 332.544526 49.816534 
L 333.266 49.816534 
L 333.987473 41.967019 
L 335.430421 41.967019 
L 336.151895 49.816534 
L 337.594843 49.816534 
L 339.037791 34.117505 
L 339.759265 49.816534 
L 340.480739 34.117505 
L 341.202213 41.967019 
L 341.923687 41.967019 
L 342.645161 26.26799 
L 343.366635 41.967019 
L 344.088109 49.816534 
L 344.809583 34.117505 
L 345.531057 26.26799 
L 346.252531 41.967019 
L 346.974005 34.117505 
L 347.695479 41.967019 
L 348.416953 41.967019 
L 349.138427 34.117505 
L 350.581375 49.816534 
L 350.581375 49.816534 
" style="fill:none;stroke:#1f77b4;stroke-linecap:square;stroke-width:1.5;"/>
   </g>
   <g id="patch_3">
    <path d="M 31.689876 183.258281 
L 31.689876 21.558281 
" style="fill:none;stroke:#000000;stroke-linecap:square;stroke-linejoin:miter;stroke-width:0.8;"/>
   </g>
   <g id="patch_4">
    <path d="M 31.689876 183.258281 
L 366.489876 183.258281 
" style="fill:none;stroke:#000000;stroke-linecap:square;stroke-linejoin:miter;stroke-width:0.8;"/>
   </g>
   <g id="text_11">
    <!-- max_iters -->
    <defs>
     <path d="M 52 44.1875 
Q 55.375 50.25 60.0625 53.125 
Q 64.75 56 71.09375 56 
Q 79.640625 56 84.28125 50.015625 
Q 88.921875 44.046875 88.921875 33.015625 
L 88.921875 0 
L 79.890625 0 
L 79.890625 32.71875 
Q 79.890625 40.578125 77.09375 44.375 
Q 74.3125 48.1875 68.609375 48.1875 
Q 61.625 48.1875 57.5625 43.546875 
Q 53.515625 38.921875 53.515625 30.90625 
L 53.515625 0 
L 44.484375 0 
L 44.484375 32.71875 
Q 44.484375 40.625 41.703125 44.40625 
Q 38.921875 48.1875 33.109375 48.1875 
Q 26.21875 48.1875 22.15625 43.53125 
Q 18.109375 38.875 18.109375 30.90625 
L 18.109375 0 
L 9.078125 0 
L 9.078125 54.6875 
L 18.109375 54.6875 
L 18.109375 46.1875 
Q 21.1875 51.21875 25.484375 53.609375 
Q 29.78125 56 35.6875 56 
Q 41.65625 56 45.828125 52.96875 
Q 50 49.953125 52 44.1875 
z
" id="DejaVuSans-6d"/>
     <path d="M 34.28125 27.484375 
Q 23.390625 27.484375 19.1875 25 
Q 14.984375 22.515625 14.984375 16.5 
Q 14.984375 11.71875 18.140625 8.90625 
Q 21.296875 6.109375 26.703125 6.109375 
Q 34.1875 6.109375 38.703125 11.40625 
Q 43.21875 16.703125 43.21875 25.484375 
L 43.21875 27.484375 
z
M 52.203125 31.203125 
L 52.203125 0 
L 43.21875 0 
L 43.21875 8.296875 
Q 40.140625 3.328125 35.546875 0.953125 
Q 30.953125 -1.421875 24.3125 -1.421875 
Q 15.921875 -1.421875 10.953125 3.296875 
Q 6 8.015625 6 15.921875 
Q 6 25.140625 12.171875 29.828125 
Q 18.359375 34.515625 30.609375 34.515625 
L 43.21875 34.515625 
L 43.21875 35.40625 
Q 43.21875 41.609375 39.140625 45 
Q 35.0625 48.390625 27.6875 48.390625 
Q 23 48.390625 18.546875 47.265625 
Q 14.109375 46.140625 10.015625 43.890625 
L 10.015625 52.203125 
Q 14.9375 54.109375 19.578125 55.046875 
Q 24.21875 56 28.609375 56 
Q 40.484375 56 46.34375 49.84375 
Q 52.203125 43.703125 52.203125 31.203125 
z
" id="DejaVuSans-61"/>
     <path d="M 54.890625 54.6875 
L 35.109375 28.078125 
L 55.90625 0 
L 45.3125 0 
L 29.390625 21.484375 
L 13.484375 0 
L 2.875 0 
L 24.125 28.609375 
L 4.6875 54.6875 
L 15.28125 54.6875 
L 29.78125 35.203125 
L 44.28125 54.6875 
z
" id="DejaVuSans-78"/>
     <path d="M 50.984375 -16.609375 
L 50.984375 -23.578125 
L -0.984375 -23.578125 
L -0.984375 -16.609375 
z
" id="DejaVuSans-5f"/>
     <path d="M 9.421875 54.6875 
L 18.40625 54.6875 
L 18.40625 0 
L 9.421875 0 
z
M 9.421875 75.984375 
L 18.40625 75.984375 
L 18.40625 64.59375 
L 9.421875 64.59375 
z
" id="DejaVuSans-69"/>
     <path d="M 18.3125 70.21875 
L 18.3125 54.6875 
L 36.8125 54.6875 
L 36.8125 47.703125 
L 18.3125 47.703125 
L 18.3125 18.015625 
Q 18.3125 11.328125 20.140625 9.421875 
Q 21.96875 7.515625 27.59375 7.515625 
L 36.8125 7.515625 
L 36.8125 0 
L 27.59375 0 
Q 17.1875 0 13.234375 3.875 
Q 9.28125 7.765625 9.28125 18.015625 
L 9.28125 47.703125 
L 2.6875 47.703125 
L 2.6875 54.6875 
L 9.28125 54.6875 
L 9.28125 70.21875 
z
" id="DejaVuSans-74"/>
     <path d="M 56.203125 29.59375 
L 56.203125 25.203125 
L 14.890625 25.203125 
Q 15.484375 15.921875 20.484375 11.0625 
Q 25.484375 6.203125 34.421875 6.203125 
Q 39.59375 6.203125 44.453125 7.46875 
Q 49.3125 8.734375 54.109375 11.28125 
L 54.109375 2.78125 
Q 49.265625 0.734375 44.1875 -0.34375 
Q 39.109375 -1.421875 33.890625 -1.421875 
Q 20.796875 -1.421875 13.15625 6.1875 
Q 5.515625 13.8125 5.515625 26.8125 
Q 5.515625 40.234375 12.765625 48.109375 
Q 20.015625 56 32.328125 56 
Q 43.359375 56 49.78125 48.890625 
Q 56.203125 41.796875 56.203125 29.59375 
z
M 47.21875 32.234375 
Q 47.125 39.59375 43.09375 43.984375 
Q 39.0625 48.390625 32.421875 48.390625 
Q 24.90625 48.390625 20.390625 44.140625 
Q 15.875 39.890625 15.1875 32.171875 
z
" id="DejaVuSans-65"/>
     <path d="M 41.109375 46.296875 
Q 39.59375 47.171875 37.8125 47.578125 
Q 36.03125 48 33.890625 48 
Q 26.265625 48 22.1875 43.046875 
Q 18.109375 38.09375 18.109375 28.8125 
L 18.109375 0 
L 9.078125 0 
L 9.078125 54.6875 
L 18.109375 54.6875 
L 18.109375 46.1875 
Q 20.953125 51.171875 25.484375 53.578125 
Q 30.03125 56 36.53125 56 
Q 37.453125 56 38.578125 55.875 
Q 39.703125 55.765625 41.0625 55.515625 
z
" id="DejaVuSans-72"/>
     <path d="M 44.28125 53.078125 
L 44.28125 44.578125 
Q 40.484375 46.53125 36.375 47.5 
Q 32.28125 48.484375 27.875 48.484375 
Q 21.1875 48.484375 17.84375 46.4375 
Q 14.5 44.390625 14.5 40.28125 
Q 14.5 37.15625 16.890625 35.375 
Q 19.28125 33.59375 26.515625 31.984375 
L 29.59375 31.296875 
Q 39.15625 29.25 43.1875 25.515625 
Q 47.21875 21.78125 47.21875 15.09375 
Q 47.21875 7.46875 41.1875 3.015625 
Q 35.15625 -1.421875 24.609375 -1.421875 
Q 20.21875 -1.421875 15.453125 -0.5625 
Q 10.6875 0.296875 5.421875 2 
L 5.421875 11.28125 
Q 10.40625 8.6875 15.234375 7.390625 
Q 20.0625 6.109375 24.8125 6.109375 
Q 31.15625 6.109375 34.5625 8.28125 
Q 37.984375 10.453125 37.984375 14.40625 
Q 37.984375 18.0625 35.515625 20.015625 
Q 33.0625 21.96875 24.703125 23.78125 
L 21.578125 24.515625 
Q 13.234375 26.265625 9.515625 29.90625 
Q 5.8125 33.546875 5.8125 39.890625 
Q 5.8125 47.609375 11.28125 51.796875 
Q 16.75 56 26.8125 56 
Q 31.78125 56 36.171875 55.265625 
Q 40.578125 54.546875 44.28125 53.078125 
z
" id="DejaVuSans-73"/>
    </defs>
    <g transform="translate(172.16222 15.558281)scale(0.11 -0.11)">
     <use xlink:href="#DejaVuSans-6d"/>
     <use x="97.412109" xlink:href="#DejaVuSans-61"/>
     <use x="158.691406" xlink:href="#DejaVuSans-78"/>
     <use x="217.871094" xlink:href="#DejaVuSans-5f"/>
     <use x="267.871094" xlink:href="#DejaVuSans-69"/>
     <use x="295.654297" xlink:href="#DejaVuSans-74"/>
     <use x="334.863281" xlink:href="#DejaVuSans-65"/>
     <use x="396.386719" xlink:href="#DejaVuSans-72"/>
     <use x="437.5" xlink:href="#DejaVuSans-73"/>
    </g>
   </g>
  </g>
  <g id="axes_2">
   <g id="patch_5">
    <path d="M 31.689876 385.383281 
L 366.489876 385.383281 
L 366.489876 223.683281 
L 31.689876 223.683281 
z
" style="fill:#ffffff;"/>
   </g>
   <g id="matplotlib.axis_3">
    <g id="xtick_6">
     <g id="line2d_12">
      <g>
       <use style="stroke:#000000;stroke-width:0.8;" x="31.689876" xlink:href="#mb725ae8ced" y="385.383281"/>
      </g>
     </g>
     <g id="text_12">
      <!-- 0 -->
      <g transform="translate(28.774897 399.34573)scale(0.09163 -0.09163)">
       <use xlink:href="#DejaVuSans-30"/>
      </g>
     </g>
    </g>
    <g id="xtick_7">
     <g id="line2d_13">
      <g>
       <use style="stroke:#000000;stroke-width:0.8;" x="103.837274" xlink:href="#mb725ae8ced" y="385.383281"/>
      </g>
     </g>
     <g id="text_13">
      <!-- 10000 -->
      <g transform="translate(89.262377 399.34573)scale(0.09163 -0.09163)">
       <use xlink:href="#DejaVuSans-31"/>
       <use x="63.623047" xlink:href="#DejaVuSans-30"/>
       <use x="127.246094" xlink:href="#DejaVuSans-30"/>
       <use x="190.869141" xlink:href="#DejaVuSans-30"/>
       <use x="254.492188" xlink:href="#DejaVuSans-30"/>
      </g>
     </g>
    </g>
    <g id="xtick_8">
     <g id="line2d_14">
      <g>
       <use style="stroke:#000000;stroke-width:0.8;" x="175.984672" xlink:href="#mb725ae8ced" y="385.383281"/>
      </g>
     </g>
     <g id="text_14">
      <!-- 20000 -->
      <g transform="translate(161.409775 399.34573)scale(0.09163 -0.09163)">
       <use xlink:href="#DejaVuSans-32"/>
       <use x="63.623047" xlink:href="#DejaVuSans-30"/>
       <use x="127.246094" xlink:href="#DejaVuSans-30"/>
       <use x="190.869141" xlink:href="#DejaVuSans-30"/>
       <use x="254.492188" xlink:href="#DejaVuSans-30"/>
      </g>
     </g>
    </g>
    <g id="xtick_9">
     <g id="line2d_15">
      <g>
       <use style="stroke:#000000;stroke-width:0.8;" x="248.13207" xlink:href="#mb725ae8ced" y="385.383281"/>
      </g>
     </g>
     <g id="text_15">
      <!-- 30000 -->
      <g transform="translate(233.557173 399.34573)scale(0.09163 -0.09163)">
       <use xlink:href="#DejaVuSans-33"/>
       <use x="63.623047" xlink:href="#DejaVuSans-30"/>
       <use x="127.246094" xlink:href="#DejaVuSans-30"/>
       <use x="190.869141" xlink:href="#DejaVuSans-30"/>
       <use x="254.492188" xlink:href="#DejaVuSans-30"/>
      </g>
     </g>
    </g>
    <g id="xtick_10">
     <g id="line2d_16">
      <g>
       <use style="stroke:#000000;stroke-width:0.8;" x="320.279468" xlink:href="#mb725ae8ced" y="385.383281"/>
      </g>
     </g>
     <g id="text_16">
      <!-- 40000 -->
      <g transform="translate(305.704571 399.34573)scale(0.09163 -0.09163)">
       <use xlink:href="#DejaVuSans-34"/>
       <use x="63.623047" xlink:href="#DejaVuSans-30"/>
       <use x="127.246094" xlink:href="#DejaVuSans-30"/>
       <use x="190.869141" xlink:href="#DejaVuSans-30"/>
       <use x="254.492188" xlink:href="#DejaVuSans-30"/>
      </g>
     </g>
    </g>
   </g>
   <g id="matplotlib.axis_4">
    <g id="ytick_6">
     <g id="line2d_17">
      <g>
       <use style="stroke:#000000;stroke-width:0.8;" x="31.689876" xlink:href="#mc12c6159c2" y="385.383281"/>
      </g>
     </g>
     <g id="text_17">
      <!-- 0 -->
      <g transform="translate(18.859918 388.864505)scale(0.09163 -0.09163)">
       <use xlink:href="#DejaVuSans-30"/>
      </g>
     </g>
    </g>
    <g id="ytick_7">
     <g id="line2d_18">
      <g>
       <use style="stroke:#000000;stroke-width:0.8;" x="31.689876" xlink:href="#mc12c6159c2" y="345.33737"/>
      </g>
     </g>
     <g id="text_18">
      <!-- 2 -->
      <g transform="translate(18.859918 348.818594)scale(0.09163 -0.09163)">
       <use xlink:href="#DejaVuSans-32"/>
      </g>
     </g>
    </g>
    <g id="ytick_8">
     <g id="line2d_19">
      <g>
       <use style="stroke:#000000;stroke-width:0.8;" x="31.689876" xlink:href="#mc12c6159c2" y="305.291458"/>
      </g>
     </g>
     <g id="text_19">
      <!-- 4 -->
      <g transform="translate(18.859918 308.772682)scale(0.09163 -0.09163)">
       <use xlink:href="#DejaVuSans-34"/>
      </g>
     </g>
    </g>
    <g id="ytick_9">
     <g id="line2d_20">
      <g>
       <use style="stroke:#000000;stroke-width:0.8;" x="31.689876" xlink:href="#mc12c6159c2" y="265.245547"/>
      </g>
     </g>
     <g id="text_20">
      <!-- 6 -->
      <defs>
       <path d="M 33.015625 40.375 
Q 26.375 40.375 22.484375 35.828125 
Q 18.609375 31.296875 18.609375 23.390625 
Q 18.609375 15.53125 22.484375 10.953125 
Q 26.375 6.390625 33.015625 6.390625 
Q 39.65625 6.390625 43.53125 10.953125 
Q 47.40625 15.53125 47.40625 23.390625 
Q 47.40625 31.296875 43.53125 35.828125 
Q 39.65625 40.375 33.015625 40.375 
z
M 52.59375 71.296875 
L 52.59375 62.3125 
Q 48.875 64.0625 45.09375 64.984375 
Q 41.3125 65.921875 37.59375 65.921875 
Q 27.828125 65.921875 22.671875 59.328125 
Q 17.53125 52.734375 16.796875 39.40625 
Q 19.671875 43.65625 24.015625 45.921875 
Q 28.375 48.1875 33.59375 48.1875 
Q 44.578125 48.1875 50.953125 41.515625 
Q 57.328125 34.859375 57.328125 23.390625 
Q 57.328125 12.15625 50.6875 5.359375 
Q 44.046875 -1.421875 33.015625 -1.421875 
Q 20.359375 -1.421875 13.671875 8.265625 
Q 6.984375 17.96875 6.984375 36.375 
Q 6.984375 53.65625 15.1875 63.9375 
Q 23.390625 74.21875 37.203125 74.21875 
Q 40.921875 74.21875 44.703125 73.484375 
Q 48.484375 72.75 52.59375 71.296875 
z
" id="DejaVuSans-36"/>
      </defs>
      <g transform="translate(18.859918 268.726771)scale(0.09163 -0.09163)">
       <use xlink:href="#DejaVuSans-36"/>
      </g>
     </g>
    </g>
    <g id="ytick_10">
     <g id="line2d_21">
      <g>
       <use style="stroke:#000000;stroke-width:0.8;" x="31.689876" xlink:href="#mc12c6159c2" y="225.199635"/>
      </g>
     </g>
     <g id="text_21">
      <!-- 8 -->
      <defs>
       <path d="M 31.78125 34.625 
Q 24.75 34.625 20.71875 30.859375 
Q 16.703125 27.09375 16.703125 20.515625 
Q 16.703125 13.921875 20.71875 10.15625 
Q 24.75 6.390625 31.78125 6.390625 
Q 38.8125 6.390625 42.859375 10.171875 
Q 46.921875 13.96875 46.921875 20.515625 
Q 46.921875 27.09375 42.890625 30.859375 
Q 38.875 34.625 31.78125 34.625 
z
M 21.921875 38.8125 
Q 15.578125 40.375 12.03125 44.71875 
Q 8.5 49.078125 8.5 55.328125 
Q 8.5 64.0625 14.71875 69.140625 
Q 20.953125 74.21875 31.78125 74.21875 
Q 42.671875 74.21875 48.875 69.140625 
Q 55.078125 64.0625 55.078125 55.328125 
Q 55.078125 49.078125 51.53125 44.71875 
Q 48 40.375 41.703125 38.8125 
Q 48.828125 37.15625 52.796875 32.3125 
Q 56.78125 27.484375 56.78125 20.515625 
Q 56.78125 9.90625 50.3125 4.234375 
Q 43.84375 -1.421875 31.78125 -1.421875 
Q 19.734375 -1.421875 13.25 4.234375 
Q 6.78125 9.90625 6.78125 20.515625 
Q 6.78125 27.484375 10.78125 32.3125 
Q 14.796875 37.15625 21.921875 38.8125 
z
M 18.3125 54.390625 
Q 18.3125 48.734375 21.84375 45.5625 
Q 25.390625 42.390625 31.78125 42.390625 
Q 38.140625 42.390625 41.71875 45.5625 
Q 45.3125 48.734375 45.3125 54.390625 
Q 45.3125 60.0625 41.71875 63.234375 
Q 38.140625 66.40625 31.78125 66.40625 
Q 25.390625 66.40625 21.84375 63.234375 
Q 18.3125 60.0625 18.3125 54.390625 
z
" id="DejaVuSans-38"/>
      </defs>
      <g transform="translate(18.859918 228.680859)scale(0.09163 -0.09163)">
       <use xlink:href="#DejaVuSans-38"/>
      </g>
     </g>
    </g>
   </g>
   <g id="line2d_22">
    <path clip-path="url(#p33644b808b)" d="M 32.41135 313.100411 
L 33.854298 300.419206 
L 34.575772 295.430152 
L 35.297246 294.198741 
L 36.740194 288.071716 
L 37.461668 287.04554 
L 38.183142 283.377445 
L 38.904616 283.025931 
L 39.62609 281.1911 
L 40.347564 282.415231 
L 41.069038 279.323225 
L 41.790512 278.861157 
L 42.511986 277.16588 
L 43.954934 276.046165 
L 44.676408 274.711955 
L 45.397882 274.972488 
L 46.119356 274.736428 
L 46.84083 272.930548 
L 47.562304 271.607386 
L 48.283778 271.304667 
L 49.726726 269.442358 
L 50.4482 269.488873 
L 51.169674 267.626054 
L 51.891148 268.377709 
L 52.612622 266.937141 
L 53.334096 267.428049 
L 54.05557 266.718203 
L 54.777044 266.791069 
L 55.498518 265.791627 
L 56.219992 265.42222 
L 56.941466 264.850808 
L 58.384413 264.141578 
L 59.105887 264.323437 
L 59.827361 264.203326 
L 60.548835 263.148142 
L 61.270309 262.750003 
L 61.991783 263.39104 
L 63.434731 262.146539 
L 64.156205 261.939534 
L 64.877679 261.018962 
L 66.320627 259.972835 
L 67.042101 260.006888 
L 67.763575 259.490949 
L 68.485049 259.662675 
L 69.206523 259.049982 
L 70.649471 258.556396 
L 71.370945 258.488709 
L 72.092419 257.558162 
L 72.813893 257.141519 
L 73.535367 257.481473 
L 74.256841 256.489746 
L 74.978315 257.496663 
L 75.699789 257.269189 
L 76.421263 256.906954 
L 77.142737 256.232038 
L 77.864211 256.394774 
L 78.585685 256.025746 
L 80.028633 256.026021 
L 80.750107 256.235217 
L 81.471581 255.11219 
L 82.193055 254.896539 
L 82.914529 255.191767 
L 83.636003 254.28854 
L 85.078951 254.211275 
L 85.800425 253.920563 
L 86.521899 254.30669 
L 87.243373 253.400798 
L 87.964847 253.881236 
L 88.686321 252.745139 
L 89.407795 252.290694 
L 90.129269 253.061207 
L 90.850743 252.931429 
L 91.572217 252.252337 
L 92.29369 252.242544 
L 93.015164 251.707673 
L 93.736638 252.428527 
L 94.458112 252.20761 
L 95.179586 251.302288 
L 95.90106 252.050644 
L 96.622534 251.411909 
L 97.344008 251.504518 
L 98.065482 250.979191 
L 98.786956 250.710603 
L 99.50843 250.916353 
L 100.229904 250.517082 
L 100.951378 250.334702 
L 102.394326 250.669652 
L 103.1158 249.76315 
L 103.837274 249.399379 
L 104.558748 249.702975 
L 105.280222 249.823945 
L 106.001696 248.988073 
L 106.72317 249.437038 
L 107.444644 248.920163 
L 108.166118 248.724719 
L 108.887592 249.187885 
L 109.609066 248.633909 
L 110.33054 248.670581 
L 111.052014 248.054929 
L 111.773488 248.042039 
L 112.494962 247.612831 
L 113.93791 248.138214 
L 114.659384 247.534807 
L 115.380858 247.937773 
L 116.102332 247.106802 
L 116.823806 247.358938 
L 117.54528 247.142439 
L 118.266754 247.246578 
L 118.988228 246.807879 
L 119.709702 247.626987 
L 120.431176 246.23839 
L 121.15265 246.238271 
L 121.874124 246.856464 
L 122.595598 247.061207 
L 123.317072 246.412932 
L 124.038546 246.056359 
L 124.76002 245.899336 
L 125.481494 245.95882 
L 126.202968 245.83245 
L 126.924441 246.070533 
L 127.645915 245.720907 
L 128.367389 245.726153 
L 129.088863 245.32493 
L 129.810337 245.193145 
L 130.531811 245.237206 
L 131.253285 244.801819 
L 131.974759 245.006516 
L 133.417707 245.108985 
L 134.139181 245.050563 
L 134.860655 244.635904 
L 135.582129 244.982037 
L 136.303603 243.965978 
L 137.025077 244.348987 
L 137.746551 244.601471 
L 138.468025 243.938686 
L 139.189499 244.27654 
L 139.910973 243.600731 
L 140.632447 244.28244 
L 141.353921 243.577284 
L 142.075395 243.258247 
L 142.796869 243.72477 
L 143.518343 243.069154 
L 144.239817 243.678513 
L 144.961291 243.224121 
L 145.682765 243.031471 
L 146.404239 243.190072 
L 147.125713 242.837356 
L 147.847187 243.107122 
L 148.568661 242.556571 
L 149.290135 243.112196 
L 150.011609 242.413272 
L 152.176031 242.467336 
L 152.897505 242.582659 
L 153.618979 242.498758 
L 154.340453 241.876402 
L 155.783401 241.967696 
L 156.504875 241.46684 
L 157.226349 241.396365 
L 157.947823 241.473149 
L 158.669297 242.108794 
L 159.390771 241.180669 
L 160.112245 241.772568 
L 160.833719 241.203458 
L 162.276666 241.260037 
L 162.99814 241.497441 
L 163.719614 240.797846 
L 164.441088 241.039534 
L 165.162562 240.983136 
L 165.884036 240.727114 
L 166.60551 241.04668 
L 167.326984 240.646067 
L 168.048458 240.711599 
L 169.491406 240.151856 
L 170.21288 240.299238 
L 170.934354 240.273912 
L 172.377302 240.445832 
L 173.098776 240.063615 
L 173.82025 240.272754 
L 174.541724 239.66167 
L 175.263198 239.887831 
L 175.984672 239.681238 
L 176.706146 239.830339 
L 178.149094 239.194004 
L 178.870568 239.519975 
L 179.592042 239.534118 
L 180.313516 239.422738 
L 181.03499 239.658724 
L 181.756464 238.703579 
L 182.477938 239.25211 
L 183.920886 239.036352 
L 184.64236 239.272373 
L 185.363834 239.273987 
L 186.085308 238.285666 
L 186.806782 238.637367 
L 188.24973 238.400022 
L 188.971204 239.054051 
L 189.692678 238.613187 
L 190.414152 238.870763 
L 191.135626 238.42747 
L 192.578574 238.473149 
L 193.300048 237.909743 
L 194.021522 238.246593 
L 194.742996 238.215442 
L 195.46447 237.97728 
L 196.185943 237.496189 
L 196.907417 237.788741 
L 197.628891 237.747934 
L 198.350365 237.161401 
L 199.071839 237.612142 
L 199.793313 237.270985 
L 200.514787 237.697724 
L 201.236261 237.606199 
L 201.957735 237.219348 
L 203.400683 237.097309 
L 204.122157 237.484012 
L 204.843631 236.70032 
L 205.565105 237.475119 
L 206.286579 237.045447 
L 207.008053 236.785758 
L 207.729527 236.908961 
L 209.172475 236.576906 
L 209.893949 236.071208 
L 210.615423 236.247785 
L 211.336897 236.74299 
L 212.058371 236.506198 
L 212.779845 236.668561 
L 213.501319 236.61272 
L 214.222793 236.13945 
L 214.944267 236.019914 
L 215.665741 236.10076 
L 216.387215 236.421876 
L 217.108689 236.31744 
L 217.830163 235.970123 
L 218.551637 235.849683 
L 219.273111 236.051307 
L 219.994585 235.761936 
L 221.437533 235.906968 
L 222.159007 235.842139 
L 222.880481 235.44081 
L 223.601955 235.847933 
L 225.044903 235.58617 
L 225.766377 235.543092 
L 226.487851 235.191832 
L 227.930799 235.030759 
L 228.652273 235.207446 
L 229.373747 235.057652 
L 230.816694 235.434558 
L 231.538168 235.026786 
L 232.259642 235.131885 
L 232.981116 234.721663 
L 233.70259 235.633025 
L 234.424064 234.898299 
L 235.145538 234.660127 
L 235.867012 234.707355 
L 236.588486 234.229706 
L 237.30996 234.312539 
L 238.031434 234.845659 
L 238.752908 234.279732 
L 240.195856 234.577861 
L 240.91733 234.087066 
L 241.638804 234.322121 
L 242.360278 234.026193 
L 243.081752 234.169646 
L 243.803226 233.929371 
L 244.5247 233.9534 
L 245.246174 234.38246 
L 245.967648 233.874901 
L 246.689122 234.121945 
L 247.410596 233.778032 
L 248.13207 234.147227 
L 248.853544 233.679124 
L 249.575018 233.511151 
L 250.296492 233.815453 
L 251.017966 233.57832 
L 251.73944 233.740575 
L 252.460914 233.654426 
L 253.182388 233.730588 
L 253.903862 233.325185 
L 254.625336 233.507542 
L 255.34681 233.46524 
L 256.789758 233.245398 
L 257.511232 233.199861 
L 258.232706 233.268121 
L 258.95418 232.78039 
L 259.675654 233.07512 
L 261.118602 233.155927 
L 262.56155 232.839644 
L 263.283024 233.104024 
L 264.004498 232.450806 
L 264.725971 233.110872 
L 265.447445 232.614309 
L 266.168919 232.287145 
L 266.890393 232.650509 
L 267.611867 232.466682 
L 268.333341 232.59592 
L 269.054815 232.866784 
L 269.776289 232.317492 
L 271.219237 232.567118 
L 272.662185 232.270017 
L 274.105133 232.275605 
L 274.826607 232.226088 
L 275.548081 232.039429 
L 276.269555 232.073593 
L 276.991029 232.497414 
L 277.712503 231.884132 
L 278.433977 232.469373 
L 279.155451 231.657184 
L 279.876925 231.937593 
L 280.598399 231.869311 
L 281.319873 232.143434 
L 282.041347 232.260756 
L 282.762821 231.587418 
L 283.484295 231.712546 
L 284.205769 231.413616 
L 284.927243 231.624095 
L 288.534613 231.499554 
L 289.256087 231.349543 
L 289.977561 231.402836 
L 290.699035 231.203733 
L 291.420509 231.125874 
L 292.141983 231.322444 
L 292.863457 231.187163 
L 293.584931 230.815991 
L 294.306405 230.92433 
L 295.027879 230.874086 
L 295.749353 230.463594 
L 296.470827 231.107225 
L 297.192301 230.706492 
L 297.913775 231.056757 
L 298.635249 231.115607 
L 299.356722 230.891336 
L 300.79967 230.825388 
L 301.521144 230.575852 
L 302.242618 230.481958 
L 302.964092 230.90032 
L 303.685566 230.352492 
L 305.128514 230.698287 
L 305.849988 230.309177 
L 306.571462 230.449749 
L 307.292936 230.364719 
L 308.01441 230.614198 
L 308.735884 230.452011 
L 309.457358 230.172609 
L 310.178832 230.476151 
L 311.62178 230.053138 
L 312.343254 230.224934 
L 313.786202 229.837689 
L 314.507676 229.860591 
L 315.22915 230.035204 
L 317.393572 229.405973 
L 318.115046 229.952691 
L 321.000942 229.624658 
L 321.722416 229.599206 
L 322.44389 229.701571 
L 323.886838 229.336229 
L 324.608312 229.563259 
L 325.329786 229.61846 
L 326.05126 229.234653 
L 326.772734 229.537616 
L 327.494208 229.307271 
L 329.65863 229.191136 
L 330.380104 228.94741 
L 331.101578 229.402526 
L 331.823052 229.247545 
L 332.544526 228.935333 
L 333.266 228.915378 
L 333.987473 229.204704 
L 334.708947 228.680292 
L 335.430421 229.007802 
L 336.151895 228.865449 
L 337.594843 228.760321 
L 338.316317 228.649708 
L 339.037791 229.012457 
L 339.759265 228.347506 
L 340.480739 228.867859 
L 341.923687 228.844279 
L 343.366635 228.504813 
L 344.088109 228.952205 
L 344.809583 228.430528 
L 345.531057 228.532191 
L 347.695479 228.339308 
L 348.416953 228.444813 
L 349.138427 228.151201 
L 349.859901 228.214883 
L 350.581375 227.94124 
L 350.581375 227.94124 
" style="fill:none;stroke:#1f77b4;stroke-linecap:square;stroke-width:1.5;"/>
   </g>
   <g id="patch_6">
    <path d="M 31.689876 385.383281 
L 31.689876 223.683281 
" style="fill:none;stroke:#000000;stroke-linecap:square;stroke-linejoin:miter;stroke-width:0.8;"/>
   </g>
   <g id="patch_7">
    <path d="M 31.689876 385.383281 
L 366.489876 385.383281 
" style="fill:none;stroke:#000000;stroke-linecap:square;stroke-linejoin:miter;stroke-width:0.8;"/>
   </g>
   <g id="text_22">
    <!-- avg_iters -->
    <defs>
     <path d="M 2.984375 54.6875 
L 12.5 54.6875 
L 29.59375 8.796875 
L 46.6875 54.6875 
L 56.203125 54.6875 
L 35.6875 0 
L 23.484375 0 
z
" id="DejaVuSans-76"/>
     <path d="M 45.40625 27.984375 
Q 45.40625 37.75 41.375 43.109375 
Q 37.359375 48.484375 30.078125 48.484375 
Q 22.859375 48.484375 18.828125 43.109375 
Q 14.796875 37.75 14.796875 27.984375 
Q 14.796875 18.265625 18.828125 12.890625 
Q 22.859375 7.515625 30.078125 7.515625 
Q 37.359375 7.515625 41.375 12.890625 
Q 45.40625 18.265625 45.40625 27.984375 
z
M 54.390625 6.78125 
Q 54.390625 -7.171875 48.1875 -13.984375 
Q 42 -20.796875 29.203125 -20.796875 
Q 24.46875 -20.796875 20.265625 -20.09375 
Q 16.0625 -19.390625 12.109375 -17.921875 
L 12.109375 -9.1875 
Q 16.0625 -11.328125 19.921875 -12.34375 
Q 23.78125 -13.375 27.78125 -13.375 
Q 36.625 -13.375 41.015625 -8.765625 
Q 45.40625 -4.15625 45.40625 5.171875 
L 45.40625 9.625 
Q 42.625 4.78125 38.28125 2.390625 
Q 33.9375 0 27.875 0 
Q 17.828125 0 11.671875 7.65625 
Q 5.515625 15.328125 5.515625 27.984375 
Q 5.515625 40.671875 11.671875 48.328125 
Q 17.828125 56 27.875 56 
Q 33.9375 56 38.28125 53.609375 
Q 42.625 51.21875 45.40625 46.390625 
L 45.40625 54.6875 
L 54.390625 54.6875 
z
" id="DejaVuSans-67"/>
    </defs>
    <g transform="translate(174.027923 217.683281)scale(0.11 -0.11)">
     <use xlink:href="#DejaVuSans-61"/>
     <use x="61.279297" xlink:href="#DejaVuSans-76"/>
     <use x="120.458984" xlink:href="#DejaVuSans-67"/>
     <use x="183.935547" xlink:href="#DejaVuSans-5f"/>
     <use x="233.935547" xlink:href="#DejaVuSans-69"/>
     <use x="261.71875" xlink:href="#DejaVuSans-74"/>
     <use x="300.927734" xlink:href="#DejaVuSans-65"/>
     <use x="362.451172" xlink:href="#DejaVuSans-72"/>
     <use x="403.564453" xlink:href="#DejaVuSans-73"/>
    </g>
   </g>
  </g>
  <g id="axes_3">
   <g id="patch_8">
    <path d="M 31.689876 587.508281 
L 366.489876 587.508281 
L 366.489876 425.808281 
L 31.689876 425.808281 
z
" style="fill:#ffffff;"/>
   </g>
   <g id="matplotlib.axis_5">
    <g id="xtick_11">
     <g id="line2d_23">
      <g>
       <use style="stroke:#000000;stroke-width:0.8;" x="31.689876" xlink:href="#mb725ae8ced" y="587.508281"/>
      </g>
     </g>
     <g id="text_23">
      <!-- 0 -->
      <g transform="translate(28.774897 601.47073)scale(0.09163 -0.09163)">
       <use xlink:href="#DejaVuSans-30"/>
      </g>
     </g>
    </g>
    <g id="xtick_12">
     <g id="line2d_24">
      <g>
       <use style="stroke:#000000;stroke-width:0.8;" x="103.837274" xlink:href="#mb725ae8ced" y="587.508281"/>
      </g>
     </g>
     <g id="text_24">
      <!-- 10000 -->
      <g transform="translate(89.262377 601.47073)scale(0.09163 -0.09163)">
       <use xlink:href="#DejaVuSans-31"/>
       <use x="63.623047" xlink:href="#DejaVuSans-30"/>
       <use x="127.246094" xlink:href="#DejaVuSans-30"/>
       <use x="190.869141" xlink:href="#DejaVuSans-30"/>
       <use x="254.492188" xlink:href="#DejaVuSans-30"/>
      </g>
     </g>
    </g>
    <g id="xtick_13">
     <g id="line2d_25">
      <g>
       <use style="stroke:#000000;stroke-width:0.8;" x="175.984672" xlink:href="#mb725ae8ced" y="587.508281"/>
      </g>
     </g>
     <g id="text_25">
      <!-- 20000 -->
      <g transform="translate(161.409775 601.47073)scale(0.09163 -0.09163)">
       <use xlink:href="#DejaVuSans-32"/>
       <use x="63.623047" xlink:href="#DejaVuSans-30"/>
       <use x="127.246094" xlink:href="#DejaVuSans-30"/>
       <use x="190.869141" xlink:href="#DejaVuSans-30"/>
       <use x="254.492188" xlink:href="#DejaVuSans-30"/>
      </g>
     </g>
    </g>
    <g id="xtick_14">
     <g id="line2d_26">
      <g>
       <use style="stroke:#000000;stroke-width:0.8;" x="248.13207" xlink:href="#mb725ae8ced" y="587.508281"/>
      </g>
     </g>
     <g id="text_26">
      <!-- 30000 -->
      <g transform="translate(233.557173 601.47073)scale(0.09163 -0.09163)">
       <use xlink:href="#DejaVuSans-33"/>
       <use x="63.623047" xlink:href="#DejaVuSans-30"/>
       <use x="127.246094" xlink:href="#DejaVuSans-30"/>
       <use x="190.869141" xlink:href="#DejaVuSans-30"/>
       <use x="254.492188" xlink:href="#DejaVuSans-30"/>
      </g>
     </g>
    </g>
    <g id="xtick_15">
     <g id="line2d_27">
      <g>
       <use style="stroke:#000000;stroke-width:0.8;" x="320.279468" xlink:href="#mb725ae8ced" y="587.508281"/>
      </g>
     </g>
     <g id="text_27">
      <!-- 40000 -->
      <g transform="translate(305.704571 601.47073)scale(0.09163 -0.09163)">
       <use xlink:href="#DejaVuSans-34"/>
       <use x="63.623047" xlink:href="#DejaVuSans-30"/>
       <use x="127.246094" xlink:href="#DejaVuSans-30"/>
       <use x="190.869141" xlink:href="#DejaVuSans-30"/>
       <use x="254.492188" xlink:href="#DejaVuSans-30"/>
      </g>
     </g>
    </g>
   </g>
   <g id="matplotlib.axis_6">
    <g id="ytick_11">
     <g id="line2d_28">
      <g>
       <use style="stroke:#000000;stroke-width:0.8;" x="31.689876" xlink:href="#mc12c6159c2" y="587.508281"/>
      </g>
     </g>
     <g id="text_28">
      <!-- 0 -->
      <g transform="translate(18.859918 590.989505)scale(0.09163 -0.09163)">
       <use xlink:href="#DejaVuSans-30"/>
      </g>
     </g>
    </g>
    <g id="ytick_12">
     <g id="line2d_29">
      <g>
       <use style="stroke:#000000;stroke-width:0.8;" x="31.689876" xlink:href="#mc12c6159c2" y="554.20927"/>
      </g>
     </g>
     <g id="text_29">
      <!-- 50 -->
      <g transform="translate(13.029959 557.690494)scale(0.09163 -0.09163)">
       <use xlink:href="#DejaVuSans-35"/>
       <use x="63.623047" xlink:href="#DejaVuSans-30"/>
      </g>
     </g>
    </g>
    <g id="ytick_13">
     <g id="line2d_30">
      <g>
       <use style="stroke:#000000;stroke-width:0.8;" x="31.689876" xlink:href="#mc12c6159c2" y="520.910258"/>
      </g>
     </g>
     <g id="text_30">
      <!-- 100 -->
      <g transform="translate(7.2 524.391482)scale(0.09163 -0.09163)">
       <use xlink:href="#DejaVuSans-31"/>
       <use x="63.623047" xlink:href="#DejaVuSans-30"/>
       <use x="127.246094" xlink:href="#DejaVuSans-30"/>
      </g>
     </g>
    </g>
    <g id="ytick_14">
     <g id="line2d_31">
      <g>
       <use style="stroke:#000000;stroke-width:0.8;" x="31.689876" xlink:href="#mc12c6159c2" y="487.611247"/>
      </g>
     </g>
     <g id="text_31">
      <!-- 150 -->
      <g transform="translate(7.2 491.092471)scale(0.09163 -0.09163)">
       <use xlink:href="#DejaVuSans-31"/>
       <use x="63.623047" xlink:href="#DejaVuSans-35"/>
       <use x="127.246094" xlink:href="#DejaVuSans-30"/>
      </g>
     </g>
    </g>
    <g id="ytick_15">
     <g id="line2d_32">
      <g>
       <use style="stroke:#000000;stroke-width:0.8;" x="31.689876" xlink:href="#mc12c6159c2" y="454.312235"/>
      </g>
     </g>
     <g id="text_32">
      <!-- 200 -->
      <g transform="translate(7.2 457.793459)scale(0.09163 -0.09163)">
       <use xlink:href="#DejaVuSans-32"/>
       <use x="63.623047" xlink:href="#DejaVuSans-30"/>
       <use x="127.246094" xlink:href="#DejaVuSans-30"/>
      </g>
     </g>
    </g>
   </g>
   <g id="line2d_33">
    <path clip-path="url(#pc1a64c747b)" d="M 32.41135 562.867013 
L 33.132824 559.537112 
L 33.854298 548.215448 
L 34.575772 549.547408 
L 35.297246 543.553586 
L 36.01872 542.887606 
L 36.740194 532.897902 
L 38.183142 541.555645 
L 38.904616 532.231922 
L 39.62609 530.899962 
L 40.347564 534.895843 
L 41.069038 520.244278 
L 41.790512 521.576238 
L 42.511986 528.902021 
L 43.23346 504.926733 
L 43.954934 530.233981 
L 44.676408 514.250456 
L 45.397882 520.910258 
L 46.119356 524.240159 
L 46.84083 522.242219 
L 47.562304 518.912317 
L 48.283778 524.90614 
L 49.726726 510.920555 
L 50.4482 513.584476 
L 51.169674 515.582416 
L 51.891148 520.910258 
L 52.612622 506.924673 
L 53.334096 512.918495 
L 54.05557 513.584476 
L 54.777044 513.584476 
L 55.498518 520.244278 
L 56.219992 509.588594 
L 56.941466 501.596831 
L 57.662939 506.924673 
L 58.384413 510.254574 
L 59.105887 514.250456 
L 59.827361 505.592713 
L 60.548835 512.252515 
L 61.270309 504.260752 
L 61.991783 510.254574 
L 62.713257 474.957622 
L 63.434731 508.256634 
L 64.156205 504.926733 
L 64.877679 514.250456 
L 65.599153 509.588594 
L 66.320627 513.584476 
L 67.042101 510.254574 
L 68.485049 500.264871 
L 69.206523 502.928792 
L 69.927997 498.26693 
L 70.649471 497.60095 
L 71.370945 504.260752 
L 72.092419 502.928792 
L 72.813893 504.260752 
L 73.535367 499.598891 
L 74.256841 490.275168 
L 74.978315 495.603009 
L 75.699789 504.926733 
L 76.421263 499.598891 
L 77.142737 506.258693 
L 77.864211 504.260752 
L 78.585685 502.928792 
L 79.307159 502.928792 
L 80.028633 490.941148 
L 80.750107 498.932911 
L 81.471581 494.937029 
L 82.193055 506.258693 
L 82.914529 500.930851 
L 83.636003 500.264871 
L 84.357477 474.291642 
L 85.078951 495.603009 
L 86.521899 490.275168 
L 87.243373 491.607128 
L 87.964847 488.943207 
L 88.686321 488.943207 
L 89.407795 494.937029 
L 90.129269 497.60095 
L 90.850743 490.275168 
L 91.572217 494.271049 
L 92.29369 488.277227 
L 93.015164 493.605069 
L 93.736638 495.603009 
L 94.458112 488.943207 
L 95.179586 484.947326 
L 95.90106 494.937029 
L 96.622534 491.607128 
L 97.344008 471.627721 
L 98.065482 484.947326 
L 99.50843 483.615365 
L 100.229904 476.289583 
L 100.951378 494.271049 
L 101.672852 483.615365 
L 102.394326 488.943207 
L 103.1158 484.281346 
L 103.837274 492.273108 
L 104.558748 492.939088 
L 106.001696 498.26693 
L 106.72317 488.277227 
L 107.444644 491.607128 
L 108.166118 490.275168 
L 108.887592 495.603009 
L 109.609066 492.273108 
L 110.33054 482.283405 
L 111.052014 492.273108 
L 111.773488 492.939088 
L 112.494962 488.943207 
L 113.216436 484.281346 
L 113.93791 482.949385 
L 114.659384 458.308117 
L 115.380858 488.277227 
L 116.102332 484.947326 
L 116.823806 482.283405 
L 117.54528 490.941148 
L 118.266754 485.613306 
L 118.988228 486.279286 
L 119.709702 487.611247 
L 120.431176 481.617425 
L 121.15265 484.947326 
L 121.874124 488.943207 
L 122.595598 478.287523 
L 123.317072 475.623603 
L 124.038546 488.943207 
L 124.76002 476.955563 
L 125.481494 482.949385 
L 126.202968 486.279286 
L 126.924441 480.951444 
L 127.645915 484.947326 
L 128.367389 481.617425 
L 129.088863 487.611247 
L 129.810337 479.619484 
L 130.531811 481.617425 
L 131.253285 490.275168 
L 131.974759 484.281346 
L 132.696233 485.613306 
L 133.417707 478.287523 
L 134.139181 476.289583 
L 134.860655 481.617425 
L 135.582129 480.285464 
L 136.303603 485.613306 
L 137.025077 474.957622 
L 137.746551 474.957622 
L 138.468025 482.283405 
L 139.189499 481.617425 
L 139.910973 480.285464 
L 140.632447 482.283405 
L 141.353921 480.951444 
L 142.075395 482.283405 
L 142.796869 480.951444 
L 143.518343 467.63184 
L 144.239817 484.281346 
L 144.961291 476.955563 
L 145.682765 479.619484 
L 146.404239 483.615365 
L 147.125713 480.951444 
L 147.847187 468.29782 
L 148.568661 481.617425 
L 149.290135 467.63184 
L 150.011609 461.638018 
L 150.733083 462.303998 
L 151.454557 480.285464 
L 152.176031 482.283405 
L 152.897505 463.635958 
L 153.618979 478.953504 
L 154.340453 472.959682 
L 155.061927 473.625662 
L 155.783401 480.285464 
L 156.504875 475.623603 
L 157.226349 479.619484 
L 157.947823 481.617425 
L 158.669297 478.953504 
L 159.390771 482.283405 
L 160.112245 474.957622 
L 160.833719 479.619484 
L 161.555192 488.277227 
L 162.276666 472.959682 
L 162.99814 473.625662 
L 163.719614 465.633899 
L 164.441088 460.972037 
L 165.162562 477.621543 
L 166.60551 480.285464 
L 167.326984 480.285464 
L 168.048458 468.9638 
L 168.769932 472.959682 
L 169.491406 452.314294 
L 170.21288 479.619484 
L 170.934354 474.957622 
L 171.655828 463.635958 
L 172.377302 475.623603 
L 173.098776 476.289583 
L 173.82025 485.613306 
L 174.541724 480.285464 
L 175.263198 472.293701 
L 175.984672 470.295761 
L 176.706146 466.96586 
L 177.42762 477.621543 
L 178.149094 474.957622 
L 178.870568 467.63184 
L 179.592042 469.62978 
L 180.313516 476.955563 
L 181.03499 480.285464 
L 181.756464 468.29782 
L 182.477938 464.967919 
L 183.199412 470.295761 
L 183.920886 469.62978 
L 184.64236 463.635958 
L 185.363834 459.640077 
L 186.085308 470.295761 
L 186.806782 478.953504 
L 187.528256 470.961741 
L 188.24973 475.623603 
L 188.971204 471.627721 
L 189.692678 477.621543 
L 190.414152 475.623603 
L 191.135626 480.285464 
L 191.8571 475.623603 
L 192.578574 458.308117 
L 193.300048 480.951444 
L 194.021522 481.617425 
L 194.742996 470.961741 
L 195.46447 470.961741 
L 196.185943 478.953504 
L 196.907417 466.299879 
L 197.628891 474.957622 
L 198.350365 471.627721 
L 199.071839 462.969978 
L 199.793313 475.623603 
L 200.514787 472.959682 
L 201.236261 480.285464 
L 201.957735 475.623603 
L 202.679209 466.299879 
L 203.400683 463.635958 
L 204.122157 474.957622 
L 204.843631 468.9638 
L 205.565105 470.961741 
L 206.286579 468.9638 
L 207.008053 478.287523 
L 207.729527 457.642136 
L 208.451001 477.621543 
L 209.172475 471.627721 
L 209.893949 458.974097 
L 210.615423 463.635958 
L 211.336897 465.633899 
L 212.058371 466.96586 
L 212.779845 472.293701 
L 213.501319 476.289583 
L 214.222793 468.29782 
L 214.944267 474.291642 
L 215.665741 462.969978 
L 216.387215 461.638018 
L 217.108689 469.62978 
L 217.830163 451.648314 
L 218.551637 454.978215 
L 219.273111 464.301939 
L 219.994585 456.310176 
L 220.716059 476.955563 
L 221.437533 470.295761 
L 222.159007 474.957622 
L 222.880481 455.644196 
L 223.601955 471.627721 
L 224.323429 470.295761 
L 225.044903 473.625662 
L 226.487851 460.972037 
L 227.209325 464.301939 
L 227.930799 466.96586 
L 228.652273 456.310176 
L 229.373747 459.640077 
L 230.095221 465.633899 
L 230.816694 462.969978 
L 231.538168 470.295761 
L 232.259642 469.62978 
L 232.981116 454.978215 
L 233.70259 468.29782 
L 234.424064 462.969978 
L 235.145538 466.96586 
L 235.867012 453.646255 
L 236.588486 462.303998 
L 237.30996 474.291642 
L 238.031434 456.310176 
L 238.752908 467.63184 
L 239.474382 468.29782 
L 240.195856 463.635958 
L 240.91733 474.957622 
L 241.638804 468.29782 
L 242.360278 462.969978 
L 243.081752 466.299879 
L 243.803226 467.63184 
L 244.5247 470.961741 
L 245.246174 476.289583 
L 245.967648 466.299879 
L 246.689122 452.980275 
L 247.410596 470.961741 
L 248.13207 462.969978 
L 248.853544 468.9638 
L 249.575018 462.969978 
L 250.296492 470.295761 
L 251.017966 470.295761 
L 251.73944 458.308117 
L 252.460914 456.310176 
L 253.182388 472.293701 
L 253.903862 456.976156 
L 254.625336 467.63184 
L 255.34681 451.648314 
L 256.068284 472.293701 
L 256.789758 461.638018 
L 257.511232 471.627721 
L 258.232706 463.635958 
L 258.95418 471.627721 
L 259.675654 471.627721 
L 260.397128 461.638018 
L 261.118602 463.635958 
L 261.840076 455.644196 
L 262.56155 432.334888 
L 263.283024 464.967919 
L 264.004498 464.967919 
L 264.725971 465.633899 
L 265.447445 467.63184 
L 266.168919 454.312235 
L 266.890393 467.63184 
L 267.611867 460.306057 
L 268.333341 465.633899 
L 269.054815 463.635958 
L 269.776289 453.646255 
L 270.497763 469.62978 
L 271.219237 469.62978 
L 271.940711 458.974097 
L 272.662185 465.633899 
L 274.105133 454.312235 
L 274.826607 457.642136 
L 275.548081 464.301939 
L 276.269555 458.308117 
L 276.991029 458.974097 
L 277.712503 454.978215 
L 278.433977 457.642136 
L 279.155451 442.990571 
L 279.876925 459.640077 
L 280.598399 448.318413 
L 281.319873 462.303998 
L 282.041347 461.638018 
L 282.762821 452.980275 
L 283.484295 449.650374 
L 284.205769 456.976156 
L 284.927243 458.974097 
L 285.648717 458.308117 
L 286.370191 456.310176 
L 287.091665 460.972037 
L 287.813139 460.306057 
L 288.534613 444.988512 
L 289.256087 463.635958 
L 289.977561 452.980275 
L 290.699035 469.62978 
L 291.420509 455.644196 
L 292.141983 466.96586 
L 292.863457 454.978215 
L 293.584931 468.29782 
L 294.306405 450.982334 
L 295.027879 460.972037 
L 295.749353 466.299879 
L 296.470827 466.96586 
L 297.192301 468.9638 
L 298.635249 454.978215 
L 299.356722 459.640077 
L 300.078196 461.638018 
L 300.79967 446.986453 
L 301.521144 459.640077 
L 302.242618 440.32665 
L 302.964092 455.644196 
L 303.685566 450.982334 
L 304.40704 466.96586 
L 305.128514 456.976156 
L 305.849988 444.988512 
L 306.571462 462.969978 
L 307.292936 460.972037 
L 308.01441 459.640077 
L 308.735884 456.310176 
L 309.457358 455.644196 
L 310.178832 448.318413 
L 310.900306 462.303998 
L 311.62178 461.638018 
L 312.343254 443.656551 
L 313.064728 469.62978 
L 313.786202 453.646255 
L 314.507676 458.308117 
L 315.22915 457.642136 
L 315.950624 444.322532 
L 316.672098 464.301939 
L 317.393572 444.322532 
L 318.115046 454.978215 
L 318.83652 451.648314 
L 319.557994 466.299879 
L 320.279468 433.000868 
L 321.000942 452.980275 
L 321.722416 452.980275 
L 322.44389 456.310176 
L 323.165364 462.969978 
L 323.886838 463.635958 
L 324.608312 438.99469 
L 325.329786 465.633899 
L 326.05126 461.638018 
L 326.772734 455.644196 
L 327.494208 457.642136 
L 328.215682 461.638018 
L 328.937156 445.654492 
L 329.65863 460.306057 
L 330.380104 458.308117 
L 331.101578 446.986453 
L 331.823052 452.314294 
L 332.544526 456.310176 
L 333.266 454.978215 
L 333.987473 461.638018 
L 334.708947 458.974097 
L 335.430421 454.312235 
L 336.151895 461.638018 
L 336.873369 456.310176 
L 337.594843 462.303998 
L 338.316317 452.980275 
L 339.037791 458.974097 
L 339.759265 466.96586 
L 340.480739 464.301939 
L 341.202213 455.644196 
L 341.923687 458.974097 
L 342.645161 460.972037 
L 343.366635 442.990571 
L 344.088109 466.299879 
L 344.809583 450.316354 
L 345.531057 448.984393 
L 346.252531 459.640077 
L 346.974005 460.306057 
L 347.695479 456.976156 
L 348.416953 443.656551 
L 349.138427 442.324591 
L 349.859901 452.980275 
L 350.581375 458.974097 
L 350.581375 458.974097 
" style="fill:none;stroke:#1f77b4;stroke-linecap:square;stroke-width:1.5;"/>
   </g>
   <g id="patch_9">
    <path d="M 31.689876 587.508281 
L 31.689876 425.808281 
" style="fill:none;stroke:#000000;stroke-linecap:square;stroke-linejoin:miter;stroke-width:0.8;"/>
   </g>
   <g id="patch_10">
    <path d="M 31.689876 587.508281 
L 366.489876 587.508281 
" style="fill:none;stroke:#000000;stroke-linecap:square;stroke-linejoin:miter;stroke-width:0.8;"/>
   </g>
   <g id="text_33">
    <!-- max_iters2 -->
    <g transform="translate(168.662845 419.808281)scale(0.11 -0.11)">
     <use xlink:href="#DejaVuSans-6d"/>
     <use x="97.412109" xlink:href="#DejaVuSans-61"/>
     <use x="158.691406" xlink:href="#DejaVuSans-78"/>
     <use x="217.871094" xlink:href="#DejaVuSans-5f"/>
     <use x="267.871094" xlink:href="#DejaVuSans-69"/>
     <use x="295.654297" xlink:href="#DejaVuSans-74"/>
     <use x="334.863281" xlink:href="#DejaVuSans-65"/>
     <use x="396.386719" xlink:href="#DejaVuSans-72"/>
     <use x="437.5" xlink:href="#DejaVuSans-73"/>
     <use x="489.599609" xlink:href="#DejaVuSans-32"/>
    </g>
   </g>
  </g>
  <g id="axes_4">
   <g id="patch_11">
    <path d="M 31.689876 789.633281 
L 366.489876 789.633281 
L 366.489876 627.933281 
L 31.689876 627.933281 
z
" style="fill:#ffffff;"/>
   </g>
   <g id="matplotlib.axis_7">
    <g id="xtick_16">
     <g id="line2d_34">
      <g>
       <use style="stroke:#000000;stroke-width:0.8;" x="31.689876" xlink:href="#mb725ae8ced" y="789.633281"/>
      </g>
     </g>
     <g id="text_34">
      <!-- 0 -->
      <g transform="translate(28.774897 803.59573)scale(0.09163 -0.09163)">
       <use xlink:href="#DejaVuSans-30"/>
      </g>
     </g>
    </g>
    <g id="xtick_17">
     <g id="line2d_35">
      <g>
       <use style="stroke:#000000;stroke-width:0.8;" x="103.837274" xlink:href="#mb725ae8ced" y="789.633281"/>
      </g>
     </g>
     <g id="text_35">
      <!-- 10000 -->
      <g transform="translate(89.262377 803.59573)scale(0.09163 -0.09163)">
       <use xlink:href="#DejaVuSans-31"/>
       <use x="63.623047" xlink:href="#DejaVuSans-30"/>
       <use x="127.246094" xlink:href="#DejaVuSans-30"/>
       <use x="190.869141" xlink:href="#DejaVuSans-30"/>
       <use x="254.492188" xlink:href="#DejaVuSans-30"/>
      </g>
     </g>
    </g>
    <g id="xtick_18">
     <g id="line2d_36">
      <g>
       <use style="stroke:#000000;stroke-width:0.8;" x="175.984672" xlink:href="#mb725ae8ced" y="789.633281"/>
      </g>
     </g>
     <g id="text_36">
      <!-- 20000 -->
      <g transform="translate(161.409775 803.59573)scale(0.09163 -0.09163)">
       <use xlink:href="#DejaVuSans-32"/>
       <use x="63.623047" xlink:href="#DejaVuSans-30"/>
       <use x="127.246094" xlink:href="#DejaVuSans-30"/>
       <use x="190.869141" xlink:href="#DejaVuSans-30"/>
       <use x="254.492188" xlink:href="#DejaVuSans-30"/>
      </g>
     </g>
    </g>
    <g id="xtick_19">
     <g id="line2d_37">
      <g>
       <use style="stroke:#000000;stroke-width:0.8;" x="248.13207" xlink:href="#mb725ae8ced" y="789.633281"/>
      </g>
     </g>
     <g id="text_37">
      <!-- 30000 -->
      <g transform="translate(233.557173 803.59573)scale(0.09163 -0.09163)">
       <use xlink:href="#DejaVuSans-33"/>
       <use x="63.623047" xlink:href="#DejaVuSans-30"/>
       <use x="127.246094" xlink:href="#DejaVuSans-30"/>
       <use x="190.869141" xlink:href="#DejaVuSans-30"/>
       <use x="254.492188" xlink:href="#DejaVuSans-30"/>
      </g>
     </g>
    </g>
    <g id="xtick_20">
     <g id="line2d_38">
      <g>
       <use style="stroke:#000000;stroke-width:0.8;" x="320.279468" xlink:href="#mb725ae8ced" y="789.633281"/>
      </g>
     </g>
     <g id="text_38">
      <!-- 40000 -->
      <g transform="translate(305.704571 803.59573)scale(0.09163 -0.09163)">
       <use xlink:href="#DejaVuSans-34"/>
       <use x="63.623047" xlink:href="#DejaVuSans-30"/>
       <use x="127.246094" xlink:href="#DejaVuSans-30"/>
       <use x="190.869141" xlink:href="#DejaVuSans-30"/>
       <use x="254.492188" xlink:href="#DejaVuSans-30"/>
      </g>
     </g>
    </g>
   </g>
   <g id="matplotlib.axis_8">
    <g id="ytick_16">
     <g id="line2d_39">
      <g>
       <use style="stroke:#000000;stroke-width:0.8;" x="31.689876" xlink:href="#mc12c6159c2" y="789.633281"/>
      </g>
     </g>
     <g id="text_39">
      <!-- 0 -->
      <g transform="translate(18.859918 793.114505)scale(0.09163 -0.09163)">
       <use xlink:href="#DejaVuSans-30"/>
      </g>
     </g>
    </g>
    <g id="ytick_17">
     <g id="line2d_40">
      <g>
       <use style="stroke:#000000;stroke-width:0.8;" x="31.689876" xlink:href="#mc12c6159c2" y="768.270742"/>
      </g>
     </g>
     <g id="text_40">
      <!-- 10 -->
      <g transform="translate(13.029959 771.751966)scale(0.09163 -0.09163)">
       <use xlink:href="#DejaVuSans-31"/>
       <use x="63.623047" xlink:href="#DejaVuSans-30"/>
      </g>
     </g>
    </g>
    <g id="ytick_18">
     <g id="line2d_41">
      <g>
       <use style="stroke:#000000;stroke-width:0.8;" x="31.689876" xlink:href="#mc12c6159c2" y="746.908202"/>
      </g>
     </g>
     <g id="text_41">
      <!-- 20 -->
      <g transform="translate(13.029959 750.389427)scale(0.09163 -0.09163)">
       <use xlink:href="#DejaVuSans-32"/>
       <use x="63.623047" xlink:href="#DejaVuSans-30"/>
      </g>
     </g>
    </g>
    <g id="ytick_19">
     <g id="line2d_42">
      <g>
       <use style="stroke:#000000;stroke-width:0.8;" x="31.689876" xlink:href="#mc12c6159c2" y="725.545663"/>
      </g>
     </g>
     <g id="text_42">
      <!-- 30 -->
      <g transform="translate(13.029959 729.026887)scale(0.09163 -0.09163)">
       <use xlink:href="#DejaVuSans-33"/>
       <use x="63.623047" xlink:href="#DejaVuSans-30"/>
      </g>
     </g>
    </g>
    <g id="ytick_20">
     <g id="line2d_43">
      <g>
       <use style="stroke:#000000;stroke-width:0.8;" x="31.689876" xlink:href="#mc12c6159c2" y="704.183124"/>
      </g>
     </g>
     <g id="text_43">
      <!-- 40 -->
      <g transform="translate(13.029959 707.664348)scale(0.09163 -0.09163)">
       <use xlink:href="#DejaVuSans-34"/>
       <use x="63.623047" xlink:href="#DejaVuSans-30"/>
      </g>
     </g>
    </g>
    <g id="ytick_21">
     <g id="line2d_44">
      <g>
       <use style="stroke:#000000;stroke-width:0.8;" x="31.689876" xlink:href="#mc12c6159c2" y="682.820584"/>
      </g>
     </g>
     <g id="text_44">
      <!-- 50 -->
      <g transform="translate(13.029959 686.301808)scale(0.09163 -0.09163)">
       <use xlink:href="#DejaVuSans-35"/>
       <use x="63.623047" xlink:href="#DejaVuSans-30"/>
      </g>
     </g>
    </g>
    <g id="ytick_22">
     <g id="line2d_45">
      <g>
       <use style="stroke:#000000;stroke-width:0.8;" x="31.689876" xlink:href="#mc12c6159c2" y="661.458045"/>
      </g>
     </g>
     <g id="text_45">
      <!-- 60 -->
      <g transform="translate(13.029959 664.939269)scale(0.09163 -0.09163)">
       <use xlink:href="#DejaVuSans-36"/>
       <use x="63.623047" xlink:href="#DejaVuSans-30"/>
      </g>
     </g>
    </g>
    <g id="ytick_23">
     <g id="line2d_46">
      <g>
       <use style="stroke:#000000;stroke-width:0.8;" x="31.689876" xlink:href="#mc12c6159c2" y="640.095505"/>
      </g>
     </g>
     <g id="text_46">
      <!-- 70 -->
      <defs>
       <path d="M 8.203125 72.90625 
L 55.078125 72.90625 
L 55.078125 68.703125 
L 28.609375 0 
L 18.3125 0 
L 43.21875 64.59375 
L 8.203125 64.59375 
z
" id="DejaVuSans-37"/>
      </defs>
      <g transform="translate(13.029959 643.576729)scale(0.09163 -0.09163)">
       <use xlink:href="#DejaVuSans-37"/>
       <use x="63.623047" xlink:href="#DejaVuSans-30"/>
      </g>
     </g>
    </g>
   </g>
   <g id="line2d_47">
    <path clip-path="url(#p7886a9ec04)" d="M 32.41135 760.238427 
L 33.132824 748.435624 
L 33.854298 745.092387 
L 34.575772 739.425973 
L 35.297246 736.850719 
L 36.01872 734.77784 
L 36.740194 730.230163 
L 37.461668 727.310743 
L 38.183142 726.400165 
L 38.904616 724.588621 
L 39.62609 722.170382 
L 40.347564 722.524644 
L 41.069038 715.970316 
L 41.790512 717.417217 
L 42.511986 715.730288 
L 43.23346 714.789624 
L 43.954934 714.035024 
L 44.676408 709.95813 
L 46.119356 710.728606 
L 46.84083 708.655015 
L 47.562304 708.450776 
L 49.005252 704.629957 
L 49.726726 705.571689 
L 51.169674 704.149893 
L 51.891148 702.944859 
L 52.612622 701.303601 
L 53.334096 700.840598 
L 54.05557 700.822314 
L 54.777044 700.357226 
L 55.498518 700.251769 
L 56.219992 697.516126 
L 56.941466 698.284011 
L 57.662939 696.478961 
L 58.384413 696.70508 
L 59.105887 695.891647 
L 59.827361 697.28138 
L 60.548835 695.147838 
L 61.270309 694.33864 
L 61.991783 695.55164 
L 62.713257 693.507816 
L 63.434731 692.449263 
L 64.156205 691.659454 
L 64.877679 691.913596 
L 66.320627 691.049612 
L 67.042101 689.963956 
L 67.763575 689.803571 
L 68.485049 690.060391 
L 69.927997 688.002814 
L 70.649471 688.726931 
L 71.370945 687.114843 
L 72.092419 686.826823 
L 72.813893 686.196615 
L 74.256841 686.367128 
L 74.978315 684.728971 
L 75.699789 686.008505 
L 76.421263 684.533722 
L 77.142737 684.213218 
L 77.864211 685.515268 
L 78.585685 683.515031 
L 79.307159 684.072558 
L 80.028633 683.963321 
L 80.750107 682.9874 
L 81.471581 682.483737 
L 82.193055 681.445752 
L 82.914529 681.576442 
L 83.636003 682.128675 
L 84.357477 680.674381 
L 85.078951 680.192992 
L 85.800425 681.22523 
L 87.243373 679.690833 
L 87.964847 679.851465 
L 88.686321 678.411248 
L 89.407795 678.977997 
L 90.129269 678.694713 
L 91.572217 678.303051 
L 92.29369 678.538921 
L 93.015164 677.389473 
L 93.736638 677.060896 
L 94.458112 676.976579 
L 95.179586 676.433185 
L 95.90106 676.240922 
L 96.622534 676.848093 
L 97.344008 674.813388 
L 98.065482 675.339748 
L 98.786956 675.23114 
L 99.50843 674.635777 
L 100.229904 675.457254 
L 100.951378 674.197462 
L 101.672852 674.451314 
L 102.394326 672.705858 
L 103.1158 674.000445 
L 103.837274 672.779336 
L 104.558748 672.684165 
L 105.280222 673.976702 
L 106.001696 673.160153 
L 106.72317 671.740821 
L 107.444644 673.010092 
L 108.166118 671.792072 
L 108.887592 672.817326 
L 109.609066 670.920661 
L 111.052014 671.690313 
L 111.773488 670.259603 
L 112.494962 670.697915 
L 113.216436 671.291619 
L 113.93791 670.649184 
L 114.659384 670.191608 
L 115.380858 670.211714 
L 116.102332 670.055097 
L 116.823806 668.835 
L 117.54528 669.502028 
L 118.266754 668.618412 
L 118.988228 669.49548 
L 119.709702 668.630255 
L 120.431176 668.142088 
L 121.15265 667.941059 
L 121.874124 668.140931 
L 122.595598 667.678274 
L 124.038546 667.642834 
L 124.76002 666.541832 
L 126.202968 666.495527 
L 126.924441 666.957604 
L 127.645915 666.104638 
L 128.367389 666.239109 
L 129.088863 666.096089 
L 129.810337 665.545358 
L 130.531811 665.654614 
L 131.253285 666.165234 
L 131.974759 665.363701 
L 132.696233 665.694389 
L 133.417707 665.265576 
L 134.139181 664.570807 
L 134.860655 665.039781 
L 135.582129 664.445685 
L 136.303603 664.884743 
L 137.746551 664.621154 
L 138.468025 663.262025 
L 139.189499 663.207192 
L 139.910973 662.959974 
L 140.632447 662.509336 
L 141.353921 663.083987 
L 142.075395 662.346196 
L 142.796869 663.145963 
L 143.518343 662.527136 
L 144.239817 662.695977 
L 144.961291 661.808418 
L 145.682765 662.425038 
L 146.404239 662.264178 
L 147.125713 661.714262 
L 147.847187 661.741994 
L 148.568661 661.916944 
L 149.290135 661.890931 
L 150.011609 660.98377 
L 150.733083 660.97797 
L 151.454557 660.662612 
L 152.176031 660.690528 
L 152.897505 661.071612 
L 153.618979 660.481056 
L 154.340453 659.43652 
L 155.061927 660.775318 
L 155.783401 659.198459 
L 156.504875 660.154436 
L 157.226349 659.043096 
L 157.947823 659.299085 
L 158.669297 658.754955 
L 159.390771 659.634625 
L 160.112245 659.016595 
L 160.833719 659.153039 
L 161.555192 658.749275 
L 162.276666 659.442648 
L 162.99814 657.96527 
L 163.719614 658.682782 
L 164.441088 657.254617 
L 165.162562 657.953664 
L 165.884036 658.979531 
L 166.60551 657.715716 
L 167.326984 657.06293 
L 168.048458 657.095339 
L 168.769932 656.734338 
L 169.491406 656.744082 
L 170.21288 657.158722 
L 170.934354 656.566245 
L 171.655828 655.579492 
L 172.377302 656.324462 
L 173.098776 656.628476 
L 173.82025 656.438499 
L 174.541724 655.336275 
L 175.984672 655.682148 
L 176.706146 654.994123 
L 177.42762 656.016202 
L 178.149094 655.071382 
L 178.870568 654.776282 
L 179.592042 655.157138 
L 180.313516 654.88222 
L 181.756464 654.833706 
L 182.477938 655.272005 
L 183.920886 654.318502 
L 184.64236 654.877375 
L 185.363834 654.4743 
L 186.085308 653.379711 
L 186.806782 653.404566 
L 187.528256 653.205676 
L 188.24973 653.96127 
L 188.971204 653.786051 
L 189.692678 652.762711 
L 190.414152 653.104127 
L 191.135626 653.066337 
L 191.8571 652.848749 
L 192.578574 652.38912 
L 193.300048 653.041776 
L 195.46447 652.2698 
L 196.185943 652.424876 
L 196.907417 651.997798 
L 197.628891 652.885722 
L 199.793313 650.770265 
L 200.514787 651.626621 
L 201.236261 652.077526 
L 201.957735 650.585779 
L 202.679209 651.189604 
L 203.400683 651.065349 
L 204.122157 651.093012 
L 204.843631 650.9329 
L 205.565105 651.061757 
L 206.286579 650.494383 
L 207.008053 650.823104 
L 207.729527 650.55168 
L 208.451001 649.862633 
L 209.172475 650.595628 
L 209.893949 649.901516 
L 210.615423 650.513361 
L 211.336897 649.805337 
L 212.779845 650.04747 
L 213.501319 649.992804 
L 214.222793 650.332215 
L 214.944267 649.367184 
L 215.665741 649.589353 
L 216.387215 649.966918 
L 217.108689 648.403871 
L 218.551637 649.368415 
L 219.273111 648.865814 
L 219.994585 648.69847 
L 220.716059 648.377485 
L 221.437533 648.781449 
L 222.159007 648.53913 
L 222.880481 648.130561 
L 224.323429 647.593277 
L 225.044903 647.976848 
L 225.766377 647.562308 
L 226.487851 647.636482 
L 227.209325 647.836627 
L 227.930799 647.201141 
L 228.652273 647.173627 
L 229.373747 647.366955 
L 230.095221 647.29305 
L 230.816694 647.437408 
L 232.259642 646.37832 
L 233.70259 646.702939 
L 234.424064 647.209535 
L 235.145538 645.890587 
L 235.867012 646.343029 
L 236.588486 646.333442 
L 237.30996 646.991633 
L 238.031434 645.02831 
L 238.752908 646.14423 
L 239.474382 645.818515 
L 240.195856 646.164093 
L 240.91733 646.272594 
L 241.638804 645.850324 
L 242.360278 645.607992 
L 243.081752 645.021284 
L 243.803226 645.558575 
L 245.246174 645.076946 
L 245.967648 645.313647 
L 246.689122 645.939522 
L 247.410596 645.557742 
L 248.13207 645.950764 
L 248.853544 644.766662 
L 249.575018 645.258803 
L 250.296492 644.560206 
L 251.73944 643.955121 
L 252.460914 644.673442 
L 253.182388 644.848357 
L 253.903862 644.220972 
L 254.625336 643.280667 
L 255.34681 644.00044 
L 256.068284 644.239357 
L 256.789758 643.842371 
L 257.511232 643.748636 
L 258.232706 643.871844 
L 258.95418 643.729918 
L 259.675654 643.901079 
L 260.397128 643.123393 
L 261.118602 642.855236 
L 261.840076 643.493957 
L 262.56155 643.589282 
L 263.283024 642.980446 
L 264.004498 642.983362 
L 264.725971 643.267809 
L 265.447445 642.931316 
L 266.168919 642.927652 
L 266.890393 642.260658 
L 267.611867 642.453616 
L 268.333341 642.367359 
L 269.054815 641.333559 
L 269.776289 642.22069 
L 270.497763 642.499727 
L 271.219237 642.006359 
L 271.940711 642.179155 
L 272.662185 641.971763 
L 273.383659 642.05225 
L 274.105133 641.560683 
L 274.826607 641.967105 
L 275.548081 641.84717 
L 276.269555 641.008297 
L 276.991029 641.742746 
L 278.433977 641.626362 
L 279.155451 640.911143 
L 279.876925 641.705831 
L 280.598399 640.851244 
L 281.319873 641.105842 
L 282.041347 640.812782 
L 282.762821 640.692981 
L 283.484295 640.75652 
L 284.205769 640.945002 
L 284.927243 640.905456 
L 285.648717 640.577133 
L 286.370191 639.836371 
L 287.091665 640.232793 
L 287.813139 640.098514 
L 289.256087 640.610181 
L 289.977561 640.233705 
L 290.699035 640.036297 
L 291.420509 639.980919 
L 292.141983 639.799684 
L 294.306405 639.709512 
L 295.027879 639.484654 
L 296.470827 639.590546 
L 297.192301 639.589132 
L 297.913775 639.309318 
L 298.635249 639.514387 
L 299.356722 639.221426 
L 300.078196 639.627539 
L 300.79967 639.044789 
L 301.521144 639.613706 
L 302.242618 638.870663 
L 302.964092 638.776709 
L 303.685566 638.89994 
L 304.40704 638.03792 
L 305.128514 638.541676 
L 305.849988 638.712899 
L 306.571462 638.565364 
L 307.292936 638.143238 
L 308.01441 638.381203 
L 308.735884 637.900727 
L 309.457358 638.097414 
L 310.178832 637.827091 
L 310.900306 638.461961 
L 311.62178 637.927483 
L 312.343254 638.169637 
L 313.064728 638.056314 
L 313.786202 637.490969 
L 314.507676 637.752656 
L 315.22915 636.885852 
L 315.950624 637.238727 
L 316.672098 637.373431 
L 317.393572 637.352631 
L 318.115046 637.861963 
L 318.83652 637.693991 
L 319.557994 636.652603 
L 320.279468 636.357862 
L 321.000942 637.169637 
L 321.722416 636.884163 
L 322.44389 637.249093 
L 323.165364 637.18359 
L 323.886838 637.374656 
L 324.608312 636.482605 
L 325.329786 636.786306 
L 326.05126 636.452512 
L 326.772734 636.761591 
L 327.494208 636.360031 
L 328.215682 636.417562 
L 328.937156 635.752377 
L 329.65863 635.967104 
L 330.380104 635.279491 
L 331.101578 636.132214 
L 331.823052 635.843436 
L 332.544526 635.342776 
L 333.266 636.17042 
L 333.987473 635.076379 
L 334.708947 635.542843 
L 335.430421 635.774538 
L 336.151895 635.293895 
L 336.873369 635.572051 
L 337.594843 635.565992 
L 338.316317 635.200267 
L 339.037791 635.427941 
L 339.759265 634.957589 
L 341.202213 634.752679 
L 341.923687 635.03313 
L 342.645161 635.177561 
L 343.366635 635.042424 
L 344.088109 635.271716 
L 344.809583 635.0189 
L 345.531057 634.233526 
L 346.252531 634.609546 
L 346.974005 635.499235 
L 347.695479 634.551487 
L 348.416953 634.689469 
L 349.859901 634.574573 
L 350.581375 634.296204 
L 350.581375 634.296204 
" style="fill:none;stroke:#1f77b4;stroke-linecap:square;stroke-width:1.5;"/>
   </g>
   <g id="patch_12">
    <path d="M 31.689876 789.633281 
L 31.689876 627.933281 
" style="fill:none;stroke:#000000;stroke-linecap:square;stroke-linejoin:miter;stroke-width:0.8;"/>
   </g>
   <g id="patch_13">
    <path d="M 31.689876 789.633281 
L 366.489876 789.633281 
" style="fill:none;stroke:#000000;stroke-linecap:square;stroke-linejoin:miter;stroke-width:0.8;"/>
   </g>
   <g id="text_47">
    <!-- avg_iters2 -->
    <g transform="translate(170.528548 621.933281)scale(0.11 -0.11)">
     <use xlink:href="#DejaVuSans-61"/>
     <use x="61.279297" xlink:href="#DejaVuSans-76"/>
     <use x="120.458984" xlink:href="#DejaVuSans-67"/>
     <use x="183.935547" xlink:href="#DejaVuSans-5f"/>
     <use x="233.935547" xlink:href="#DejaVuSans-69"/>
     <use x="261.71875" xlink:href="#DejaVuSans-74"/>
     <use x="300.927734" xlink:href="#DejaVuSans-65"/>
     <use x="362.451172" xlink:href="#DejaVuSans-72"/>
     <use x="403.564453" xlink:href="#DejaVuSans-73"/>
     <use x="455.664062" xlink:href="#DejaVuSans-32"/>
    </g>
   </g>
  </g>
  <g id="axes_5">
   <g id="patch_14">
    <path d="M 31.689876 991.758281 
L 366.489876 991.758281 
L 366.489876 830.058281 
L 31.689876 830.058281 
z
" style="fill:#ffffff;"/>
   </g>
   <g id="matplotlib.axis_9">
    <g id="xtick_21">
     <g id="line2d_48">
      <g>
       <use style="stroke:#000000;stroke-width:0.8;" x="31.689876" xlink:href="#mb725ae8ced" y="991.758281"/>
      </g>
     </g>
     <g id="text_48">
      <!-- 0 -->
      <g transform="translate(28.774897 1005.72073)scale(0.09163 -0.09163)">
       <use xlink:href="#DejaVuSans-30"/>
      </g>
     </g>
    </g>
    <g id="xtick_22">
     <g id="line2d_49">
      <g>
       <use style="stroke:#000000;stroke-width:0.8;" x="103.837274" xlink:href="#mb725ae8ced" y="991.758281"/>
      </g>
     </g>
     <g id="text_49">
      <!-- 10000 -->
      <g transform="translate(89.262377 1005.72073)scale(0.09163 -0.09163)">
       <use xlink:href="#DejaVuSans-31"/>
       <use x="63.623047" xlink:href="#DejaVuSans-30"/>
       <use x="127.246094" xlink:href="#DejaVuSans-30"/>
       <use x="190.869141" xlink:href="#DejaVuSans-30"/>
       <use x="254.492188" xlink:href="#DejaVuSans-30"/>
      </g>
     </g>
    </g>
    <g id="xtick_23">
     <g id="line2d_50">
      <g>
       <use style="stroke:#000000;stroke-width:0.8;" x="175.984672" xlink:href="#mb725ae8ced" y="991.758281"/>
      </g>
     </g>
     <g id="text_50">
      <!-- 20000 -->
      <g transform="translate(161.409775 1005.72073)scale(0.09163 -0.09163)">
       <use xlink:href="#DejaVuSans-32"/>
       <use x="63.623047" xlink:href="#DejaVuSans-30"/>
       <use x="127.246094" xlink:href="#DejaVuSans-30"/>
       <use x="190.869141" xlink:href="#DejaVuSans-30"/>
       <use x="254.492188" xlink:href="#DejaVuSans-30"/>
      </g>
     </g>
    </g>
    <g id="xtick_24">
     <g id="line2d_51">
      <g>
       <use style="stroke:#000000;stroke-width:0.8;" x="248.13207" xlink:href="#mb725ae8ced" y="991.758281"/>
      </g>
     </g>
     <g id="text_51">
      <!-- 30000 -->
      <g transform="translate(233.557173 1005.72073)scale(0.09163 -0.09163)">
       <use xlink:href="#DejaVuSans-33"/>
       <use x="63.623047" xlink:href="#DejaVuSans-30"/>
       <use x="127.246094" xlink:href="#DejaVuSans-30"/>
       <use x="190.869141" xlink:href="#DejaVuSans-30"/>
       <use x="254.492188" xlink:href="#DejaVuSans-30"/>
      </g>
     </g>
    </g>
    <g id="xtick_25">
     <g id="line2d_52">
      <g>
       <use style="stroke:#000000;stroke-width:0.8;" x="320.279468" xlink:href="#mb725ae8ced" y="991.758281"/>
      </g>
     </g>
     <g id="text_52">
      <!-- 40000 -->
      <g transform="translate(305.704571 1005.72073)scale(0.09163 -0.09163)">
       <use xlink:href="#DejaVuSans-34"/>
       <use x="63.623047" xlink:href="#DejaVuSans-30"/>
       <use x="127.246094" xlink:href="#DejaVuSans-30"/>
       <use x="190.869141" xlink:href="#DejaVuSans-30"/>
       <use x="254.492188" xlink:href="#DejaVuSans-30"/>
      </g>
     </g>
    </g>
   </g>
   <g id="matplotlib.axis_10">
    <g id="ytick_24">
     <g id="line2d_53">
      <g>
       <use style="stroke:#000000;stroke-width:0.8;" x="31.689876" xlink:href="#mc12c6159c2" y="991.758281"/>
      </g>
     </g>
     <g id="text_53">
      <!-- 0 -->
      <g transform="translate(18.859918 995.239505)scale(0.09163 -0.09163)">
       <use xlink:href="#DejaVuSans-30"/>
      </g>
     </g>
    </g>
    <g id="ytick_25">
     <g id="line2d_54">
      <g>
       <use style="stroke:#000000;stroke-width:0.8;" x="31.689876" xlink:href="#mc12c6159c2" y="970.082678"/>
      </g>
     </g>
     <g id="text_54">
      <!-- 5 -->
      <g transform="translate(18.859918 973.563902)scale(0.09163 -0.09163)">
       <use xlink:href="#DejaVuSans-35"/>
      </g>
     </g>
    </g>
    <g id="ytick_26">
     <g id="line2d_55">
      <g>
       <use style="stroke:#000000;stroke-width:0.8;" x="31.689876" xlink:href="#mc12c6159c2" y="948.407075"/>
      </g>
     </g>
     <g id="text_55">
      <!-- 10 -->
      <g transform="translate(13.029959 951.888299)scale(0.09163 -0.09163)">
       <use xlink:href="#DejaVuSans-31"/>
       <use x="63.623047" xlink:href="#DejaVuSans-30"/>
      </g>
     </g>
    </g>
    <g id="ytick_27">
     <g id="line2d_56">
      <g>
       <use style="stroke:#000000;stroke-width:0.8;" x="31.689876" xlink:href="#mc12c6159c2" y="926.731472"/>
      </g>
     </g>
     <g id="text_56">
      <!-- 15 -->
      <g transform="translate(13.029959 930.212696)scale(0.09163 -0.09163)">
       <use xlink:href="#DejaVuSans-31"/>
       <use x="63.623047" xlink:href="#DejaVuSans-35"/>
      </g>
     </g>
    </g>
    <g id="ytick_28">
     <g id="line2d_57">
      <g>
       <use style="stroke:#000000;stroke-width:0.8;" x="31.689876" xlink:href="#mc12c6159c2" y="905.055868"/>
      </g>
     </g>
     <g id="text_57">
      <!-- 20 -->
      <g transform="translate(13.029959 908.537093)scale(0.09163 -0.09163)">
       <use xlink:href="#DejaVuSans-32"/>
       <use x="63.623047" xlink:href="#DejaVuSans-30"/>
      </g>
     </g>
    </g>
    <g id="ytick_29">
     <g id="line2d_58">
      <g>
       <use style="stroke:#000000;stroke-width:0.8;" x="31.689876" xlink:href="#mc12c6159c2" y="883.380265"/>
      </g>
     </g>
     <g id="text_58">
      <!-- 25 -->
      <g transform="translate(13.029959 886.861489)scale(0.09163 -0.09163)">
       <use xlink:href="#DejaVuSans-32"/>
       <use x="63.623047" xlink:href="#DejaVuSans-35"/>
      </g>
     </g>
    </g>
    <g id="ytick_30">
     <g id="line2d_59">
      <g>
       <use style="stroke:#000000;stroke-width:0.8;" x="31.689876" xlink:href="#mc12c6159c2" y="861.704662"/>
      </g>
     </g>
     <g id="text_59">
      <!-- 30 -->
      <g transform="translate(13.029959 865.185886)scale(0.09163 -0.09163)">
       <use xlink:href="#DejaVuSans-33"/>
       <use x="63.623047" xlink:href="#DejaVuSans-30"/>
      </g>
     </g>
    </g>
    <g id="ytick_31">
     <g id="line2d_60">
      <g>
       <use style="stroke:#000000;stroke-width:0.8;" x="31.689876" xlink:href="#mc12c6159c2" y="840.029059"/>
      </g>
     </g>
     <g id="text_60">
      <!-- 35 -->
      <g transform="translate(13.029959 843.510283)scale(0.09163 -0.09163)">
       <use xlink:href="#DejaVuSans-33"/>
       <use x="63.623047" xlink:href="#DejaVuSans-35"/>
      </g>
     </g>
    </g>
   </g>
   <g id="line2d_61">
    <path clip-path="url(#pbce0b4ecd2)" d="M 32.41135 948.407075 
L 33.132824 931.066592 
L 33.854298 926.731472 
L 34.575772 926.731472 
L 35.297246 922.396351 
L 36.01872 922.396351 
L 36.740194 905.055868 
L 37.461668 909.390989 
L 38.183142 918.06123 
L 39.62609 909.390989 
L 41.790512 909.390989 
L 42.511986 896.385627 
L 43.23346 892.050506 
L 43.954934 905.055868 
L 44.676408 896.385627 
L 46.119356 905.055868 
L 46.84083 905.055868 
L 47.562304 892.050506 
L 48.283778 900.720748 
L 49.005252 892.050506 
L 49.726726 892.050506 
L 50.4482 900.720748 
L 51.169674 900.720748 
L 52.612622 892.050506 
L 53.334096 892.050506 
L 54.777044 883.380265 
L 55.498518 900.720748 
L 56.219992 896.385627 
L 56.941466 879.045145 
L 57.662939 892.050506 
L 59.105887 892.050506 
L 59.827361 887.715386 
L 61.270309 896.385627 
L 61.991783 896.385627 
L 62.713257 879.045145 
L 63.434731 892.050506 
L 64.156205 883.380265 
L 64.877679 887.715386 
L 65.599153 879.045145 
L 66.320627 892.050506 
L 67.042101 887.715386 
L 67.763575 887.715386 
L 68.485049 883.380265 
L 69.206523 892.050506 
L 69.927997 883.380265 
L 70.649471 887.715386 
L 71.370945 874.710024 
L 72.092419 887.715386 
L 72.813893 883.380265 
L 73.535367 887.715386 
L 74.256841 883.380265 
L 74.978315 870.374903 
L 75.699789 887.715386 
L 76.421263 883.380265 
L 77.142737 887.715386 
L 77.864211 879.045145 
L 78.585685 883.380265 
L 79.307159 870.374903 
L 80.028633 887.715386 
L 80.750107 866.039783 
L 81.471581 883.380265 
L 82.193055 887.715386 
L 82.914529 870.374903 
L 83.636003 887.715386 
L 84.357477 879.045145 
L 85.078951 883.380265 
L 85.800425 879.045145 
L 86.521899 883.380265 
L 87.243373 883.380265 
L 87.964847 879.045145 
L 88.686321 870.374903 
L 89.407795 874.710024 
L 90.129269 883.380265 
L 91.572217 883.380265 
L 92.29369 870.374903 
L 93.015164 883.380265 
L 94.458112 874.710024 
L 95.179586 879.045145 
L 95.90106 874.710024 
L 96.622534 879.045145 
L 98.065482 879.045145 
L 98.786956 861.704662 
L 99.50843 879.045145 
L 100.229904 887.715386 
L 100.951378 861.704662 
L 101.672852 879.045145 
L 103.1158 879.045145 
L 103.837274 874.710024 
L 104.558748 874.710024 
L 105.280222 879.045145 
L 106.001696 879.045145 
L 106.72317 874.710024 
L 107.444644 883.380265 
L 108.887592 874.710024 
L 109.609066 874.710024 
L 110.33054 866.039783 
L 111.773488 874.710024 
L 112.494962 870.374903 
L 113.216436 874.710024 
L 113.93791 861.704662 
L 114.659384 870.374903 
L 115.380858 874.710024 
L 116.102332 883.380265 
L 116.823806 879.045145 
L 117.54528 879.045145 
L 118.266754 874.710024 
L 119.709702 874.710024 
L 120.431176 879.045145 
L 121.15265 874.710024 
L 121.874124 874.710024 
L 122.595598 870.374903 
L 123.317072 861.704662 
L 124.038546 870.374903 
L 124.76002 870.374903 
L 125.481494 874.710024 
L 126.202968 874.710024 
L 126.924441 853.034421 
L 127.645915 879.045145 
L 128.367389 870.374903 
L 129.088863 866.039783 
L 129.810337 874.710024 
L 130.531811 870.374903 
L 131.253285 879.045145 
L 132.696233 861.704662 
L 133.417707 874.710024 
L 134.139181 879.045145 
L 134.860655 879.045145 
L 135.582129 857.369541 
L 136.303603 879.045145 
L 137.025077 870.374903 
L 137.746551 870.374903 
L 138.468025 861.704662 
L 139.189499 861.704662 
L 140.632447 870.374903 
L 141.353921 857.369541 
L 142.075395 870.374903 
L 142.796869 861.704662 
L 143.518343 870.374903 
L 144.239817 874.710024 
L 145.682765 874.710024 
L 146.404239 866.039783 
L 147.125713 866.039783 
L 147.847187 861.704662 
L 149.290135 870.374903 
L 150.733083 861.704662 
L 151.454557 879.045145 
L 153.618979 866.039783 
L 154.340453 870.374903 
L 155.061927 870.374903 
L 155.783401 866.039783 
L 156.504875 857.369541 
L 157.226349 874.710024 
L 157.947823 861.704662 
L 158.669297 870.374903 
L 159.390771 874.710024 
L 160.112245 874.710024 
L 160.833719 870.374903 
L 162.276666 870.374903 
L 162.99814 861.704662 
L 163.719614 857.369541 
L 164.441088 861.704662 
L 165.162562 870.374903 
L 165.884036 874.710024 
L 168.048458 861.704662 
L 168.769932 870.374903 
L 169.491406 866.039783 
L 170.21288 870.374903 
L 170.934354 870.374903 
L 171.655828 866.039783 
L 172.377302 870.374903 
L 173.098776 866.039783 
L 173.82025 870.374903 
L 174.541724 861.704662 
L 175.263198 848.6993 
L 175.984672 870.374903 
L 177.42762 861.704662 
L 178.149094 861.704662 
L 178.870568 866.039783 
L 179.592042 866.039783 
L 180.313516 848.6993 
L 181.03499 866.039783 
L 181.756464 866.039783 
L 182.477938 874.710024 
L 183.199412 870.374903 
L 186.085308 870.374903 
L 186.806782 866.039783 
L 187.528256 870.374903 
L 188.24973 866.039783 
L 188.971204 870.374903 
L 189.692678 853.034421 
L 190.414152 866.039783 
L 191.135626 870.374903 
L 191.8571 870.374903 
L 193.300048 861.704662 
L 194.021522 870.374903 
L 194.742996 861.704662 
L 196.185943 861.704662 
L 196.907417 866.039783 
L 199.071839 866.039783 
L 199.793313 857.369541 
L 200.514787 857.369541 
L 201.236261 870.374903 
L 201.957735 866.039783 
L 202.679209 857.369541 
L 203.400683 861.704662 
L 204.122157 857.369541 
L 204.843631 866.039783 
L 205.565105 853.034421 
L 206.286579 861.704662 
L 207.008053 844.364179 
L 207.729527 866.039783 
L 209.172475 857.369541 
L 209.893949 866.039783 
L 210.615423 861.704662 
L 211.336897 861.704662 
L 212.058371 866.039783 
L 212.779845 861.704662 
L 214.222793 861.704662 
L 215.665741 870.374903 
L 217.108689 861.704662 
L 218.551637 870.374903 
L 219.994585 861.704662 
L 220.716059 861.704662 
L 221.437533 866.039783 
L 222.880481 866.039783 
L 223.601955 861.704662 
L 224.323429 866.039783 
L 225.044903 861.704662 
L 225.766377 861.704662 
L 226.487851 853.034421 
L 227.209325 866.039783 
L 227.930799 861.704662 
L 228.652273 861.704662 
L 229.373747 857.369541 
L 230.095221 866.039783 
L 230.816694 870.374903 
L 232.259642 861.704662 
L 232.981116 861.704662 
L 233.70259 870.374903 
L 234.424064 866.039783 
L 235.145538 866.039783 
L 235.867012 861.704662 
L 236.588486 866.039783 
L 237.30996 853.034421 
L 238.031434 844.364179 
L 238.752908 866.039783 
L 239.474382 870.374903 
L 240.195856 866.039783 
L 242.360278 866.039783 
L 243.081752 861.704662 
L 244.5247 861.704662 
L 245.246174 866.039783 
L 245.967648 866.039783 
L 246.689122 861.704662 
L 247.410596 870.374903 
L 248.13207 861.704662 
L 248.853544 866.039783 
L 250.296492 857.369541 
L 251.73944 857.369541 
L 252.460914 861.704662 
L 253.903862 853.034421 
L 254.625336 857.369541 
L 255.34681 857.369541 
L 256.068284 848.6993 
L 256.789758 866.039783 
L 257.511232 861.704662 
L 258.232706 866.039783 
L 258.95418 853.034421 
L 259.675654 861.704662 
L 260.397128 861.704662 
L 261.840076 853.034421 
L 262.56155 857.369541 
L 263.283024 866.039783 
L 264.004498 857.369541 
L 264.725971 866.039783 
L 265.447445 844.364179 
L 266.890393 861.704662 
L 267.611867 866.039783 
L 268.333341 857.369541 
L 269.054815 857.369541 
L 269.776289 861.704662 
L 270.497763 848.6993 
L 271.219237 861.704662 
L 271.940711 857.369541 
L 272.662185 857.369541 
L 273.383659 861.704662 
L 274.105133 853.034421 
L 274.826607 848.6993 
L 275.548081 857.369541 
L 276.269555 861.704662 
L 277.712503 853.034421 
L 278.433977 861.704662 
L 279.155451 861.704662 
L 279.876925 840.029059 
L 280.598399 853.034421 
L 281.319873 861.704662 
L 282.041347 857.369541 
L 282.762821 857.369541 
L 283.484295 853.034421 
L 284.205769 866.039783 
L 284.927243 857.369541 
L 287.091665 857.369541 
L 287.813139 861.704662 
L 288.534613 848.6993 
L 289.256087 861.704662 
L 289.977561 857.369541 
L 290.699035 848.6993 
L 291.420509 861.704662 
L 292.141983 857.369541 
L 292.863457 861.704662 
L 293.584931 848.6993 
L 295.027879 848.6993 
L 295.749353 861.704662 
L 296.470827 861.704662 
L 297.192301 857.369541 
L 297.913775 857.369541 
L 298.635249 866.039783 
L 299.356722 857.369541 
L 300.078196 853.034421 
L 301.521144 861.704662 
L 302.242618 857.369541 
L 302.964092 861.704662 
L 303.685566 857.369541 
L 304.40704 835.693938 
L 305.128514 861.704662 
L 305.849988 853.034421 
L 306.571462 861.704662 
L 308.735884 861.704662 
L 309.457358 853.034421 
L 310.178832 861.704662 
L 310.900306 857.369541 
L 311.62178 861.704662 
L 312.343254 853.034421 
L 313.064728 857.369541 
L 313.786202 857.369541 
L 314.507676 848.6993 
L 315.22915 861.704662 
L 315.950624 861.704662 
L 316.672098 853.034421 
L 318.115046 853.034421 
L 318.83652 857.369541 
L 320.279468 857.369541 
L 321.000942 866.039783 
L 321.722416 861.704662 
L 322.44389 853.034421 
L 323.165364 861.704662 
L 323.886838 848.6993 
L 324.608312 857.369541 
L 325.329786 853.034421 
L 326.772734 861.704662 
L 327.494208 848.6993 
L 328.937156 857.369541 
L 329.65863 857.369541 
L 330.380104 861.704662 
L 331.101578 848.6993 
L 331.823052 857.369541 
L 332.544526 848.6993 
L 333.266 857.369541 
L 333.987473 853.034421 
L 334.708947 853.034421 
L 335.430421 857.369541 
L 336.151895 853.034421 
L 336.873369 844.364179 
L 337.594843 853.034421 
L 338.316317 857.369541 
L 339.759265 848.6993 
L 341.202213 848.6993 
L 341.923687 857.369541 
L 342.645161 848.6993 
L 343.366635 861.704662 
L 344.088109 861.704662 
L 344.809583 853.034421 
L 345.531057 857.369541 
L 346.252531 853.034421 
L 346.974005 857.369541 
L 347.695479 848.6993 
L 348.416953 844.364179 
L 349.138427 853.034421 
L 349.859901 844.364179 
L 350.581375 853.034421 
L 350.581375 853.034421 
" style="fill:none;stroke:#1f77b4;stroke-linecap:square;stroke-width:1.5;"/>
   </g>
   <g id="patch_15">
    <path d="M 31.689876 991.758281 
L 31.689876 830.058281 
" style="fill:none;stroke:#000000;stroke-linecap:square;stroke-linejoin:miter;stroke-width:0.8;"/>
   </g>
   <g id="patch_16">
    <path d="M 31.689876 991.758281 
L 366.489876 991.758281 
" style="fill:none;stroke:#000000;stroke-linecap:square;stroke-linejoin:miter;stroke-width:0.8;"/>
   </g>
   <g id="text_61">
    <!-- height -->
    <defs>
     <path d="M 54.890625 33.015625 
L 54.890625 0 
L 45.90625 0 
L 45.90625 32.71875 
Q 45.90625 40.484375 42.875 44.328125 
Q 39.84375 48.1875 33.796875 48.1875 
Q 26.515625 48.1875 22.3125 43.546875 
Q 18.109375 38.921875 18.109375 30.90625 
L 18.109375 0 
L 9.078125 0 
L 9.078125 75.984375 
L 18.109375 75.984375 
L 18.109375 46.1875 
Q 21.34375 51.125 25.703125 53.5625 
Q 30.078125 56 35.796875 56 
Q 45.21875 56 50.046875 50.171875 
Q 54.890625 44.34375 54.890625 33.015625 
z
" id="DejaVuSans-68"/>
    </defs>
    <g transform="translate(181.558626 824.058281)scale(0.11 -0.11)">
     <use xlink:href="#DejaVuSans-68"/>
     <use x="63.378906" xlink:href="#DejaVuSans-65"/>
     <use x="124.902344" xlink:href="#DejaVuSans-69"/>
     <use x="152.685547" xlink:href="#DejaVuSans-67"/>
     <use x="216.162109" xlink:href="#DejaVuSans-68"/>
     <use x="279.541016" xlink:href="#DejaVuSans-74"/>
    </g>
   </g>
  </g>
 </g>
 <defs>
  <clipPath id="p7fd86439ba">
   <rect height="161.7" width="334.8" x="31.689876" y="21.558281"/>
  </clipPath>
  <clipPath id="p33644b808b">
   <rect height="161.7" width="334.8" x="31.689876" y="223.683281"/>
  </clipPath>
  <clipPath id="pc1a64c747b">
   <rect height="161.7" width="334.8" x="31.689876" y="425.808281"/>
  </clipPath>
  <clipPath id="p7886a9ec04">
   <rect height="161.7" width="334.8" x="31.689876" y="627.933281"/>
  </clipPath>
  <clipPath id="pbce0b4ecd2">
   <rect height="161.7" width="334.8" x="31.689876" y="830.058281"/>
  </clipPath>
 </defs>
</svg>
