<?xml version="1.0" encoding="utf-8" standalone="no"?>
<!DOCTYPE svg PUBLIC "-//W3C//DTD SVG 1.1//EN"
  "http://www.w3.org/Graphics/SVG/1.1/DTD/svg11.dtd">
<!-- Created with matplotlib (http://matplotlib.org/) -->
<svg height="504pt" version="1.1" viewBox="0 0 1440 504" width="1440pt" xmlns="http://www.w3.org/2000/svg" xmlns:xlink="http://www.w3.org/1999/xlink">
 <defs>
  <style type="text/css">
*{stroke-linecap:butt;stroke-linejoin:round;}
  </style>
 </defs>
 <g id="figure_1">
  <g id="patch_1">
   <path d="M 0 504 
L 1440 504 
L 1440 0 
L 0 0 
z
" style="fill:#ffffff;"/>
  </g>
  <g id="axes_1">
   <g id="patch_2">
    <path clip-path="url(#pc5967a89a2)" d="M 1374.545455 347.454545 
Q 1374.545455 381.489066 1374.545455 413.287519 
" style="fill:none;stroke:#000000;stroke-linecap:round;stroke-width:2;"/>
    <path clip-path="url(#pc5967a89a2)" d="M 1376.545455 409.287519 
L 1374.545455 413.287519 
L 1372.545455 409.287519 
L 1376.545455 409.287519 
z
" style="stroke:#000000;stroke-linecap:round;stroke-width:2;"/>
   </g>
   <g id="patch_3">
    <path clip-path="url(#pc5967a89a2)" d="M 1374.545455 347.454545 
Q 1242.103604 303.997063 1111.786371 261.236721 
" style="fill:none;stroke:#000000;stroke-linecap:round;stroke-width:2;"/>
    <path clip-path="url(#pc5967a89a2)" d="M 1114.96346 264.384118 
L 1111.786371 261.236721 
L 1116.210542 260.583488 
L 1114.96346 264.384118 
z
" style="stroke:#000000;stroke-linecap:round;stroke-width:2;"/>
   </g>
   <g id="patch_4">
    <path clip-path="url(#pc5967a89a2)" d="M 501.818182 347.454545 
Q 440.539995 307.240735 381.131267 268.253758 
" style="fill:none;stroke:#000000;stroke-linecap:round;stroke-width:2;"/>
    <path clip-path="url(#pc5967a89a2)" d="M 383.378146 272.12048 
L 381.131267 268.253758 
L 385.572772 268.776288 
L 383.378146 272.12048 
z
" style="stroke:#000000;stroke-linecap:round;stroke-width:2;"/>
   </g>
   <g id="patch_5">
    <path clip-path="url(#pc5967a89a2)" d="M 501.818182 347.454545 
Q 501.818182 381.489066 501.818182 413.287519 
" style="fill:none;stroke:#000000;stroke-linecap:round;stroke-width:2;"/>
    <path clip-path="url(#pc5967a89a2)" d="M 503.818182 409.287519 
L 501.818182 413.287519 
L 499.818182 409.287519 
L 503.818182 409.287519 
z
" style="stroke:#000000;stroke-linecap:round;stroke-width:2;"/>
   </g>
   <g id="patch_6">
    <path clip-path="url(#pc5967a89a2)" d="M 1229.090909 347.454545 
Q 1229.090909 381.489066 1229.090909 413.287519 
" style="fill:none;stroke:#000000;stroke-linecap:round;stroke-width:2;"/>
    <path clip-path="url(#pc5967a89a2)" d="M 1231.090909 409.287519 
L 1229.090909 413.287519 
L 1227.090909 409.287519 
L 1231.090909 409.287519 
z
" style="stroke:#000000;stroke-linecap:round;stroke-width:2;"/>
   </g>
   <g id="patch_7">
    <path clip-path="url(#pc5967a89a2)" d="M 1229.090909 347.454545 
Q 1167.812722 307.240735 1108.403995 268.253758 
" style="fill:none;stroke:#000000;stroke-linecap:round;stroke-width:2;"/>
    <path clip-path="url(#pc5967a89a2)" d="M 1110.650874 272.12048 
L 1108.403995 268.253758 
L 1112.845499 268.776288 
L 1110.650874 272.12048 
z
" style="stroke:#000000;stroke-linecap:round;stroke-width:2;"/>
   </g>
   <g id="patch_8">
    <path clip-path="url(#pc5967a89a2)" d="M 356.363636 347.454545 
Q 223.921786 390.912028 93.604553 433.67237 
" style="fill:none;stroke:#000000;stroke-linecap:round;stroke-width:2;"/>
    <path clip-path="url(#pc5967a89a2)" d="M 98.028723 434.325603 
L 93.604553 433.67237 
L 96.781642 430.524973 
L 98.028723 434.325603 
z
" style="stroke:#000000;stroke-linecap:round;stroke-width:2;"/>
   </g>
   <g id="patch_9">
    <path clip-path="url(#pc5967a89a2)" d="M 356.363636 347.454545 
Q 356.363636 381.489066 356.363636 413.287519 
" style="fill:none;stroke:#000000;stroke-linecap:round;stroke-width:2;"/>
    <path clip-path="url(#pc5967a89a2)" d="M 358.363636 409.287519 
L 356.363636 413.287519 
L 354.363636 409.287519 
L 358.363636 409.287519 
z
" style="stroke:#000000;stroke-linecap:round;stroke-width:2;"/>
   </g>
   <g id="patch_10">
    <path clip-path="url(#pc5967a89a2)" d="M 938.181818 252 
Q 938.181818 286.034521 938.181818 317.832974 
" style="fill:none;stroke:#000000;stroke-linecap:round;stroke-width:2;"/>
    <path clip-path="url(#pc5967a89a2)" d="M 940.181818 313.832974 
L 938.181818 317.832974 
L 936.181818 313.832974 
L 940.181818 313.832974 
z
" style="stroke:#000000;stroke-linecap:round;stroke-width:2;"/>
   </g>
   <g id="patch_11">
    <path clip-path="url(#pc5967a89a2)" d="M 938.181818 252 
Q 876.903631 292.21381 817.494904 331.200788 
" style="fill:none;stroke:#000000;stroke-linecap:round;stroke-width:2;"/>
    <path clip-path="url(#pc5967a89a2)" d="M 821.936408 330.678258 
L 817.494904 331.200788 
L 819.741783 327.334066 
L 821.936408 330.678258 
z
" style="stroke:#000000;stroke-linecap:round;stroke-width:2;"/>
   </g>
   <g id="patch_12">
    <path clip-path="url(#pc5967a89a2)" d="M 792.727273 156.545455 
Q 728.299672 241.106681 665.227224 323.889268 
" style="fill:none;stroke:#000000;stroke-linecap:round;stroke-width:2;"/>
    <path clip-path="url(#pc5967a89a2)" d="M 669.24226 321.919628 
L 665.227224 323.889268 
L 666.060534 319.495455 
L 669.24226 321.919628 
z
" style="stroke:#000000;stroke-linecap:round;stroke-width:2;"/>
   </g>
   <g id="patch_13">
    <path clip-path="url(#pc5967a89a2)" d="M 792.727273 156.545455 
Q 792.727273 190.579975 792.727273 222.378428 
" style="fill:none;stroke:#000000;stroke-linecap:round;stroke-width:2;"/>
    <path clip-path="url(#pc5967a89a2)" d="M 794.727273 218.378428 
L 792.727273 222.378428 
L 790.727273 218.378428 
L 794.727273 218.378428 
z
" style="stroke:#000000;stroke-linecap:round;stroke-width:2;"/>
   </g>
   <g id="patch_14">
    <path clip-path="url(#pc5967a89a2)" d="M 647.272727 156.545455 
Q 580.745517 287.5209 515.230944 416.502715 
" style="fill:none;stroke:#000000;stroke-linecap:round;stroke-width:2;"/>
    <path clip-path="url(#pc5967a89a2)" d="M 518.825564 413.842131 
L 515.230944 416.502715 
L 515.259248 412.030669 
L 518.825564 413.842131 
z
" style="stroke:#000000;stroke-linecap:round;stroke-width:2;"/>
   </g>
   <g id="patch_15">
    <path clip-path="url(#pc5967a89a2)" d="M 647.272727 156.545455 
Q 647.272727 190.579975 647.272727 222.378428 
" style="fill:none;stroke:#000000;stroke-linecap:round;stroke-width:2;"/>
    <path clip-path="url(#pc5967a89a2)" d="M 649.272727 218.378428 
L 647.272727 222.378428 
L 645.272727 218.378428 
L 649.272727 218.378428 
z
" style="stroke:#000000;stroke-linecap:round;stroke-width:2;"/>
   </g>
   <g id="patch_16">
    <path clip-path="url(#pc5967a89a2)" d="M 1374.545455 252 
Q 1310.117853 336.561227 1247.045406 419.343814 
" style="fill:none;stroke:#000000;stroke-linecap:round;stroke-width:2;"/>
    <path clip-path="url(#pc5967a89a2)" d="M 1251.060442 417.374173 
L 1247.045406 419.343814 
L 1247.878715 414.95 
L 1251.060442 417.374173 
z
" style="stroke:#000000;stroke-linecap:round;stroke-width:2;"/>
   </g>
   <g id="patch_17">
    <path clip-path="url(#pc5967a89a2)" d="M 1374.545455 252 
Q 1374.545455 286.034521 1374.545455 317.832974 
" style="fill:none;stroke:#000000;stroke-linecap:round;stroke-width:2;"/>
    <path clip-path="url(#pc5967a89a2)" d="M 1376.545455 313.832974 
L 1374.545455 317.832974 
L 1372.545455 313.832974 
L 1376.545455 313.832974 
z
" style="stroke:#000000;stroke-linecap:round;stroke-width:2;"/>
   </g>
   <g id="patch_18">
    <path clip-path="url(#pc5967a89a2)" d="M 938.181818 347.454545 
Q 938.181818 381.489066 938.181818 413.287519 
" style="fill:none;stroke:#000000;stroke-linecap:round;stroke-width:2;"/>
    <path clip-path="url(#pc5967a89a2)" d="M 940.181818 409.287519 
L 938.181818 413.287519 
L 936.181818 409.287519 
L 940.181818 409.287519 
z
" style="stroke:#000000;stroke-linecap:round;stroke-width:2;"/>
   </g>
   <g id="patch_19">
    <path clip-path="url(#pc5967a89a2)" d="M 938.181818 347.454545 
Q 660.787021 392.964629 385.598792 438.112698 
" style="fill:none;stroke:#000000;stroke-linecap:round;stroke-width:2;"/>
    <path clip-path="url(#pc5967a89a2)" d="M 389.869818 439.438721 
L 385.598792 438.112698 
L 389.222225 435.491491 
L 389.869818 439.438721 
z
" style="stroke:#000000;stroke-linecap:round;stroke-width:2;"/>
   </g>
   <g id="patch_20">
    <path clip-path="url(#pc5967a89a2)" d="M 792.727273 61.090909 
Q 792.727273 95.12543 792.727273 126.923883 
" style="fill:none;stroke:#000000;stroke-linecap:round;stroke-width:2;"/>
    <path clip-path="url(#pc5967a89a2)" d="M 794.727273 122.923883 
L 792.727273 126.923883 
L 790.727273 122.923883 
L 794.727273 122.923883 
z
" style="stroke:#000000;stroke-linecap:round;stroke-width:2;"/>
   </g>
   <g id="patch_21">
    <path clip-path="url(#pc5967a89a2)" d="M 792.727273 61.090909 
Q 655.572399 241.106681 519.772679 419.343814 
" style="fill:none;stroke:#000000;stroke-linecap:round;stroke-width:2;"/>
    <path clip-path="url(#pc5967a89a2)" d="M 523.787715 417.374173 
L 519.772679 419.343814 
L 520.605988 414.95 
L 523.787715 417.374173 
z
" style="stroke:#000000;stroke-linecap:round;stroke-width:2;"/>
   </g>
   <g id="patch_22">
    <path clip-path="url(#pc5967a89a2)" d="M 647.272727 252 
Q 647.272727 286.034521 647.272727 317.832974 
" style="fill:none;stroke:#000000;stroke-linecap:round;stroke-width:2;"/>
    <path clip-path="url(#pc5967a89a2)" d="M 649.272727 313.832974 
L 647.272727 317.832974 
L 645.272727 313.832974 
L 649.272727 313.832974 
z
" style="stroke:#000000;stroke-linecap:round;stroke-width:2;"/>
   </g>
   <g id="patch_23">
    <path clip-path="url(#pc5967a89a2)" d="M 647.272727 252 
Q 514.830877 295.457482 384.513644 338.217824 
" style="fill:none;stroke:#000000;stroke-linecap:round;stroke-width:2;"/>
    <path clip-path="url(#pc5967a89a2)" d="M 388.937814 338.871058 
L 384.513644 338.217824 
L 387.690733 335.070428 
L 388.937814 338.871058 
z
" style="stroke:#000000;stroke-linecap:round;stroke-width:2;"/>
   </g>
   <g id="patch_24">
    <path clip-path="url(#pc5967a89a2)" d="M 1083.636364 347.454545 
Q 806.241566 392.964629 531.053337 438.112698 
" style="fill:none;stroke:#000000;stroke-linecap:round;stroke-width:2;"/>
    <path clip-path="url(#pc5967a89a2)" d="M 535.324363 439.438721 
L 531.053337 438.112698 
L 534.676771 435.491491 
L 535.324363 439.438721 
z
" style="stroke:#000000;stroke-linecap:round;stroke-width:2;"/>
   </g>
   <g id="patch_25">
    <path clip-path="url(#pc5967a89a2)" d="M 1083.636364 347.454545 
Q 1083.636364 381.489066 1083.636364 413.287519 
" style="fill:none;stroke:#000000;stroke-linecap:round;stroke-width:2;"/>
    <path clip-path="url(#pc5967a89a2)" d="M 1085.636364 409.287519 
L 1083.636364 413.287519 
L 1081.636364 409.287519 
L 1085.636364 409.287519 
z
" style="stroke:#000000;stroke-linecap:round;stroke-width:2;"/>
   </g>
   <g id="patch_26">
    <path clip-path="url(#pc5967a89a2)" d="M 938.181818 61.090909 
Q 938.181818 95.12543 938.181818 126.923883 
" style="fill:none;stroke:#000000;stroke-linecap:round;stroke-width:2;"/>
    <path clip-path="url(#pc5967a89a2)" d="M 940.181818 122.923883 
L 938.181818 126.923883 
L 936.181818 122.923883 
L 940.181818 122.923883 
z
" style="stroke:#000000;stroke-linecap:round;stroke-width:2;"/>
   </g>
   <g id="patch_27">
    <path clip-path="url(#pc5967a89a2)" d="M 938.181818 61.090909 
Q 730.305509 242.98268 524.112012 423.40199 
" style="fill:none;stroke:#000000;stroke-linecap:round;stroke-width:2;"/>
    <path clip-path="url(#pc5967a89a2)" d="M 528.439328 422.273125 
L 524.112012 423.40199 
L 525.805309 419.262818 
L 528.439328 422.273125 
z
" style="stroke:#000000;stroke-linecap:round;stroke-width:2;"/>
   </g>
   <g id="patch_28">
    <path clip-path="url(#pc5967a89a2)" d="M 647.272727 347.454545 
Q 442.46926 392.255304 239.850209 436.578221 
" style="fill:none;stroke:#000000;stroke-linecap:round;stroke-width:2;"/>
    <path clip-path="url(#pc5967a89a2)" d="M 244.185202 437.677234 
L 239.850209 436.578221 
L 243.330415 433.769634 
L 244.185202 437.677234 
z
" style="stroke:#000000;stroke-linecap:round;stroke-width:2;"/>
   </g>
   <g id="patch_29">
    <path clip-path="url(#pc5967a89a2)" d="M 647.272727 347.454545 
Q 647.272727 381.489066 647.272727 413.287519 
" style="fill:none;stroke:#000000;stroke-linecap:round;stroke-width:2;"/>
    <path clip-path="url(#pc5967a89a2)" d="M 649.272727 409.287519 
L 647.272727 413.287519 
L 645.272727 409.287519 
L 649.272727 409.287519 
z
" style="stroke:#000000;stroke-linecap:round;stroke-width:2;"/>
   </g>
   <g id="patch_30">
    <path clip-path="url(#pc5967a89a2)" d="M 210.909091 347.454545 
Q 149.630904 387.668356 90.222177 426.655333 
" style="fill:none;stroke:#000000;stroke-linecap:round;stroke-width:2;"/>
    <path clip-path="url(#pc5967a89a2)" d="M 94.663681 426.132803 
L 90.222177 426.655333 
L 92.469055 422.788611 
L 94.663681 426.132803 
z
" style="stroke:#000000;stroke-linecap:round;stroke-width:2;"/>
   </g>
   <g id="patch_31">
    <path clip-path="url(#pc5967a89a2)" d="M 210.909091 347.454545 
Q 210.909091 381.489066 210.909091 413.287519 
" style="fill:none;stroke:#000000;stroke-linecap:round;stroke-width:2;"/>
    <path clip-path="url(#pc5967a89a2)" d="M 212.909091 409.287519 
L 210.909091 413.287519 
L 208.909091 409.287519 
L 212.909091 409.287519 
z
" style="stroke:#000000;stroke-linecap:round;stroke-width:2;"/>
   </g>
   <g id="patch_32">
    <path clip-path="url(#pc5967a89a2)" d="M 792.727273 347.454545 
Q 792.727273 381.489066 792.727273 413.287519 
" style="fill:none;stroke:#000000;stroke-linecap:round;stroke-width:2;"/>
    <path clip-path="url(#pc5967a89a2)" d="M 794.727273 409.287519 
L 792.727273 413.287519 
L 790.727273 409.287519 
L 794.727273 409.287519 
z
" style="stroke:#000000;stroke-linecap:round;stroke-width:2;"/>
   </g>
   <g id="patch_33">
    <path clip-path="url(#pc5967a89a2)" d="M 792.727273 347.454545 
Q 442.66707 393.399947 94.82392 439.05436 
" style="fill:none;stroke:#000000;stroke-linecap:round;stroke-width:2;"/>
    <path clip-path="url(#pc5967a89a2)" d="M 99.050174 440.516818 
L 94.82392 439.05436 
L 98.529638 436.550832 
L 99.050174 440.516818 
z
" style="stroke:#000000;stroke-linecap:round;stroke-width:2;"/>
   </g>
   <g id="patch_34">
    <path clip-path="url(#pc5967a89a2)" d="M 1083.636364 252 
Q 1022.358176 211.78619 962.949449 172.799212 
" style="fill:none;stroke:#000000;stroke-linecap:round;stroke-width:2;"/>
    <path clip-path="url(#pc5967a89a2)" d="M 965.196328 176.665934 
L 962.949449 172.799212 
L 967.390954 173.321742 
L 965.196328 176.665934 
z
" style="stroke:#000000;stroke-linecap:round;stroke-width:2;"/>
   </g>
   <g id="patch_35">
    <path clip-path="url(#pc5967a89a2)" d="M 1083.636364 252 
Q 1083.636364 286.034521 1083.636364 317.832974 
" style="fill:none;stroke:#000000;stroke-linecap:round;stroke-width:2;"/>
    <path clip-path="url(#pc5967a89a2)" d="M 1085.636364 313.832974 
L 1083.636364 317.832974 
L 1081.636364 313.832974 
L 1085.636364 313.832974 
z
" style="stroke:#000000;stroke-linecap:round;stroke-width:2;"/>
   </g>
   <g id="patch_36">
    <path clip-path="url(#pc5967a89a2)" d="M 938.181818 156.545455 
Q 804.176358 244.486538 672.040358 331.200788 
" style="fill:none;stroke:#000000;stroke-linecap:round;stroke-width:2;"/>
    <path clip-path="url(#pc5967a89a2)" d="M 676.481863 330.678258 
L 672.040358 331.200788 
L 674.287237 327.334066 
L 676.481863 330.678258 
z
" style="stroke:#000000;stroke-linecap:round;stroke-width:2;"/>
   </g>
   <g id="patch_37">
    <path clip-path="url(#pc5967a89a2)" d="M 938.181818 156.545455 
Q 938.181818 190.579975 938.181818 222.378428 
" style="fill:none;stroke:#000000;stroke-linecap:round;stroke-width:2;"/>
    <path clip-path="url(#pc5967a89a2)" d="M 940.181818 218.378428 
L 938.181818 222.378428 
L 936.181818 218.378428 
L 940.181818 218.378428 
z
" style="stroke:#000000;stroke-linecap:round;stroke-width:2;"/>
   </g>
   <g id="patch_38">
    <path clip-path="url(#pc5967a89a2)" d="M 356.363636 252 
Q 291.936035 336.561227 228.863588 419.343814 
" style="fill:none;stroke:#000000;stroke-linecap:round;stroke-width:2;"/>
    <path clip-path="url(#pc5967a89a2)" d="M 232.878624 417.374173 
L 228.863588 419.343814 
L 229.696897 414.95 
L 232.878624 417.374173 
z
" style="stroke:#000000;stroke-linecap:round;stroke-width:2;"/>
   </g>
   <g id="patch_39">
    <path clip-path="url(#pc5967a89a2)" d="M 356.363636 252 
Q 356.363636 286.034521 356.363636 317.832974 
" style="fill:none;stroke:#000000;stroke-linecap:round;stroke-width:2;"/>
    <path clip-path="url(#pc5967a89a2)" d="M 358.363636 313.832974 
L 356.363636 317.832974 
L 354.363636 313.832974 
L 358.363636 313.832974 
z
" style="stroke:#000000;stroke-linecap:round;stroke-width:2;"/>
   </g>
   <g id="patch_40">
    <path clip-path="url(#pc5967a89a2)" d="M 792.727273 252 
Q 587.923806 296.800758 385.304754 341.123676 
" style="fill:none;stroke:#000000;stroke-linecap:round;stroke-width:2;"/>
    <path clip-path="url(#pc5967a89a2)" d="M 389.639748 342.222688 
L 385.304754 341.123676 
L 388.78496 338.315088 
L 389.639748 342.222688 
z
" style="stroke:#000000;stroke-linecap:round;stroke-width:2;"/>
   </g>
   <g id="patch_41">
    <path clip-path="url(#pc5967a89a2)" d="M 792.727273 252 
Q 792.727273 286.034521 792.727273 317.832974 
" style="fill:none;stroke:#000000;stroke-linecap:round;stroke-width:2;"/>
    <path clip-path="url(#pc5967a89a2)" d="M 794.727273 313.832974 
L 792.727273 317.832974 
L 790.727273 313.832974 
L 794.727273 313.832974 
z
" style="stroke:#000000;stroke-linecap:round;stroke-width:2;"/>
   </g>
   <g id="PathCollection_1">
    <defs>
     <path d="M 0 27.386128 
C 7.262886 27.386128 14.229281 24.500553 19.364917 19.364917 
C 24.500553 14.229281 27.386128 7.262886 27.386128 0 
C 27.386128 -7.262886 24.500553 -14.229281 19.364917 -19.364917 
C 14.229281 -24.500553 7.262886 -27.386128 0 -27.386128 
C -7.262886 -27.386128 -14.229281 -24.500553 -19.364917 -19.364917 
C -24.500553 -14.229281 -27.386128 -7.262886 -27.386128 0 
C -27.386128 7.262886 -24.500553 14.229281 -19.364917 19.364917 
C -14.229281 24.500553 -7.262886 27.386128 0 27.386128 
z
" id="m94756fce32" style="stroke:#000000;stroke-width:2;"/>
    </defs>
    <g clip-path="url(#pc5967a89a2)">
     <use style="fill:#ffffff;stroke:#000000;stroke-width:2;" x="1374.545455" xlink:href="#m94756fce32" y="347.454545"/>
     <use style="fill:#ffffff;stroke:#000000;stroke-width:2;" x="501.818182" xlink:href="#m94756fce32" y="347.454545"/>
     <use style="fill:#ffffff;stroke:#000000;stroke-width:2;" x="1229.090909" xlink:href="#m94756fce32" y="347.454545"/>
     <use style="fill:#ffffff;stroke:#000000;stroke-width:2;" x="356.363636" xlink:href="#m94756fce32" y="347.454545"/>
     <use style="fill:#ffffff;stroke:#000000;stroke-width:2;" x="938.181818" xlink:href="#m94756fce32" y="252"/>
     <use style="fill:#ffffff;stroke:#000000;stroke-width:2;" x="792.727273" xlink:href="#m94756fce32" y="156.545455"/>
     <use style="fill:#ffffff;stroke:#000000;stroke-width:2;" x="1083.636364" xlink:href="#m94756fce32" y="442.909091"/>
     <use style="fill:#ffffff;stroke:#000000;stroke-width:2;" x="647.272727" xlink:href="#m94756fce32" y="156.545455"/>
     <use style="fill:#ffffff;stroke:#000000;stroke-width:2;" x="1374.545455" xlink:href="#m94756fce32" y="252"/>
     <use style="fill:#ffffff;stroke:#000000;stroke-width:2;" x="1229.090909" xlink:href="#m94756fce32" y="442.909091"/>
     <use style="fill:#ffffff;stroke:#000000;stroke-width:2;" x="938.181818" xlink:href="#m94756fce32" y="347.454545"/>
     <use style="fill:#ffffff;stroke:#000000;stroke-width:2;" x="792.727273" xlink:href="#m94756fce32" y="61.090909"/>
     <use style="fill:#ffffff;stroke:#000000;stroke-width:2;" x="356.363636" xlink:href="#m94756fce32" y="442.909091"/>
     <use style="fill:#ffffff;stroke:#000000;stroke-width:2;" x="647.272727" xlink:href="#m94756fce32" y="252"/>
     <use style="fill:#ffffff;stroke:#000000;stroke-width:2;" x="210.909091" xlink:href="#m94756fce32" y="442.909091"/>
     <use style="fill:#ffffff;stroke:#000000;stroke-width:2;" x="938.181818" xlink:href="#m94756fce32" y="442.909091"/>
     <use style="fill:#ffffff;stroke:#000000;stroke-width:2;" x="792.727273" xlink:href="#m94756fce32" y="442.909091"/>
     <use style="fill:#ffffff;stroke:#000000;stroke-width:2;" x="65.454545" xlink:href="#m94756fce32" y="442.909091"/>
     <use style="fill:#ffffff;stroke:#000000;stroke-width:2;" x="1083.636364" xlink:href="#m94756fce32" y="347.454545"/>
     <use style="fill:#ffffff;stroke:#000000;stroke-width:2;" x="938.181818" xlink:href="#m94756fce32" y="61.090909"/>
     <use style="fill:#ffffff;stroke:#000000;stroke-width:2;" x="647.272727" xlink:href="#m94756fce32" y="347.454545"/>
     <use style="fill:#ffffff;stroke:#000000;stroke-width:2;" x="210.909091" xlink:href="#m94756fce32" y="347.454545"/>
     <use style="fill:#ffffff;stroke:#000000;stroke-width:2;" x="792.727273" xlink:href="#m94756fce32" y="347.454545"/>
     <use style="fill:#ffffff;stroke:#000000;stroke-width:2;" x="1083.636364" xlink:href="#m94756fce32" y="252"/>
     <use style="fill:#ffffff;stroke:#000000;stroke-width:2;" x="1374.545455" xlink:href="#m94756fce32" y="442.909091"/>
     <use style="fill:#ffffff;stroke:#000000;stroke-width:2;" x="938.181818" xlink:href="#m94756fce32" y="156.545455"/>
     <use style="fill:#ffffff;stroke:#000000;stroke-width:2;" x="501.818182" xlink:href="#m94756fce32" y="442.909091"/>
     <use style="fill:#ffffff;stroke:#000000;stroke-width:2;" x="356.363636" xlink:href="#m94756fce32" y="252"/>
     <use style="fill:#ffffff;stroke:#000000;stroke-width:2;" x="647.272727" xlink:href="#m94756fce32" y="442.909091"/>
     <use style="fill:#ffffff;stroke:#000000;stroke-width:2;" x="792.727273" xlink:href="#m94756fce32" y="252"/>
    </g>
   </g>
   <g id="text_1">
    <g clip-path="url(#pc5967a89a2)">
     <!-- &lt;9 -->
     <defs>
      <path d="M 73.1875 49.21875 
L 22.796875 31.296875 
L 73.1875 13.484375 
L 73.1875 4.59375 
L 10.59375 27.296875 
L 10.59375 35.40625 
L 73.1875 58.109375 
z
" id="DejaVuSans-3c"/>
      <path d="M 10.984375 1.515625 
L 10.984375 10.5 
Q 14.703125 8.734375 18.5 7.8125 
Q 22.3125 6.890625 25.984375 6.890625 
Q 35.75 6.890625 40.890625 13.453125 
Q 46.046875 20.015625 46.78125 33.40625 
Q 43.953125 29.203125 39.59375 26.953125 
Q 35.25 24.703125 29.984375 24.703125 
Q 19.046875 24.703125 12.671875 31.3125 
Q 6.296875 37.9375 6.296875 49.421875 
Q 6.296875 60.640625 12.9375 67.421875 
Q 19.578125 74.21875 30.609375 74.21875 
Q 43.265625 74.21875 49.921875 64.515625 
Q 56.59375 54.828125 56.59375 36.375 
Q 56.59375 19.140625 48.40625 8.859375 
Q 40.234375 -1.421875 26.421875 -1.421875 
Q 22.703125 -1.421875 18.890625 -0.6875 
Q 15.09375 0.046875 10.984375 1.515625 
z
M 30.609375 32.421875 
Q 37.25 32.421875 41.125 36.953125 
Q 45.015625 41.5 45.015625 49.421875 
Q 45.015625 57.28125 41.125 61.84375 
Q 37.25 66.40625 30.609375 66.40625 
Q 23.96875 66.40625 20.09375 61.84375 
Q 16.21875 57.28125 16.21875 49.421875 
Q 16.21875 41.5 20.09375 36.953125 
Q 23.96875 32.421875 30.609375 32.421875 
z
" id="DejaVuSans-39"/>
     </defs>
     <g transform="translate(1365.700142 344.047108)scale(0.12 -0.12)">
      <use xlink:href="#DejaVuSans-3c"/>
      <use x="83.789062" xlink:href="#DejaVuSans-39"/>
     </g>
    </g>
    <g clip-path="url(#pc5967a89a2)">
     <!-- +7 -->
     <defs>
      <path d="M 46 62.703125 
L 46 35.5 
L 73.1875 35.5 
L 73.1875 27.203125 
L 46 27.203125 
L 46 0 
L 37.796875 0 
L 37.796875 27.203125 
L 10.59375 27.203125 
L 10.59375 35.5 
L 37.796875 35.5 
L 37.796875 62.703125 
z
" id="DejaVuSans-2b"/>
      <path d="M 8.203125 72.90625 
L 55.078125 72.90625 
L 55.078125 68.703125 
L 28.609375 0 
L 18.3125 0 
L 43.21875 64.59375 
L 8.203125 64.59375 
z
" id="DejaVuSans-37"/>
     </defs>
     <g transform="translate(1365.700142 357.484483)scale(0.12 -0.12)">
      <use xlink:href="#DejaVuSans-2b"/>
      <use x="83.789062" xlink:href="#DejaVuSans-37"/>
     </g>
    </g>
   </g>
   <g id="text_2">
    <g clip-path="url(#pc5967a89a2)">
     <!-- &gt;=1 -->
     <defs>
      <path d="M 10.59375 49.21875 
L 10.59375 58.109375 
L 73.1875 35.40625 
L 73.1875 27.296875 
L 10.59375 4.59375 
L 10.59375 13.484375 
L 60.890625 31.296875 
z
" id="DejaVuSans-3e"/>
      <path d="M 10.59375 45.40625 
L 73.1875 45.40625 
L 73.1875 37.203125 
L 10.59375 37.203125 
z
M 10.59375 25.484375 
L 73.1875 25.484375 
L 73.1875 17.1875 
L 10.59375 17.1875 
z
" id="DejaVuSans-3d"/>
      <path d="M 12.40625 8.296875 
L 28.515625 8.296875 
L 28.515625 63.921875 
L 10.984375 60.40625 
L 10.984375 69.390625 
L 28.421875 72.90625 
L 38.28125 72.90625 
L 38.28125 8.296875 
L 54.390625 8.296875 
L 54.390625 0 
L 12.40625 0 
z
" id="DejaVuSans-31"/>
     </defs>
     <g transform="translate(487.945057 344.047108)scale(0.12 -0.12)">
      <use xlink:href="#DejaVuSans-3e"/>
      <use x="83.789062" xlink:href="#DejaVuSans-3d"/>
      <use x="167.578125" xlink:href="#DejaVuSans-31"/>
     </g>
    </g>
    <g clip-path="url(#pc5967a89a2)">
     <!-- +1 -->
     <g transform="translate(492.972869 357.484483)scale(0.12 -0.12)">
      <use xlink:href="#DejaVuSans-2b"/>
      <use x="83.789062" xlink:href="#DejaVuSans-31"/>
     </g>
    </g>
   </g>
   <g id="text_3">
    <g clip-path="url(#pc5967a89a2)">
     <!-- &gt;=1 -->
     <g transform="translate(1215.217784 344.047108)scale(0.12 -0.12)">
      <use xlink:href="#DejaVuSans-3e"/>
      <use x="83.789062" xlink:href="#DejaVuSans-3d"/>
      <use x="167.578125" xlink:href="#DejaVuSans-31"/>
     </g>
    </g>
    <g clip-path="url(#pc5967a89a2)">
     <!-- +1 -->
     <g transform="translate(1220.245597 357.484483)scale(0.12 -0.12)">
      <use xlink:href="#DejaVuSans-2b"/>
      <use x="83.789062" xlink:href="#DejaVuSans-31"/>
     </g>
    </g>
   </g>
   <g id="text_4">
    <g clip-path="url(#pc5967a89a2)">
     <!-- &lt;1 -->
     <g transform="translate(347.518324 344.047108)scale(0.12 -0.12)">
      <use xlink:href="#DejaVuSans-3c"/>
      <use x="83.789062" xlink:href="#DejaVuSans-31"/>
     </g>
    </g>
    <g clip-path="url(#pc5967a89a2)">
     <!-- +0 -->
     <defs>
      <path d="M 31.78125 66.40625 
Q 24.171875 66.40625 20.328125 58.90625 
Q 16.5 51.421875 16.5 36.375 
Q 16.5 21.390625 20.328125 13.890625 
Q 24.171875 6.390625 31.78125 6.390625 
Q 39.453125 6.390625 43.28125 13.890625 
Q 47.125 21.390625 47.125 36.375 
Q 47.125 51.421875 43.28125 58.90625 
Q 39.453125 66.40625 31.78125 66.40625 
z
M 31.78125 74.21875 
Q 44.046875 74.21875 50.515625 64.515625 
Q 56.984375 54.828125 56.984375 36.375 
Q 56.984375 17.96875 50.515625 8.265625 
Q 44.046875 -1.421875 31.78125 -1.421875 
Q 19.53125 -1.421875 13.0625 8.265625 
Q 6.59375 17.96875 6.59375 36.375 
Q 6.59375 54.828125 13.0625 64.515625 
Q 19.53125 74.21875 31.78125 74.21875 
z
" id="DejaVuSans-30"/>
     </defs>
     <g transform="translate(347.518324 357.484483)scale(0.12 -0.12)">
      <use xlink:href="#DejaVuSans-2b"/>
      <use x="83.789062" xlink:href="#DejaVuSans-30"/>
     </g>
    </g>
   </g>
   <g id="text_5">
    <g clip-path="url(#pc5967a89a2)">
     <!-- &lt;3 -->
     <defs>
      <path d="M 40.578125 39.3125 
Q 47.65625 37.796875 51.625 33 
Q 55.609375 28.21875 55.609375 21.1875 
Q 55.609375 10.40625 48.1875 4.484375 
Q 40.765625 -1.421875 27.09375 -1.421875 
Q 22.515625 -1.421875 17.65625 -0.515625 
Q 12.796875 0.390625 7.625 2.203125 
L 7.625 11.71875 
Q 11.71875 9.328125 16.59375 8.109375 
Q 21.484375 6.890625 26.8125 6.890625 
Q 36.078125 6.890625 40.9375 10.546875 
Q 45.796875 14.203125 45.796875 21.1875 
Q 45.796875 27.640625 41.28125 31.265625 
Q 36.765625 34.90625 28.71875 34.90625 
L 20.21875 34.90625 
L 20.21875 43.015625 
L 29.109375 43.015625 
Q 36.375 43.015625 40.234375 45.921875 
Q 44.09375 48.828125 44.09375 54.296875 
Q 44.09375 59.90625 40.109375 62.90625 
Q 36.140625 65.921875 28.71875 65.921875 
Q 24.65625 65.921875 20.015625 65.03125 
Q 15.375 64.15625 9.8125 62.3125 
L 9.8125 71.09375 
Q 15.4375 72.65625 20.34375 73.4375 
Q 25.25 74.21875 29.59375 74.21875 
Q 40.828125 74.21875 47.359375 69.109375 
Q 53.90625 64.015625 53.90625 55.328125 
Q 53.90625 49.265625 50.4375 45.09375 
Q 46.96875 40.921875 40.578125 39.3125 
z
" id="DejaVuSans-33"/>
     </defs>
     <g transform="translate(929.336506 248.592563)scale(0.12 -0.12)">
      <use xlink:href="#DejaVuSans-3c"/>
      <use x="83.789062" xlink:href="#DejaVuSans-33"/>
     </g>
    </g>
    <g clip-path="url(#pc5967a89a2)">
     <!-- +0 -->
     <g transform="translate(929.336506 262.029938)scale(0.12 -0.12)">
      <use xlink:href="#DejaVuSans-2b"/>
      <use x="83.789062" xlink:href="#DejaVuSans-30"/>
     </g>
    </g>
   </g>
   <g id="text_6">
    <g clip-path="url(#pc5967a89a2)">
     <!-- &gt;=4 -->
     <defs>
      <path d="M 37.796875 64.3125 
L 12.890625 25.390625 
L 37.796875 25.390625 
z
M 35.203125 72.90625 
L 47.609375 72.90625 
L 47.609375 25.390625 
L 58.015625 25.390625 
L 58.015625 17.1875 
L 47.609375 17.1875 
L 47.609375 0 
L 37.796875 0 
L 37.796875 17.1875 
L 4.890625 17.1875 
L 4.890625 26.703125 
z
" id="DejaVuSans-34"/>
     </defs>
     <g transform="translate(778.854148 153.138017)scale(0.12 -0.12)">
      <use xlink:href="#DejaVuSans-3e"/>
      <use x="83.789062" xlink:href="#DejaVuSans-3d"/>
      <use x="167.578125" xlink:href="#DejaVuSans-34"/>
     </g>
    </g>
    <g clip-path="url(#pc5967a89a2)">
     <!-- +1 -->
     <g transform="translate(783.88196 166.575392)scale(0.12 -0.12)">
      <use xlink:href="#DejaVuSans-2b"/>
      <use x="83.789062" xlink:href="#DejaVuSans-31"/>
     </g>
    </g>
   </g>
   <g id="text_7">
    <g clip-path="url(#pc5967a89a2)">
     <!-- 1: h -->
     <defs>
      <path d="M 11.71875 12.40625 
L 22.015625 12.40625 
L 22.015625 0 
L 11.71875 0 
z
M 11.71875 51.703125 
L 22.015625 51.703125 
L 22.015625 39.3125 
L 11.71875 39.3125 
z
" id="DejaVuSans-3a"/>
      <path id="DejaVuSans-20"/>
      <path d="M 54.890625 33.015625 
L 54.890625 0 
L 45.90625 0 
L 45.90625 32.71875 
Q 45.90625 40.484375 42.875 44.328125 
Q 39.84375 48.1875 33.796875 48.1875 
Q 26.515625 48.1875 22.3125 43.546875 
Q 18.109375 38.921875 18.109375 30.90625 
L 18.109375 0 
L 9.078125 0 
L 9.078125 75.984375 
L 18.109375 75.984375 
L 18.109375 46.1875 
Q 21.34375 51.125 25.703125 53.5625 
Q 30.078125 56 35.796875 56 
Q 45.21875 56 50.046875 50.171875 
Q 54.890625 44.34375 54.890625 33.015625 
z
" id="DejaVuSans-68"/>
     </defs>
     <g transform="translate(1072.088239 439.501653)scale(0.12 -0.12)">
      <use xlink:href="#DejaVuSans-31"/>
      <use x="63.623047" xlink:href="#DejaVuSans-3a"/>
      <use x="97.314453" xlink:href="#DejaVuSans-20"/>
      <use x="129.101562" xlink:href="#DejaVuSans-68"/>
     </g>
    </g>
    <g clip-path="url(#pc5967a89a2)">
     <!--  -->
     <g transform="translate(1083.636364 452.939028)scale(0.12 -0.12)"/>
    </g>
   </g>
   <g id="text_8">
    <g clip-path="url(#pc5967a89a2)">
     <!-- &lt;1 -->
     <g transform="translate(638.427415 153.138017)scale(0.12 -0.12)">
      <use xlink:href="#DejaVuSans-3c"/>
      <use x="83.789062" xlink:href="#DejaVuSans-31"/>
     </g>
    </g>
    <g clip-path="url(#pc5967a89a2)">
     <!-- +0 -->
     <g transform="translate(638.427415 166.575392)scale(0.12 -0.12)">
      <use xlink:href="#DejaVuSans-2b"/>
      <use x="83.789062" xlink:href="#DejaVuSans-30"/>
     </g>
    </g>
   </g>
   <g id="text_9">
    <g clip-path="url(#pc5967a89a2)">
     <!-- &lt;1 -->
     <g transform="translate(1365.700142 248.592563)scale(0.12 -0.12)">
      <use xlink:href="#DejaVuSans-3c"/>
      <use x="83.789062" xlink:href="#DejaVuSans-31"/>
     </g>
    </g>
    <g clip-path="url(#pc5967a89a2)">
     <!-- +0 -->
     <g transform="translate(1365.700142 262.029938)scale(0.12 -0.12)">
      <use xlink:href="#DejaVuSans-2b"/>
      <use x="83.789062" xlink:href="#DejaVuSans-30"/>
     </g>
    </g>
   </g>
   <g id="text_10">
    <g clip-path="url(#pc5967a89a2)">
     <!-- 0: i -->
     <defs>
      <path d="M 9.421875 54.6875 
L 18.40625 54.6875 
L 18.40625 0 
L 9.421875 0 
z
M 9.421875 75.984375 
L 18.40625 75.984375 
L 18.40625 64.59375 
L 9.421875 64.59375 
z
" id="DejaVuSans-69"/>
     </defs>
     <g transform="translate(1219.678409 439.501653)scale(0.12 -0.12)">
      <use xlink:href="#DejaVuSans-30"/>
      <use x="63.623047" xlink:href="#DejaVuSans-3a"/>
      <use x="97.314453" xlink:href="#DejaVuSans-20"/>
      <use x="129.101562" xlink:href="#DejaVuSans-69"/>
     </g>
    </g>
    <g clip-path="url(#pc5967a89a2)">
     <!--  -->
     <g transform="translate(1229.090909 452.939028)scale(0.12 -0.12)"/>
    </g>
   </g>
   <g id="text_11">
    <g clip-path="url(#pc5967a89a2)">
     <!-- &gt;=4 -->
     <g transform="translate(924.308693 344.047108)scale(0.12 -0.12)">
      <use xlink:href="#DejaVuSans-3e"/>
      <use x="83.789062" xlink:href="#DejaVuSans-3d"/>
      <use x="167.578125" xlink:href="#DejaVuSans-34"/>
     </g>
    </g>
    <g clip-path="url(#pc5967a89a2)">
     <!-- +3 -->
     <g transform="translate(929.336506 357.484483)scale(0.12 -0.12)">
      <use xlink:href="#DejaVuSans-2b"/>
      <use x="83.789062" xlink:href="#DejaVuSans-33"/>
     </g>
    </g>
   </g>
   <g id="text_12">
    <g clip-path="url(#pc5967a89a2)">
     <!-- &lt;1 -->
     <g transform="translate(783.88196 57.683472)scale(0.12 -0.12)">
      <use xlink:href="#DejaVuSans-3c"/>
      <use x="83.789062" xlink:href="#DejaVuSans-31"/>
     </g>
    </g>
    <g clip-path="url(#pc5967a89a2)">
     <!-- +0 -->
     <g transform="translate(783.88196 71.120847)scale(0.12 -0.12)">
      <use xlink:href="#DejaVuSans-2b"/>
      <use x="83.789062" xlink:href="#DejaVuSans-30"/>
     </g>
    </g>
   </g>
   <g id="text_13">
    <g clip-path="url(#pc5967a89a2)">
     <!-- 1: c -->
     <defs>
      <path d="M 48.78125 52.59375 
L 48.78125 44.1875 
Q 44.96875 46.296875 41.140625 47.34375 
Q 37.3125 48.390625 33.40625 48.390625 
Q 24.65625 48.390625 19.8125 42.84375 
Q 14.984375 37.3125 14.984375 27.296875 
Q 14.984375 17.28125 19.8125 11.734375 
Q 24.65625 6.203125 33.40625 6.203125 
Q 37.3125 6.203125 41.140625 7.25 
Q 44.96875 8.296875 48.78125 10.40625 
L 48.78125 2.09375 
Q 45.015625 0.34375 40.984375 -0.53125 
Q 36.96875 -1.421875 32.421875 -1.421875 
Q 20.0625 -1.421875 12.78125 6.34375 
Q 5.515625 14.109375 5.515625 27.296875 
Q 5.515625 40.671875 12.859375 48.328125 
Q 20.21875 56 33.015625 56 
Q 37.15625 56 41.109375 55.140625 
Q 45.0625 54.296875 48.78125 52.59375 
z
" id="DejaVuSans-63"/>
     </defs>
     <g transform="translate(345.318949 439.501653)scale(0.12 -0.12)">
      <use xlink:href="#DejaVuSans-31"/>
      <use x="63.623047" xlink:href="#DejaVuSans-3a"/>
      <use x="97.314453" xlink:href="#DejaVuSans-20"/>
      <use x="129.101562" xlink:href="#DejaVuSans-63"/>
     </g>
    </g>
    <g clip-path="url(#pc5967a89a2)">
     <!--  -->
     <g transform="translate(356.363636 452.939028)scale(0.12 -0.12)"/>
    </g>
   </g>
   <g id="text_14">
    <g clip-path="url(#pc5967a89a2)">
     <!-- &lt;3 -->
     <g transform="translate(638.427415 248.592563)scale(0.12 -0.12)">
      <use xlink:href="#DejaVuSans-3c"/>
      <use x="83.789062" xlink:href="#DejaVuSans-33"/>
     </g>
    </g>
    <g clip-path="url(#pc5967a89a2)">
     <!-- +1 -->
     <g transform="translate(638.427415 262.029938)scale(0.12 -0.12)">
      <use xlink:href="#DejaVuSans-2b"/>
      <use x="83.789062" xlink:href="#DejaVuSans-31"/>
     </g>
    </g>
   </g>
   <g id="text_15">
    <g clip-path="url(#pc5967a89a2)">
     <!-- 1: b -->
     <defs>
      <path d="M 48.6875 27.296875 
Q 48.6875 37.203125 44.609375 42.84375 
Q 40.53125 48.484375 33.40625 48.484375 
Q 26.265625 48.484375 22.1875 42.84375 
Q 18.109375 37.203125 18.109375 27.296875 
Q 18.109375 17.390625 22.1875 11.75 
Q 26.265625 6.109375 33.40625 6.109375 
Q 40.53125 6.109375 44.609375 11.75 
Q 48.6875 17.390625 48.6875 27.296875 
z
M 18.109375 46.390625 
Q 20.953125 51.265625 25.265625 53.625 
Q 29.59375 56 35.59375 56 
Q 45.5625 56 51.78125 48.09375 
Q 58.015625 40.1875 58.015625 27.296875 
Q 58.015625 14.40625 51.78125 6.484375 
Q 45.5625 -1.421875 35.59375 -1.421875 
Q 29.59375 -1.421875 25.265625 0.953125 
Q 20.953125 3.328125 18.109375 8.203125 
L 18.109375 0 
L 9.078125 0 
L 9.078125 75.984375 
L 18.109375 75.984375 
z
" id="DejaVuSans-62"/>
     </defs>
     <g transform="translate(199.354403 439.501653)scale(0.12 -0.12)">
      <use xlink:href="#DejaVuSans-31"/>
      <use x="63.623047" xlink:href="#DejaVuSans-3a"/>
      <use x="97.314453" xlink:href="#DejaVuSans-20"/>
      <use x="129.101562" xlink:href="#DejaVuSans-62"/>
     </g>
    </g>
    <g clip-path="url(#pc5967a89a2)">
     <!--  -->
     <g transform="translate(210.909091 452.939028)scale(0.12 -0.12)"/>
    </g>
   </g>
   <g id="text_16">
    <g clip-path="url(#pc5967a89a2)">
     <!-- 3: g -->
     <defs>
      <path d="M 45.40625 27.984375 
Q 45.40625 37.75 41.375 43.109375 
Q 37.359375 48.484375 30.078125 48.484375 
Q 22.859375 48.484375 18.828125 43.109375 
Q 14.796875 37.75 14.796875 27.984375 
Q 14.796875 18.265625 18.828125 12.890625 
Q 22.859375 7.515625 30.078125 7.515625 
Q 37.359375 7.515625 41.375 12.890625 
Q 45.40625 18.265625 45.40625 27.984375 
z
M 54.390625 6.78125 
Q 54.390625 -7.171875 48.1875 -13.984375 
Q 42 -20.796875 29.203125 -20.796875 
Q 24.46875 -20.796875 20.265625 -20.09375 
Q 16.0625 -19.390625 12.109375 -17.921875 
L 12.109375 -9.1875 
Q 16.0625 -11.328125 19.921875 -12.34375 
Q 23.78125 -13.375 27.78125 -13.375 
Q 36.625 -13.375 41.015625 -8.765625 
Q 45.40625 -4.15625 45.40625 5.171875 
L 45.40625 9.625 
Q 42.625 4.78125 38.28125 2.390625 
Q 33.9375 0 27.875 0 
Q 17.828125 0 11.671875 7.65625 
Q 5.515625 15.328125 5.515625 27.984375 
Q 5.515625 40.671875 11.671875 48.328125 
Q 17.828125 56 27.875 56 
Q 33.9375 56 38.28125 53.609375 
Q 42.625 51.21875 45.40625 46.390625 
L 45.40625 54.6875 
L 54.390625 54.6875 
z
" id="DejaVuSans-67"/>
     </defs>
     <g transform="translate(926.627131 439.501653)scale(0.12 -0.12)">
      <use xlink:href="#DejaVuSans-33"/>
      <use x="63.623047" xlink:href="#DejaVuSans-3a"/>
      <use x="97.314453" xlink:href="#DejaVuSans-20"/>
      <use x="129.101562" xlink:href="#DejaVuSans-67"/>
     </g>
    </g>
    <g clip-path="url(#pc5967a89a2)">
     <!--  -->
     <g transform="translate(938.181818 452.939028)scale(0.12 -0.12)"/>
    </g>
   </g>
   <g id="text_17">
    <g clip-path="url(#pc5967a89a2)">
     <!-- 2: f -->
     <defs>
      <path d="M 19.1875 8.296875 
L 53.609375 8.296875 
L 53.609375 0 
L 7.328125 0 
L 7.328125 8.296875 
Q 12.9375 14.109375 22.625 23.890625 
Q 32.328125 33.6875 34.8125 36.53125 
Q 39.546875 41.84375 41.421875 45.53125 
Q 43.3125 49.21875 43.3125 52.78125 
Q 43.3125 58.59375 39.234375 62.25 
Q 35.15625 65.921875 28.609375 65.921875 
Q 23.96875 65.921875 18.8125 64.3125 
Q 13.671875 62.703125 7.8125 59.421875 
L 7.8125 69.390625 
Q 13.765625 71.78125 18.9375 73 
Q 24.125 74.21875 28.421875 74.21875 
Q 39.75 74.21875 46.484375 68.546875 
Q 53.21875 62.890625 53.21875 53.421875 
Q 53.21875 48.921875 51.53125 44.890625 
Q 49.859375 40.875 45.40625 35.40625 
Q 44.1875 33.984375 37.640625 27.21875 
Q 31.109375 20.453125 19.1875 8.296875 
z
" id="DejaVuSans-32"/>
      <path d="M 37.109375 75.984375 
L 37.109375 68.5 
L 28.515625 68.5 
Q 23.6875 68.5 21.796875 66.546875 
Q 19.921875 64.59375 19.921875 59.515625 
L 19.921875 54.6875 
L 34.71875 54.6875 
L 34.71875 47.703125 
L 19.921875 47.703125 
L 19.921875 0 
L 10.890625 0 
L 10.890625 47.703125 
L 2.296875 47.703125 
L 2.296875 54.6875 
L 10.890625 54.6875 
L 10.890625 58.5 
Q 10.890625 67.625 15.140625 71.796875 
Q 19.390625 75.984375 28.609375 75.984375 
z
" id="DejaVuSans-66"/>
     </defs>
     <g transform="translate(782.86946 439.501653)scale(0.12 -0.12)">
      <use xlink:href="#DejaVuSans-32"/>
      <use x="63.623047" xlink:href="#DejaVuSans-3a"/>
      <use x="97.314453" xlink:href="#DejaVuSans-20"/>
      <use x="129.101562" xlink:href="#DejaVuSans-66"/>
     </g>
    </g>
    <g clip-path="url(#pc5967a89a2)">
     <!--  -->
     <g transform="translate(792.727273 452.939028)scale(0.12 -0.12)"/>
    </g>
   </g>
   <g id="text_18">
    <g clip-path="url(#pc5967a89a2)">
     <!-- 0: a -->
     <defs>
      <path d="M 34.28125 27.484375 
Q 23.390625 27.484375 19.1875 25 
Q 14.984375 22.515625 14.984375 16.5 
Q 14.984375 11.71875 18.140625 8.90625 
Q 21.296875 6.109375 26.703125 6.109375 
Q 34.1875 6.109375 38.703125 11.40625 
Q 43.21875 16.703125 43.21875 25.484375 
L 43.21875 27.484375 
z
M 52.203125 31.203125 
L 52.203125 0 
L 43.21875 0 
L 43.21875 8.296875 
Q 40.140625 3.328125 35.546875 0.953125 
Q 30.953125 -1.421875 24.3125 -1.421875 
Q 15.921875 -1.421875 10.953125 3.296875 
Q 6 8.015625 6 15.921875 
Q 6 25.140625 12.171875 29.828125 
Q 18.359375 34.515625 30.609375 34.515625 
L 43.21875 34.515625 
L 43.21875 35.40625 
Q 43.21875 41.609375 39.140625 45 
Q 35.0625 48.390625 27.6875 48.390625 
Q 23 48.390625 18.546875 47.265625 
Q 14.109375 46.140625 10.015625 43.890625 
L 10.015625 52.203125 
Q 14.9375 54.109375 19.578125 55.046875 
Q 24.21875 56 28.609375 56 
Q 40.484375 56 46.34375 49.84375 
Q 52.203125 43.703125 52.203125 31.203125 
z
" id="DejaVuSans-61"/>
     </defs>
     <g transform="translate(54.032045 439.501653)scale(0.12 -0.12)">
      <use xlink:href="#DejaVuSans-30"/>
      <use x="63.623047" xlink:href="#DejaVuSans-3a"/>
      <use x="97.314453" xlink:href="#DejaVuSans-20"/>
      <use x="129.101562" xlink:href="#DejaVuSans-61"/>
     </g>
    </g>
    <g clip-path="url(#pc5967a89a2)">
     <!--  -->
     <g transform="translate(65.454545 452.939028)scale(0.12 -0.12)"/>
    </g>
   </g>
   <g id="text_19">
    <g clip-path="url(#pc5967a89a2)">
     <!-- &lt;1 -->
     <g transform="translate(1074.791051 344.047108)scale(0.12 -0.12)">
      <use xlink:href="#DejaVuSans-3c"/>
      <use x="83.789062" xlink:href="#DejaVuSans-31"/>
     </g>
    </g>
    <g clip-path="url(#pc5967a89a2)">
     <!-- +0 -->
     <g transform="translate(1074.791051 357.484483)scale(0.12 -0.12)">
      <use xlink:href="#DejaVuSans-2b"/>
      <use x="83.789062" xlink:href="#DejaVuSans-30"/>
     </g>
    </g>
   </g>
   <g id="text_20">
    <g clip-path="url(#pc5967a89a2)">
     <!-- &lt;1 -->
     <g transform="translate(929.336506 57.683472)scale(0.12 -0.12)">
      <use xlink:href="#DejaVuSans-3c"/>
      <use x="83.789062" xlink:href="#DejaVuSans-31"/>
     </g>
    </g>
    <g clip-path="url(#pc5967a89a2)">
     <!-- +0 -->
     <g transform="translate(929.336506 71.120847)scale(0.12 -0.12)">
      <use xlink:href="#DejaVuSans-2b"/>
      <use x="83.789062" xlink:href="#DejaVuSans-30"/>
     </g>
    </g>
   </g>
   <g id="text_21">
    <g clip-path="url(#pc5967a89a2)">
     <!-- &gt;=4 -->
     <g transform="translate(633.399602 344.047108)scale(0.12 -0.12)">
      <use xlink:href="#DejaVuSans-3e"/>
      <use x="83.789062" xlink:href="#DejaVuSans-3d"/>
      <use x="167.578125" xlink:href="#DejaVuSans-34"/>
     </g>
    </g>
    <g clip-path="url(#pc5967a89a2)">
     <!-- +3 -->
     <g transform="translate(638.427415 357.484483)scale(0.12 -0.12)">
      <use xlink:href="#DejaVuSans-2b"/>
      <use x="83.789062" xlink:href="#DejaVuSans-33"/>
     </g>
    </g>
   </g>
   <g id="text_22">
    <g clip-path="url(#pc5967a89a2)">
     <!-- &lt;1 -->
     <g transform="translate(202.063778 344.047108)scale(0.12 -0.12)">
      <use xlink:href="#DejaVuSans-3c"/>
      <use x="83.789062" xlink:href="#DejaVuSans-31"/>
     </g>
    </g>
    <g clip-path="url(#pc5967a89a2)">
     <!-- +0 -->
     <g transform="translate(202.063778 357.484483)scale(0.12 -0.12)">
      <use xlink:href="#DejaVuSans-2b"/>
      <use x="83.789062" xlink:href="#DejaVuSans-30"/>
     </g>
    </g>
   </g>
   <g id="text_23">
    <g clip-path="url(#pc5967a89a2)">
     <!-- &lt;2 -->
     <g transform="translate(783.88196 344.047108)scale(0.12 -0.12)">
      <use xlink:href="#DejaVuSans-3c"/>
      <use x="83.789062" xlink:href="#DejaVuSans-32"/>
     </g>
    </g>
    <g clip-path="url(#pc5967a89a2)">
     <!-- +1 -->
     <g transform="translate(783.88196 357.484483)scale(0.12 -0.12)">
      <use xlink:href="#DejaVuSans-2b"/>
      <use x="83.789062" xlink:href="#DejaVuSans-31"/>
     </g>
    </g>
   </g>
   <g id="text_24">
    <g clip-path="url(#pc5967a89a2)">
     <!-- &gt;=2 -->
     <g transform="translate(1069.763239 248.592563)scale(0.12 -0.12)">
      <use xlink:href="#DejaVuSans-3e"/>
      <use x="83.789062" xlink:href="#DejaVuSans-3d"/>
      <use x="167.578125" xlink:href="#DejaVuSans-32"/>
     </g>
    </g>
    <g clip-path="url(#pc5967a89a2)">
     <!-- +1 -->
     <g transform="translate(1074.791051 262.029938)scale(0.12 -0.12)">
      <use xlink:href="#DejaVuSans-2b"/>
      <use x="83.789062" xlink:href="#DejaVuSans-31"/>
     </g>
    </g>
   </g>
   <g id="text_25">
    <g clip-path="url(#pc5967a89a2)">
     <!-- 9: j -->
     <defs>
      <path d="M 9.421875 54.6875 
L 18.40625 54.6875 
L 18.40625 -0.984375 
Q 18.40625 -11.421875 14.421875 -16.109375 
Q 10.453125 -20.796875 1.609375 -20.796875 
L -1.8125 -20.796875 
L -1.8125 -13.1875 
L 0.59375 -13.1875 
Q 5.71875 -13.1875 7.5625 -10.8125 
Q 9.421875 -8.453125 9.421875 -0.984375 
z
M 9.421875 75.984375 
L 18.40625 75.984375 
L 18.40625 64.59375 
L 9.421875 64.59375 
z
" id="DejaVuSans-6a"/>
     </defs>
     <g transform="translate(1365.132955 439.501653)scale(0.12 -0.12)">
      <use xlink:href="#DejaVuSans-39"/>
      <use x="63.623047" xlink:href="#DejaVuSans-3a"/>
      <use x="97.314453" xlink:href="#DejaVuSans-20"/>
      <use x="129.101562" xlink:href="#DejaVuSans-6a"/>
     </g>
    </g>
    <g clip-path="url(#pc5967a89a2)">
     <!--  -->
     <g transform="translate(1374.545455 452.939028)scale(0.12 -0.12)"/>
    </g>
   </g>
   <g id="text_26">
    <g clip-path="url(#pc5967a89a2)">
     <!-- &gt;=5 -->
     <defs>
      <path d="M 10.796875 72.90625 
L 49.515625 72.90625 
L 49.515625 64.59375 
L 19.828125 64.59375 
L 19.828125 46.734375 
Q 21.96875 47.46875 24.109375 47.828125 
Q 26.265625 48.1875 28.421875 48.1875 
Q 40.625 48.1875 47.75 41.5 
Q 54.890625 34.8125 54.890625 23.390625 
Q 54.890625 11.625 47.5625 5.09375 
Q 40.234375 -1.421875 26.90625 -1.421875 
Q 22.3125 -1.421875 17.546875 -0.640625 
Q 12.796875 0.140625 7.71875 1.703125 
L 7.71875 11.625 
Q 12.109375 9.234375 16.796875 8.0625 
Q 21.484375 6.890625 26.703125 6.890625 
Q 35.15625 6.890625 40.078125 11.328125 
Q 45.015625 15.765625 45.015625 23.390625 
Q 45.015625 31 40.078125 35.4375 
Q 35.15625 39.890625 26.703125 39.890625 
Q 22.75 39.890625 18.8125 39.015625 
Q 14.890625 38.140625 10.796875 36.28125 
z
" id="DejaVuSans-35"/>
     </defs>
     <g transform="translate(924.308693 153.138017)scale(0.12 -0.12)">
      <use xlink:href="#DejaVuSans-3e"/>
      <use x="83.789062" xlink:href="#DejaVuSans-3d"/>
      <use x="167.578125" xlink:href="#DejaVuSans-35"/>
     </g>
    </g>
    <g clip-path="url(#pc5967a89a2)">
     <!-- +2 -->
     <g transform="translate(929.336506 166.575392)scale(0.12 -0.12)">
      <use xlink:href="#DejaVuSans-2b"/>
      <use x="83.789062" xlink:href="#DejaVuSans-32"/>
     </g>
    </g>
   </g>
   <g id="text_27">
    <g clip-path="url(#pc5967a89a2)">
     <!-- 0: d -->
     <defs>
      <path d="M 45.40625 46.390625 
L 45.40625 75.984375 
L 54.390625 75.984375 
L 54.390625 0 
L 45.40625 0 
L 45.40625 8.203125 
Q 42.578125 3.328125 38.25 0.953125 
Q 33.9375 -1.421875 27.875 -1.421875 
Q 17.96875 -1.421875 11.734375 6.484375 
Q 5.515625 14.40625 5.515625 27.296875 
Q 5.515625 40.1875 11.734375 48.09375 
Q 17.96875 56 27.875 56 
Q 33.9375 56 38.25 53.625 
Q 42.578125 51.265625 45.40625 46.390625 
z
M 14.796875 27.296875 
Q 14.796875 17.390625 18.875 11.75 
Q 22.953125 6.109375 30.078125 6.109375 
Q 37.203125 6.109375 41.296875 11.75 
Q 45.40625 17.390625 45.40625 27.296875 
Q 45.40625 37.203125 41.296875 42.84375 
Q 37.203125 48.484375 30.078125 48.484375 
Q 22.953125 48.484375 18.875 42.84375 
Q 14.796875 37.203125 14.796875 27.296875 
z
" id="DejaVuSans-64"/>
     </defs>
     <g transform="translate(490.263494 439.501653)scale(0.12 -0.12)">
      <use xlink:href="#DejaVuSans-30"/>
      <use x="63.623047" xlink:href="#DejaVuSans-3a"/>
      <use x="97.314453" xlink:href="#DejaVuSans-20"/>
      <use x="129.101562" xlink:href="#DejaVuSans-64"/>
     </g>
    </g>
    <g clip-path="url(#pc5967a89a2)">
     <!--  -->
     <g transform="translate(501.818182 452.939028)scale(0.12 -0.12)"/>
    </g>
   </g>
   <g id="text_28">
    <g clip-path="url(#pc5967a89a2)">
     <!-- &gt;=2 -->
     <g transform="translate(342.490511 248.592563)scale(0.12 -0.12)">
      <use xlink:href="#DejaVuSans-3e"/>
      <use x="83.789062" xlink:href="#DejaVuSans-3d"/>
      <use x="167.578125" xlink:href="#DejaVuSans-32"/>
     </g>
    </g>
    <g clip-path="url(#pc5967a89a2)">
     <!-- +1 -->
     <g transform="translate(347.518324 262.029938)scale(0.12 -0.12)">
      <use xlink:href="#DejaVuSans-2b"/>
      <use x="83.789062" xlink:href="#DejaVuSans-31"/>
     </g>
    </g>
   </g>
   <g id="text_29">
    <g clip-path="url(#pc5967a89a2)">
     <!-- 3: e -->
     <defs>
      <path d="M 56.203125 29.59375 
L 56.203125 25.203125 
L 14.890625 25.203125 
Q 15.484375 15.921875 20.484375 11.0625 
Q 25.484375 6.203125 34.421875 6.203125 
Q 39.59375 6.203125 44.453125 7.46875 
Q 49.3125 8.734375 54.109375 11.28125 
L 54.109375 2.78125 
Q 49.265625 0.734375 44.1875 -0.34375 
Q 39.109375 -1.421875 33.890625 -1.421875 
Q 20.796875 -1.421875 13.15625 6.1875 
Q 5.515625 13.8125 5.515625 26.8125 
Q 5.515625 40.234375 12.765625 48.109375 
Q 20.015625 56 32.328125 56 
Q 43.359375 56 49.78125 48.890625 
Q 56.203125 41.796875 56.203125 29.59375 
z
M 47.21875 32.234375 
Q 47.125 39.59375 43.09375 43.984375 
Q 39.0625 48.390625 32.421875 48.390625 
Q 24.90625 48.390625 20.390625 44.140625 
Q 15.875 39.890625 15.1875 32.171875 
z
" id="DejaVuSans-65"/>
     </defs>
     <g transform="translate(635.835227 439.501653)scale(0.12 -0.12)">
      <use xlink:href="#DejaVuSans-33"/>
      <use x="63.623047" xlink:href="#DejaVuSans-3a"/>
      <use x="97.314453" xlink:href="#DejaVuSans-20"/>
      <use x="129.101562" xlink:href="#DejaVuSans-65"/>
     </g>
    </g>
    <g clip-path="url(#pc5967a89a2)">
     <!--  -->
     <g transform="translate(647.272727 452.939028)scale(0.12 -0.12)"/>
    </g>
   </g>
   <g id="text_30">
    <g clip-path="url(#pc5967a89a2)">
     <!-- &gt;=3 -->
     <g transform="translate(778.854148 248.592563)scale(0.12 -0.12)">
      <use xlink:href="#DejaVuSans-3e"/>
      <use x="83.789062" xlink:href="#DejaVuSans-3d"/>
      <use x="167.578125" xlink:href="#DejaVuSans-33"/>
     </g>
    </g>
    <g clip-path="url(#pc5967a89a2)">
     <!-- +2 -->
     <g transform="translate(783.88196 262.029938)scale(0.12 -0.12)">
      <use xlink:href="#DejaVuSans-2b"/>
      <use x="83.789062" xlink:href="#DejaVuSans-32"/>
     </g>
    </g>
   </g>
  </g>
 </g>
 <defs>
  <clipPath id="pc5967a89a2">
   <rect height="504" width="1440" x="0" y="0"/>
  </clipPath>
 </defs>
</svg>
