<?xml version="1.0" encoding="utf-8" standalone="no"?>
<!DOCTYPE svg PUBLIC "-//W3C//DTD SVG 1.1//EN"
  "http://www.w3.org/Graphics/SVG/1.1/DTD/svg11.dtd">
<!-- Created with matplotlib (http://matplotlib.org/) -->
<svg height="504pt" version="1.1" viewBox="0 0 1440 504" width="1440pt" xmlns="http://www.w3.org/2000/svg" xmlns:xlink="http://www.w3.org/1999/xlink">
 <defs>
  <style type="text/css">
*{stroke-linecap:butt;stroke-linejoin:round;}
  </style>
 </defs>
 <g id="figure_1">
  <g id="patch_1">
   <path d="M 0 504 
L 1440 504 
L 1440 0 
L 0 0 
z
" style="fill:#ffffff;"/>
  </g>
  <g id="axes_1">
   <g id="patch_2">
    <path clip-path="url(#p2a6591b87d)" d="M 1374.545455 137.454545 
Q 1374.545455 161.945068 1374.545455 184.199523 
" style="fill:none;stroke:#000000;stroke-linecap:round;stroke-width:2;"/>
    <path clip-path="url(#p2a6591b87d)" d="M 1376.545455 180.199523 
L 1374.545455 184.199523 
L 1372.545455 180.199523 
L 1376.545455 180.199523 
z
" style="stroke:#000000;stroke-linecap:round;stroke-width:2;"/>
   </g>
   <g id="patch_3">
    <path clip-path="url(#p2a6591b87d)" d="M 1374.545455 137.454545 
Q 1242.334428 172.15994 1112.286196 206.297601 
" style="fill:none;stroke:#000000;stroke-linecap:round;stroke-width:2;"/>
    <path clip-path="url(#p2a6591b87d)" d="M 1116.662916 207.21647 
L 1112.286196 206.297601 
L 1115.647324 203.347546 
L 1116.662916 207.21647 
z
" style="stroke:#000000;stroke-linecap:round;stroke-width:2;"/>
   </g>
   <g id="patch_4">
    <path clip-path="url(#p2a6591b87d)" d="M 501.818182 290.181818 
Q 442.782759 290.181818 385.983405 290.181818 
" style="fill:none;stroke:#000000;stroke-linecap:round;stroke-width:2;"/>
    <path clip-path="url(#p2a6591b87d)" d="M 389.983405 292.181818 
L 385.983405 290.181818 
L 389.983405 288.181818 
L 389.983405 292.181818 
z
" style="stroke:#000000;stroke-linecap:round;stroke-width:2;"/>
   </g>
   <g id="patch_5">
    <path clip-path="url(#p2a6591b87d)" d="M 501.818182 290.181818 
Q 501.818182 314.672341 501.818182 336.926796 
" style="fill:none;stroke:#000000;stroke-linecap:round;stroke-width:2;"/>
    <path clip-path="url(#p2a6591b87d)" d="M 503.818182 332.926796 
L 501.818182 336.926796 
L 499.818182 332.926796 
L 503.818182 332.926796 
z
" style="stroke:#000000;stroke-linecap:round;stroke-width:2;"/>
   </g>
   <g id="patch_6">
    <path clip-path="url(#p2a6591b87d)" d="M 1229.090909 290.181818 
Q 1229.090909 314.672341 1229.090909 336.926796 
" style="fill:none;stroke:#000000;stroke-linecap:round;stroke-width:2;"/>
    <path clip-path="url(#p2a6591b87d)" d="M 1231.090909 332.926796 
L 1229.090909 336.926796 
L 1227.090909 332.926796 
L 1231.090909 332.926796 
z
" style="stroke:#000000;stroke-linecap:round;stroke-width:2;"/>
   </g>
   <g id="patch_7">
    <path clip-path="url(#p2a6591b87d)" d="M 1229.090909 290.181818 
Q 1168.487438 258.364996 1109.863777 227.587574 
" style="fill:none;stroke:#000000;stroke-linecap:round;stroke-width:2;"/>
    <path clip-path="url(#p2a6591b87d)" d="M 1112.4757 231.217705 
L 1109.863777 227.587574 
L 1114.335036 227.676113 
L 1112.4757 231.217705 
z
" style="stroke:#000000;stroke-linecap:round;stroke-width:2;"/>
   </g>
   <g id="patch_8">
    <path clip-path="url(#p2a6591b87d)" d="M 356.363636 366.545455 
Q 224.15261 401.250849 94.104378 435.38851 
" style="fill:none;stroke:#000000;stroke-linecap:round;stroke-width:2;"/>
    <path clip-path="url(#p2a6591b87d)" d="M 98.481098 436.307379 
L 94.104378 435.38851 
L 97.465506 432.438455 
L 98.481098 436.307379 
z
" style="stroke:#000000;stroke-linecap:round;stroke-width:2;"/>
   </g>
   <g id="patch_9">
    <path clip-path="url(#p2a6591b87d)" d="M 356.363636 366.545455 
Q 356.363636 391.035977 356.363636 413.290432 
" style="fill:none;stroke:#000000;stroke-linecap:round;stroke-width:2;"/>
    <path clip-path="url(#p2a6591b87d)" d="M 358.363636 409.290432 
L 356.363636 413.290432 
L 354.363636 409.290432 
L 358.363636 409.290432 
z
" style="stroke:#000000;stroke-linecap:round;stroke-width:2;"/>
   </g>
   <g id="patch_10">
    <path clip-path="url(#p2a6591b87d)" d="M 1374.545455 366.545455 
Q 1374.545455 391.035977 1374.545455 413.290432 
" style="fill:none;stroke:#000000;stroke-linecap:round;stroke-width:2;"/>
    <path clip-path="url(#p2a6591b87d)" d="M 1376.545455 409.290432 
L 1374.545455 413.290432 
L 1372.545455 409.290432 
L 1376.545455 409.290432 
z
" style="stroke:#000000;stroke-linecap:round;stroke-width:2;"/>
   </g>
   <g id="patch_11">
    <path clip-path="url(#p2a6591b87d)" d="M 1374.545455 366.545455 
Q 879.108942 403.703193 385.902235 440.693696 
" style="fill:none;stroke:#000000;stroke-linecap:round;stroke-width:2;"/>
    <path clip-path="url(#p2a6591b87d)" d="M 390.040612 442.388935 
L 385.902235 440.693696 
L 389.741453 438.400138 
L 390.040612 442.388935 
z
" style="stroke:#000000;stroke-linecap:round;stroke-width:2;"/>
   </g>
   <g id="patch_12">
    <path clip-path="url(#p2a6591b87d)" d="M 792.727273 290.181818 
Q 659.396529 360.180459 528.045595 429.139699 
" style="fill:none;stroke:#000000;stroke-linecap:round;stroke-width:2;"/>
    <path clip-path="url(#p2a6591b87d)" d="M 532.516854 429.051159 
L 528.045595 429.139699 
L 530.657519 425.509568 
L 532.516854 429.051159 
z
" style="stroke:#000000;stroke-linecap:round;stroke-width:2;"/>
   </g>
   <g id="patch_13">
    <path clip-path="url(#p2a6591b87d)" d="M 792.727273 290.181818 
Q 792.727273 314.672341 792.727273 336.926796 
" style="fill:none;stroke:#000000;stroke-linecap:round;stroke-width:2;"/>
    <path clip-path="url(#p2a6591b87d)" d="M 794.727273 332.926796 
L 792.727273 336.926796 
L 790.727273 332.926796 
L 794.727273 332.926796 
z
" style="stroke:#000000;stroke-linecap:round;stroke-width:2;"/>
   </g>
   <g id="patch_14">
    <path clip-path="url(#p2a6591b87d)" d="M 1083.636364 366.545455 
Q 1083.636364 391.035977 1083.636364 413.290432 
" style="fill:none;stroke:#000000;stroke-linecap:round;stroke-width:2;"/>
    <path clip-path="url(#p2a6591b87d)" d="M 1085.636364 409.290432 
L 1083.636364 413.290432 
L 1081.636364 409.290432 
L 1085.636364 409.290432 
z
" style="stroke:#000000;stroke-linecap:round;stroke-width:2;"/>
   </g>
   <g id="patch_15">
    <path clip-path="url(#p2a6591b87d)" d="M 1083.636364 366.545455 
Q 806.303711 402.945365 531.188112 439.054288 
" style="fill:none;stroke:#000000;stroke-linecap:round;stroke-width:2;"/>
    <path clip-path="url(#p2a6591b87d)" d="M 535.414365 440.516745 
L 531.188112 439.054288 
L 534.89383 436.550759 
L 535.414365 440.516745 
z
" style="stroke:#000000;stroke-linecap:round;stroke-width:2;"/>
   </g>
   <g id="patch_16">
    <path clip-path="url(#p2a6591b87d)" d="M 647.272727 213.818182 
Q 583.988148 280.26699 522.245685 345.096576 
" style="fill:none;stroke:#000000;stroke-linecap:round;stroke-width:2;"/>
    <path clip-path="url(#p2a6591b87d)" d="M 526.452581 343.579335 
L 522.245685 345.096576 
L 523.55603 340.820714 
L 526.452581 343.579335 
z
" style="stroke:#000000;stroke-linecap:round;stroke-width:2;"/>
   </g>
   <g id="patch_17">
    <path clip-path="url(#p2a6591b87d)" d="M 647.272727 213.818182 
Q 647.272727 238.308705 647.272727 260.56316 
" style="fill:none;stroke:#000000;stroke-linecap:round;stroke-width:2;"/>
    <path clip-path="url(#p2a6591b87d)" d="M 649.272727 256.56316 
L 647.272727 260.56316 
L 645.272727 256.56316 
L 649.272727 256.56316 
z
" style="stroke:#000000;stroke-linecap:round;stroke-width:2;"/>
   </g>
   <g id="patch_18">
    <path clip-path="url(#p2a6591b87d)" d="M 1374.545455 61.090909 
Q 1307.704745 201.456399 1241.825397 339.803031 
" style="fill:none;stroke:#000000;stroke-linecap:round;stroke-width:2;"/>
    <path clip-path="url(#p2a6591b87d)" d="M 1245.350852 337.051456 
L 1241.825397 339.803031 
L 1241.73941 335.331722 
L 1245.350852 337.051456 
z
" style="stroke:#000000;stroke-linecap:round;stroke-width:2;"/>
   </g>
   <g id="patch_19">
    <path clip-path="url(#p2a6591b87d)" d="M 1374.545455 61.090909 
Q 1374.545455 85.581432 1374.545455 107.835887 
" style="fill:none;stroke:#000000;stroke-linecap:round;stroke-width:2;"/>
    <path clip-path="url(#p2a6591b87d)" d="M 1376.545455 103.835887 
L 1374.545455 107.835887 
L 1372.545455 103.835887 
L 1376.545455 103.835887 
z
" style="stroke:#000000;stroke-linecap:round;stroke-width:2;"/>
   </g>
   <g id="patch_20">
    <path clip-path="url(#p2a6591b87d)" d="M 1229.090909 366.545455 
Q 1229.090909 391.035977 1229.090909 413.290432 
" style="fill:none;stroke:#000000;stroke-linecap:round;stroke-width:2;"/>
    <path clip-path="url(#p2a6591b87d)" d="M 1231.090909 409.290432 
L 1229.090909 413.290432 
L 1227.090909 409.290432 
L 1231.090909 409.290432 
z
" style="stroke:#000000;stroke-linecap:round;stroke-width:2;"/>
   </g>
   <g id="patch_21">
    <path clip-path="url(#p2a6591b87d)" d="M 1229.090909 366.545455 
Q 1170.055487 366.545455 1113.256132 366.545455 
" style="fill:none;stroke:#000000;stroke-linecap:round;stroke-width:2;"/>
    <path clip-path="url(#p2a6591b87d)" d="M 1117.256132 368.545455 
L 1113.256132 366.545455 
L 1117.256132 364.545455 
L 1117.256132 368.545455 
z
" style="stroke:#000000;stroke-linecap:round;stroke-width:2;"/>
   </g>
   <g id="patch_22">
    <path clip-path="url(#p2a6591b87d)" d="M 792.727273 213.818182 
Q 792.727273 238.308705 792.727273 260.56316 
" style="fill:none;stroke:#000000;stroke-linecap:round;stroke-width:2;"/>
    <path clip-path="url(#p2a6591b87d)" d="M 794.727273 256.56316 
L 792.727273 260.56316 
L 790.727273 256.56316 
L 794.727273 256.56316 
z
" style="stroke:#000000;stroke-linecap:round;stroke-width:2;"/>
   </g>
   <g id="patch_23">
    <path clip-path="url(#p2a6591b87d)" d="M 792.727273 213.818182 
Q 732.123801 245.635004 673.50014 276.412426 
" style="fill:none;stroke:#000000;stroke-linecap:round;stroke-width:2;"/>
    <path clip-path="url(#p2a6591b87d)" d="M 677.9714 276.323887 
L 673.50014 276.412426 
L 676.112064 272.782295 
L 677.9714 276.323887 
z
" style="stroke:#000000;stroke-linecap:round;stroke-width:2;"/>
   </g>
   <g id="patch_24">
    <path clip-path="url(#p2a6591b87d)" d="M 647.272727 290.181818 
Q 647.272727 314.672341 647.272727 336.926796 
" style="fill:none;stroke:#000000;stroke-linecap:round;stroke-width:2;"/>
    <path clip-path="url(#p2a6591b87d)" d="M 649.272727 332.926796 
L 647.272727 336.926796 
L 645.272727 332.926796 
L 649.272727 332.926796 
z
" style="stroke:#000000;stroke-linecap:round;stroke-width:2;"/>
   </g>
   <g id="patch_25">
    <path clip-path="url(#p2a6591b87d)" d="M 647.272727 290.181818 
Q 515.061701 324.887213 385.013469 359.024874 
" style="fill:none;stroke:#000000;stroke-linecap:round;stroke-width:2;"/>
    <path clip-path="url(#p2a6591b87d)" d="M 389.390189 359.943743 
L 385.013469 359.024874 
L 388.374597 356.074819 
L 389.390189 359.943743 
z
" style="stroke:#000000;stroke-linecap:round;stroke-width:2;"/>
   </g>
   <g id="patch_26">
    <path clip-path="url(#p2a6591b87d)" d="M 1083.636364 290.181818 
Q 951.425337 324.887213 821.377105 359.024874 
" style="fill:none;stroke:#000000;stroke-linecap:round;stroke-width:2;"/>
    <path clip-path="url(#p2a6591b87d)" d="M 825.753825 359.943743 
L 821.377105 359.024874 
L 824.738233 356.074819 
L 825.753825 359.943743 
z
" style="stroke:#000000;stroke-linecap:round;stroke-width:2;"/>
   </g>
   <g id="patch_27">
    <path clip-path="url(#p2a6591b87d)" d="M 1083.636364 290.181818 
Q 1083.636364 314.672341 1083.636364 336.926796 
" style="fill:none;stroke:#000000;stroke-linecap:round;stroke-width:2;"/>
    <path clip-path="url(#p2a6591b87d)" d="M 1085.636364 332.926796 
L 1083.636364 336.926796 
L 1081.636364 332.926796 
L 1085.636364 332.926796 
z
" style="stroke:#000000;stroke-linecap:round;stroke-width:2;"/>
   </g>
   <g id="patch_28">
    <path clip-path="url(#p2a6591b87d)" d="M 1374.545455 290.181818 
Q 733.601823 364.958575 94.879196 439.476215 
" style="fill:none;stroke:#000000;stroke-linecap:round;stroke-width:2;"/>
    <path clip-path="url(#p2a6591b87d)" d="M 99.08401 440.999219 
L 94.879196 439.476215 
L 98.620487 437.026166 
L 99.08401 440.999219 
z
" style="stroke:#000000;stroke-linecap:round;stroke-width:2;"/>
   </g>
   <g id="patch_29">
    <path clip-path="url(#p2a6591b87d)" d="M 1374.545455 290.181818 
Q 1374.545455 314.672341 1374.545455 336.926796 
" style="fill:none;stroke:#000000;stroke-linecap:round;stroke-width:2;"/>
    <path clip-path="url(#p2a6591b87d)" d="M 1376.545455 332.926796 
L 1374.545455 336.926796 
L 1372.545455 332.926796 
L 1376.545455 332.926796 
z
" style="stroke:#000000;stroke-linecap:round;stroke-width:2;"/>
   </g>
   <g id="patch_30">
    <path clip-path="url(#p2a6591b87d)" d="M 938.181818 290.181818 
Q 879.146396 290.181818 822.347041 290.181818 
" style="fill:none;stroke:#000000;stroke-linecap:round;stroke-width:2;"/>
    <path clip-path="url(#p2a6591b87d)" d="M 826.347041 292.181818 
L 822.347041 290.181818 
L 826.347041 288.181818 
L 826.347041 292.181818 
z
" style="stroke:#000000;stroke-linecap:round;stroke-width:2;"/>
   </g>
   <g id="patch_31">
    <path clip-path="url(#p2a6591b87d)" d="M 938.181818 290.181818 
Q 938.181818 314.672341 938.181818 336.926796 
" style="fill:none;stroke:#000000;stroke-linecap:round;stroke-width:2;"/>
    <path clip-path="url(#p2a6591b87d)" d="M 940.181818 332.926796 
L 938.181818 336.926796 
L 936.181818 332.926796 
L 940.181818 332.926796 
z
" style="stroke:#000000;stroke-linecap:round;stroke-width:2;"/>
   </g>
   <g id="patch_32">
    <path clip-path="url(#p2a6591b87d)" d="M 647.272727 366.545455 
Q 442.579124 402.366835 240.088115 437.802762 
" style="fill:none;stroke:#000000;stroke-linecap:round;stroke-width:2;"/>
    <path clip-path="url(#p2a6591b87d)" d="M 244.372998 439.083301 
L 240.088115 437.802762 
L 243.683477 435.143179 
L 244.372998 439.083301 
z
" style="stroke:#000000;stroke-linecap:round;stroke-width:2;"/>
   </g>
   <g id="patch_33">
    <path clip-path="url(#p2a6591b87d)" d="M 647.272727 366.545455 
Q 647.272727 391.035977 647.272727 413.290432 
" style="fill:none;stroke:#000000;stroke-linecap:round;stroke-width:2;"/>
    <path clip-path="url(#p2a6591b87d)" d="M 649.272727 409.290432 
L 647.272727 413.290432 
L 645.272727 409.290432 
L 649.272727 409.290432 
z
" style="stroke:#000000;stroke-linecap:round;stroke-width:2;"/>
   </g>
   <g id="patch_34">
    <path clip-path="url(#p2a6591b87d)" d="M 210.909091 366.545455 
Q 150.30562 398.362277 91.681958 429.139699 
" style="fill:none;stroke:#000000;stroke-linecap:round;stroke-width:2;"/>
    <path clip-path="url(#p2a6591b87d)" d="M 96.153218 429.051159 
L 91.681958 429.139699 
L 94.293882 425.509568 
L 96.153218 429.051159 
z
" style="stroke:#000000;stroke-linecap:round;stroke-width:2;"/>
   </g>
   <g id="patch_35">
    <path clip-path="url(#p2a6591b87d)" d="M 210.909091 366.545455 
Q 210.909091 391.035977 210.909091 413.290432 
" style="fill:none;stroke:#000000;stroke-linecap:round;stroke-width:2;"/>
    <path clip-path="url(#p2a6591b87d)" d="M 212.909091 409.290432 
L 210.909091 413.290432 
L 208.909091 409.290432 
L 212.909091 409.290432 
z
" style="stroke:#000000;stroke-linecap:round;stroke-width:2;"/>
   </g>
   <g id="patch_36">
    <path clip-path="url(#p2a6591b87d)" d="M 1083.636364 213.818182 
Q 1020.351784 280.26699 958.609321 345.096576 
" style="fill:none;stroke:#000000;stroke-linecap:round;stroke-width:2;"/>
    <path clip-path="url(#p2a6591b87d)" d="M 962.816218 343.579335 
L 958.609321 345.096576 
L 959.919666 340.820714 
L 962.816218 343.579335 
z
" style="stroke:#000000;stroke-linecap:round;stroke-width:2;"/>
   </g>
   <g id="patch_37">
    <path clip-path="url(#p2a6591b87d)" d="M 1083.636364 213.818182 
Q 1083.636364 238.308705 1083.636364 260.56316 
" style="fill:none;stroke:#000000;stroke-linecap:round;stroke-width:2;"/>
    <path clip-path="url(#p2a6591b87d)" d="M 1085.636364 256.56316 
L 1083.636364 260.56316 
L 1081.636364 256.56316 
L 1085.636364 256.56316 
z
" style="stroke:#000000;stroke-linecap:round;stroke-width:2;"/>
   </g>
   <g id="patch_38">
    <path clip-path="url(#p2a6591b87d)" d="M 1374.545455 213.818182 
Q 1024.310469 287.367529 676.26382 360.457325 
" style="fill:none;stroke:#000000;stroke-linecap:round;stroke-width:2;"/>
    <path clip-path="url(#p2a6591b87d)" d="M 680.589468 361.592563 
L 676.26382 360.457325 
L 679.767399 357.677949 
L 680.589468 361.592563 
z
" style="stroke:#000000;stroke-linecap:round;stroke-width:2;"/>
   </g>
   <g id="patch_39">
    <path clip-path="url(#p2a6591b87d)" d="M 1374.545455 213.818182 
Q 1374.545455 238.308705 1374.545455 260.56316 
" style="fill:none;stroke:#000000;stroke-linecap:round;stroke-width:2;"/>
    <path clip-path="url(#p2a6591b87d)" d="M 1376.545455 256.56316 
L 1374.545455 260.56316 
L 1372.545455 256.56316 
L 1376.545455 256.56316 
z
" style="stroke:#000000;stroke-linecap:round;stroke-width:2;"/>
   </g>
   <g id="patch_40">
    <path clip-path="url(#p2a6591b87d)" d="M 938.181818 366.545455 
Q 938.181818 391.035977 938.181818 413.290432 
" style="fill:none;stroke:#000000;stroke-linecap:round;stroke-width:2;"/>
    <path clip-path="url(#p2a6591b87d)" d="M 940.181818 409.290432 
L 938.181818 413.290432 
L 936.181818 409.290432 
L 940.181818 409.290432 
z
" style="stroke:#000000;stroke-linecap:round;stroke-width:2;"/>
   </g>
   <g id="patch_41">
    <path clip-path="url(#p2a6591b87d)" d="M 938.181818 366.545455 
Q 805.970792 331.84006 675.92256 297.702399 
" style="fill:none;stroke:#000000;stroke-linecap:round;stroke-width:2;"/>
    <path clip-path="url(#p2a6591b87d)" d="M 679.283687 300.652454 
L 675.92256 297.702399 
L 680.29928 296.78353 
L 679.283687 300.652454 
z
" style="stroke:#000000;stroke-linecap:round;stroke-width:2;"/>
   </g>
   <g id="patch_42">
    <path clip-path="url(#p2a6591b87d)" d="M 501.818182 366.545455 
Q 501.818182 391.035977 501.818182 413.290432 
" style="fill:none;stroke:#000000;stroke-linecap:round;stroke-width:2;"/>
    <path clip-path="url(#p2a6591b87d)" d="M 503.818182 409.290432 
L 501.818182 413.290432 
L 499.818182 409.290432 
L 503.818182 409.290432 
z
" style="stroke:#000000;stroke-linecap:round;stroke-width:2;"/>
   </g>
   <g id="patch_43">
    <path clip-path="url(#p2a6591b87d)" d="M 501.818182 366.545455 
Q 297.124578 402.366835 94.63357 437.802762 
" style="fill:none;stroke:#000000;stroke-linecap:round;stroke-width:2;"/>
    <path clip-path="url(#p2a6591b87d)" d="M 98.918452 439.083301 
L 94.63357 437.802762 
L 98.228931 435.143179 
L 98.918452 439.083301 
z
" style="stroke:#000000;stroke-linecap:round;stroke-width:2;"/>
   </g>
   <g id="patch_44">
    <path clip-path="url(#p2a6591b87d)" d="M 356.363636 290.181818 
Q 293.079057 356.630626 231.336594 421.460213 
" style="fill:none;stroke:#000000;stroke-linecap:round;stroke-width:2;"/>
    <path clip-path="url(#p2a6591b87d)" d="M 235.54349 419.942971 
L 231.336594 421.460213 
L 232.646939 417.184351 
L 235.54349 419.942971 
z
" style="stroke:#000000;stroke-linecap:round;stroke-width:2;"/>
   </g>
   <g id="patch_45">
    <path clip-path="url(#p2a6591b87d)" d="M 356.363636 290.181818 
Q 356.363636 314.672341 356.363636 336.926796 
" style="fill:none;stroke:#000000;stroke-linecap:round;stroke-width:2;"/>
    <path clip-path="url(#p2a6591b87d)" d="M 358.363636 332.926796 
L 356.363636 336.926796 
L 354.363636 332.926796 
L 358.363636 332.926796 
z
" style="stroke:#000000;stroke-linecap:round;stroke-width:2;"/>
   </g>
   <g id="patch_46">
    <path clip-path="url(#p2a6591b87d)" d="M 792.727273 366.545455 
Q 442.708685 403.297406 94.913939 439.815855 
" style="fill:none;stroke:#000000;stroke-linecap:round;stroke-width:2;"/>
    <path clip-path="url(#p2a6591b87d)" d="M 99.100922 441.387216 
L 94.913939 439.815855 
L 98.683218 437.409085 
L 99.100922 441.387216 
z
" style="stroke:#000000;stroke-linecap:round;stroke-width:2;"/>
   </g>
   <g id="patch_47">
    <path clip-path="url(#p2a6591b87d)" d="M 792.727273 366.545455 
Q 792.727273 391.035977 792.727273 413.290432 
" style="fill:none;stroke:#000000;stroke-linecap:round;stroke-width:2;"/>
    <path clip-path="url(#p2a6591b87d)" d="M 794.727273 409.290432 
L 792.727273 413.290432 
L 790.727273 409.290432 
L 794.727273 409.290432 
z
" style="stroke:#000000;stroke-linecap:round;stroke-width:2;"/>
   </g>
   <g id="PathCollection_1">
    <defs>
     <path d="M 0 27.386128 
C 7.262886 27.386128 14.229281 24.500553 19.364917 19.364917 
C 24.500553 14.229281 27.386128 7.262886 27.386128 0 
C 27.386128 -7.262886 24.500553 -14.229281 19.364917 -19.364917 
C 14.229281 -24.500553 7.262886 -27.386128 0 -27.386128 
C -7.262886 -27.386128 -14.229281 -24.500553 -19.364917 -19.364917 
C -24.500553 -14.229281 -27.386128 -7.262886 -27.386128 0 
C -27.386128 7.262886 -24.500553 14.229281 -19.364917 19.364917 
C -14.229281 24.500553 -7.262886 27.386128 0 27.386128 
z
" id="mbe16102e2c" style="stroke:#000000;stroke-width:2;"/>
    </defs>
    <g clip-path="url(#p2a6591b87d)">
     <use style="fill:#ffffff;stroke:#000000;stroke-width:2;" x="1083.636364" xlink:href="#mbe16102e2c" y="442.909091"/>
     <use style="fill:#ffffff;stroke:#000000;stroke-width:2;" x="1374.545455" xlink:href="#mbe16102e2c" y="137.454545"/>
     <use style="fill:#ffffff;stroke:#000000;stroke-width:2;" x="501.818182" xlink:href="#mbe16102e2c" y="290.181818"/>
     <use style="fill:#ffffff;stroke:#000000;stroke-width:2;" x="1229.090909" xlink:href="#mbe16102e2c" y="290.181818"/>
     <use style="fill:#ffffff;stroke:#000000;stroke-width:2;" x="356.363636" xlink:href="#mbe16102e2c" y="366.545455"/>
     <use style="fill:#ffffff;stroke:#000000;stroke-width:2;" x="938.181818" xlink:href="#mbe16102e2c" y="442.909091"/>
     <use style="fill:#ffffff;stroke:#000000;stroke-width:2;" x="1374.545455" xlink:href="#mbe16102e2c" y="366.545455"/>
     <use style="fill:#ffffff;stroke:#000000;stroke-width:2;" x="792.727273" xlink:href="#mbe16102e2c" y="290.181818"/>
     <use style="fill:#ffffff;stroke:#000000;stroke-width:2;" x="1083.636364" xlink:href="#mbe16102e2c" y="366.545455"/>
     <use style="fill:#ffffff;stroke:#000000;stroke-width:2;" x="647.272727" xlink:href="#mbe16102e2c" y="213.818182"/>
     <use style="fill:#ffffff;stroke:#000000;stroke-width:2;" x="1374.545455" xlink:href="#mbe16102e2c" y="61.090909"/>
     <use style="fill:#ffffff;stroke:#000000;stroke-width:2;" x="1229.090909" xlink:href="#mbe16102e2c" y="366.545455"/>
     <use style="fill:#ffffff;stroke:#000000;stroke-width:2;" x="792.727273" xlink:href="#mbe16102e2c" y="213.818182"/>
     <use style="fill:#ffffff;stroke:#000000;stroke-width:2;" x="356.363636" xlink:href="#mbe16102e2c" y="442.909091"/>
     <use style="fill:#ffffff;stroke:#000000;stroke-width:2;" x="647.272727" xlink:href="#mbe16102e2c" y="290.181818"/>
     <use style="fill:#ffffff;stroke:#000000;stroke-width:2;" x="210.909091" xlink:href="#mbe16102e2c" y="442.909091"/>
     <use style="fill:#ffffff;stroke:#000000;stroke-width:2;" x="501.818182" xlink:href="#mbe16102e2c" y="442.909091"/>
     <use style="fill:#ffffff;stroke:#000000;stroke-width:2;" x="65.454545" xlink:href="#mbe16102e2c" y="442.909091"/>
     <use style="fill:#ffffff;stroke:#000000;stroke-width:2;" x="1229.090909" xlink:href="#mbe16102e2c" y="442.909091"/>
     <use style="fill:#ffffff;stroke:#000000;stroke-width:2;" x="1083.636364" xlink:href="#mbe16102e2c" y="290.181818"/>
     <use style="fill:#ffffff;stroke:#000000;stroke-width:2;" x="1374.545455" xlink:href="#mbe16102e2c" y="290.181818"/>
     <use style="fill:#ffffff;stroke:#000000;stroke-width:2;" x="938.181818" xlink:href="#mbe16102e2c" y="290.181818"/>
     <use style="fill:#ffffff;stroke:#000000;stroke-width:2;" x="647.272727" xlink:href="#mbe16102e2c" y="366.545455"/>
     <use style="fill:#ffffff;stroke:#000000;stroke-width:2;" x="210.909091" xlink:href="#mbe16102e2c" y="366.545455"/>
     <use style="fill:#ffffff;stroke:#000000;stroke-width:2;" x="792.727273" xlink:href="#mbe16102e2c" y="442.909091"/>
     <use style="fill:#ffffff;stroke:#000000;stroke-width:2;" x="1083.636364" xlink:href="#mbe16102e2c" y="213.818182"/>
     <use style="fill:#ffffff;stroke:#000000;stroke-width:2;" x="1374.545455" xlink:href="#mbe16102e2c" y="213.818182"/>
     <use style="fill:#ffffff;stroke:#000000;stroke-width:2;" x="938.181818" xlink:href="#mbe16102e2c" y="366.545455"/>
     <use style="fill:#ffffff;stroke:#000000;stroke-width:2;" x="501.818182" xlink:href="#mbe16102e2c" y="366.545455"/>
     <use style="fill:#ffffff;stroke:#000000;stroke-width:2;" x="356.363636" xlink:href="#mbe16102e2c" y="290.181818"/>
     <use style="fill:#ffffff;stroke:#000000;stroke-width:2;" x="647.272727" xlink:href="#mbe16102e2c" y="442.909091"/>
     <use style="fill:#ffffff;stroke:#000000;stroke-width:2;" x="1374.545455" xlink:href="#mbe16102e2c" y="442.909091"/>
     <use style="fill:#ffffff;stroke:#000000;stroke-width:2;" x="792.727273" xlink:href="#mbe16102e2c" y="366.545455"/>
    </g>
   </g>
   <g id="text_1">
    <g clip-path="url(#p2a6591b87d)">
     <!-- 1: h -->
     <defs>
      <path d="M 12.40625 8.296875 
L 28.515625 8.296875 
L 28.515625 63.921875 
L 10.984375 60.40625 
L 10.984375 69.390625 
L 28.421875 72.90625 
L 38.28125 72.90625 
L 38.28125 8.296875 
L 54.390625 8.296875 
L 54.390625 0 
L 12.40625 0 
z
" id="DejaVuSans-31"/>
      <path d="M 11.71875 12.40625 
L 22.015625 12.40625 
L 22.015625 0 
L 11.71875 0 
z
M 11.71875 51.703125 
L 22.015625 51.703125 
L 22.015625 39.3125 
L 11.71875 39.3125 
z
" id="DejaVuSans-3a"/>
      <path id="DejaVuSans-20"/>
      <path d="M 54.890625 33.015625 
L 54.890625 0 
L 45.90625 0 
L 45.90625 32.71875 
Q 45.90625 40.484375 42.875 44.328125 
Q 39.84375 48.1875 33.796875 48.1875 
Q 26.515625 48.1875 22.3125 43.546875 
Q 18.109375 38.921875 18.109375 30.90625 
L 18.109375 0 
L 9.078125 0 
L 9.078125 75.984375 
L 18.109375 75.984375 
L 18.109375 46.1875 
Q 21.34375 51.125 25.703125 53.5625 
Q 30.078125 56 35.796875 56 
Q 45.21875 56 50.046875 50.171875 
Q 54.890625 44.34375 54.890625 33.015625 
z
" id="DejaVuSans-68"/>
     </defs>
     <g transform="translate(1072.088239 439.501653)scale(0.12 -0.12)">
      <use xlink:href="#DejaVuSans-31"/>
      <use x="63.623047" xlink:href="#DejaVuSans-3a"/>
      <use x="97.314453" xlink:href="#DejaVuSans-20"/>
      <use x="129.101562" xlink:href="#DejaVuSans-68"/>
     </g>
    </g>
    <g clip-path="url(#p2a6591b87d)">
     <!--  -->
     <g transform="translate(1083.636364 452.939028)scale(0.12 -0.12)"/>
    </g>
   </g>
   <g id="text_2">
    <g clip-path="url(#p2a6591b87d)">
     <!-- &lt;7w3 -->
     <defs>
      <path d="M 73.1875 49.21875 
L 22.796875 31.296875 
L 73.1875 13.484375 
L 73.1875 4.59375 
L 10.59375 27.296875 
L 10.59375 35.40625 
L 73.1875 58.109375 
z
" id="DejaVuSans-3c"/>
      <path d="M 8.203125 72.90625 
L 55.078125 72.90625 
L 55.078125 68.703125 
L 28.609375 0 
L 18.3125 0 
L 43.21875 64.59375 
L 8.203125 64.59375 
z
" id="DejaVuSans-37"/>
      <path d="M 4.203125 54.6875 
L 13.1875 54.6875 
L 24.421875 12.015625 
L 35.59375 54.6875 
L 46.1875 54.6875 
L 57.421875 12.015625 
L 68.609375 54.6875 
L 77.59375 54.6875 
L 63.28125 0 
L 52.6875 0 
L 40.921875 44.828125 
L 29.109375 0 
L 18.5 0 
z
" id="DejaVuSans-77"/>
      <path d="M 40.578125 39.3125 
Q 47.65625 37.796875 51.625 33 
Q 55.609375 28.21875 55.609375 21.1875 
Q 55.609375 10.40625 48.1875 4.484375 
Q 40.765625 -1.421875 27.09375 -1.421875 
Q 22.515625 -1.421875 17.65625 -0.515625 
Q 12.796875 0.390625 7.625 2.203125 
L 7.625 11.71875 
Q 11.71875 9.328125 16.59375 8.109375 
Q 21.484375 6.890625 26.8125 6.890625 
Q 36.078125 6.890625 40.9375 10.546875 
Q 45.796875 14.203125 45.796875 21.1875 
Q 45.796875 27.640625 41.28125 31.265625 
Q 36.765625 34.90625 28.71875 34.90625 
L 20.21875 34.90625 
L 20.21875 43.015625 
L 29.109375 43.015625 
Q 36.375 43.015625 40.234375 45.921875 
Q 44.09375 48.828125 44.09375 54.296875 
Q 44.09375 59.90625 40.109375 62.90625 
Q 36.140625 65.921875 28.71875 65.921875 
Q 24.65625 65.921875 20.015625 65.03125 
Q 15.375 64.15625 9.8125 62.3125 
L 9.8125 71.09375 
Q 15.4375 72.65625 20.34375 73.4375 
Q 25.25 74.21875 29.59375 74.21875 
Q 40.828125 74.21875 47.359375 69.109375 
Q 53.90625 64.015625 53.90625 55.328125 
Q 53.90625 49.265625 50.4375 45.09375 
Q 46.96875 40.921875 40.578125 39.3125 
z
" id="DejaVuSans-33"/>
     </defs>
     <g transform="translate(1356.975767 134.047108)scale(0.12 -0.12)">
      <use xlink:href="#DejaVuSans-3c"/>
      <use x="83.789062" xlink:href="#DejaVuSans-37"/>
      <use x="147.412109" xlink:href="#DejaVuSans-77"/>
      <use x="229.199219" xlink:href="#DejaVuSans-33"/>
     </g>
    </g>
    <g clip-path="url(#p2a6591b87d)">
     <!-- +3 -->
     <defs>
      <path d="M 46 62.703125 
L 46 35.5 
L 73.1875 35.5 
L 73.1875 27.203125 
L 46 27.203125 
L 46 0 
L 37.796875 0 
L 37.796875 27.203125 
L 10.59375 27.203125 
L 10.59375 35.5 
L 37.796875 35.5 
L 37.796875 62.703125 
z
" id="DejaVuSans-2b"/>
     </defs>
     <g transform="translate(1365.700142 147.484483)scale(0.12 -0.12)">
      <use xlink:href="#DejaVuSans-2b"/>
      <use x="83.789062" xlink:href="#DejaVuSans-33"/>
     </g>
    </g>
   </g>
   <g id="text_3">
    <g clip-path="url(#p2a6591b87d)">
     <!-- &gt;=2w2 -->
     <defs>
      <path d="M 10.59375 49.21875 
L 10.59375 58.109375 
L 73.1875 35.40625 
L 73.1875 27.296875 
L 10.59375 4.59375 
L 10.59375 13.484375 
L 60.890625 31.296875 
z
" id="DejaVuSans-3e"/>
      <path d="M 10.59375 45.40625 
L 73.1875 45.40625 
L 73.1875 37.203125 
L 10.59375 37.203125 
z
M 10.59375 25.484375 
L 73.1875 25.484375 
L 73.1875 17.1875 
L 10.59375 17.1875 
z
" id="DejaVuSans-3d"/>
      <path d="M 19.1875 8.296875 
L 53.609375 8.296875 
L 53.609375 0 
L 7.328125 0 
L 7.328125 8.296875 
Q 12.9375 14.109375 22.625 23.890625 
Q 32.328125 33.6875 34.8125 36.53125 
Q 39.546875 41.84375 41.421875 45.53125 
Q 43.3125 49.21875 43.3125 52.78125 
Q 43.3125 58.59375 39.234375 62.25 
Q 35.15625 65.921875 28.609375 65.921875 
Q 23.96875 65.921875 18.8125 64.3125 
Q 13.671875 62.703125 7.8125 59.421875 
L 7.8125 69.390625 
Q 13.765625 71.78125 18.9375 73 
Q 24.125 74.21875 28.421875 74.21875 
Q 39.75 74.21875 46.484375 68.546875 
Q 53.21875 62.890625 53.21875 53.421875 
Q 53.21875 48.921875 51.53125 44.890625 
Q 49.859375 40.875 45.40625 35.40625 
Q 44.1875 33.984375 37.640625 27.21875 
Q 31.109375 20.453125 19.1875 8.296875 
z
" id="DejaVuSans-32"/>
     </defs>
     <g transform="translate(479.220682 286.774381)scale(0.12 -0.12)">
      <use xlink:href="#DejaVuSans-3e"/>
      <use x="83.789062" xlink:href="#DejaVuSans-3d"/>
      <use x="167.578125" xlink:href="#DejaVuSans-32"/>
      <use x="231.201172" xlink:href="#DejaVuSans-77"/>
      <use x="312.988281" xlink:href="#DejaVuSans-32"/>
     </g>
    </g>
    <g clip-path="url(#p2a6591b87d)">
     <!-- +1 -->
     <g transform="translate(492.972869 300.211756)scale(0.12 -0.12)">
      <use xlink:href="#DejaVuSans-2b"/>
      <use x="83.789062" xlink:href="#DejaVuSans-31"/>
     </g>
    </g>
   </g>
   <g id="text_4">
    <g clip-path="url(#p2a6591b87d)">
     <!-- &gt;=3w6 -->
     <defs>
      <path d="M 33.015625 40.375 
Q 26.375 40.375 22.484375 35.828125 
Q 18.609375 31.296875 18.609375 23.390625 
Q 18.609375 15.53125 22.484375 10.953125 
Q 26.375 6.390625 33.015625 6.390625 
Q 39.65625 6.390625 43.53125 10.953125 
Q 47.40625 15.53125 47.40625 23.390625 
Q 47.40625 31.296875 43.53125 35.828125 
Q 39.65625 40.375 33.015625 40.375 
z
M 52.59375 71.296875 
L 52.59375 62.3125 
Q 48.875 64.0625 45.09375 64.984375 
Q 41.3125 65.921875 37.59375 65.921875 
Q 27.828125 65.921875 22.671875 59.328125 
Q 17.53125 52.734375 16.796875 39.40625 
Q 19.671875 43.65625 24.015625 45.921875 
Q 28.375 48.1875 33.59375 48.1875 
Q 44.578125 48.1875 50.953125 41.515625 
Q 57.328125 34.859375 57.328125 23.390625 
Q 57.328125 12.15625 50.6875 5.359375 
Q 44.046875 -1.421875 33.015625 -1.421875 
Q 20.359375 -1.421875 13.671875 8.265625 
Q 6.984375 17.96875 6.984375 36.375 
Q 6.984375 53.65625 15.1875 63.9375 
Q 23.390625 74.21875 37.203125 74.21875 
Q 40.921875 74.21875 44.703125 73.484375 
Q 48.484375 72.75 52.59375 71.296875 
z
" id="DejaVuSans-36"/>
     </defs>
     <g transform="translate(1206.493409 286.774381)scale(0.12 -0.12)">
      <use xlink:href="#DejaVuSans-3e"/>
      <use x="83.789062" xlink:href="#DejaVuSans-3d"/>
      <use x="167.578125" xlink:href="#DejaVuSans-33"/>
      <use x="231.201172" xlink:href="#DejaVuSans-77"/>
      <use x="312.988281" xlink:href="#DejaVuSans-36"/>
     </g>
    </g>
    <g clip-path="url(#p2a6591b87d)">
     <!-- +2 -->
     <g transform="translate(1220.245597 300.211756)scale(0.12 -0.12)">
      <use xlink:href="#DejaVuSans-2b"/>
      <use x="83.789062" xlink:href="#DejaVuSans-32"/>
     </g>
    </g>
   </g>
   <g id="text_5">
    <g clip-path="url(#p2a6591b87d)">
     <!-- &lt;1w1 -->
     <g transform="translate(338.793949 363.138017)scale(0.12 -0.12)">
      <use xlink:href="#DejaVuSans-3c"/>
      <use x="83.789062" xlink:href="#DejaVuSans-31"/>
      <use x="147.412109" xlink:href="#DejaVuSans-77"/>
      <use x="229.199219" xlink:href="#DejaVuSans-31"/>
     </g>
    </g>
    <g clip-path="url(#p2a6591b87d)">
     <!-- +0 -->
     <defs>
      <path d="M 31.78125 66.40625 
Q 24.171875 66.40625 20.328125 58.90625 
Q 16.5 51.421875 16.5 36.375 
Q 16.5 21.390625 20.328125 13.890625 
Q 24.171875 6.390625 31.78125 6.390625 
Q 39.453125 6.390625 43.28125 13.890625 
Q 47.125 21.390625 47.125 36.375 
Q 47.125 51.421875 43.28125 58.90625 
Q 39.453125 66.40625 31.78125 66.40625 
z
M 31.78125 74.21875 
Q 44.046875 74.21875 50.515625 64.515625 
Q 56.984375 54.828125 56.984375 36.375 
Q 56.984375 17.96875 50.515625 8.265625 
Q 44.046875 -1.421875 31.78125 -1.421875 
Q 19.53125 -1.421875 13.0625 8.265625 
Q 6.59375 17.96875 6.59375 36.375 
Q 6.59375 54.828125 13.0625 64.515625 
Q 19.53125 74.21875 31.78125 74.21875 
z
" id="DejaVuSans-30"/>
     </defs>
     <g transform="translate(347.518324 376.575392)scale(0.12 -0.12)">
      <use xlink:href="#DejaVuSans-2b"/>
      <use x="83.789062" xlink:href="#DejaVuSans-30"/>
     </g>
    </g>
   </g>
   <g id="text_6">
    <g clip-path="url(#p2a6591b87d)">
     <!-- 3: g -->
     <defs>
      <path d="M 45.40625 27.984375 
Q 45.40625 37.75 41.375 43.109375 
Q 37.359375 48.484375 30.078125 48.484375 
Q 22.859375 48.484375 18.828125 43.109375 
Q 14.796875 37.75 14.796875 27.984375 
Q 14.796875 18.265625 18.828125 12.890625 
Q 22.859375 7.515625 30.078125 7.515625 
Q 37.359375 7.515625 41.375 12.890625 
Q 45.40625 18.265625 45.40625 27.984375 
z
M 54.390625 6.78125 
Q 54.390625 -7.171875 48.1875 -13.984375 
Q 42 -20.796875 29.203125 -20.796875 
Q 24.46875 -20.796875 20.265625 -20.09375 
Q 16.0625 -19.390625 12.109375 -17.921875 
L 12.109375 -9.1875 
Q 16.0625 -11.328125 19.921875 -12.34375 
Q 23.78125 -13.375 27.78125 -13.375 
Q 36.625 -13.375 41.015625 -8.765625 
Q 45.40625 -4.15625 45.40625 5.171875 
L 45.40625 9.625 
Q 42.625 4.78125 38.28125 2.390625 
Q 33.9375 0 27.875 0 
Q 17.828125 0 11.671875 7.65625 
Q 5.515625 15.328125 5.515625 27.984375 
Q 5.515625 40.671875 11.671875 48.328125 
Q 17.828125 56 27.875 56 
Q 33.9375 56 38.28125 53.609375 
Q 42.625 51.21875 45.40625 46.390625 
L 45.40625 54.6875 
L 54.390625 54.6875 
z
" id="DejaVuSans-67"/>
     </defs>
     <g transform="translate(926.627131 439.501653)scale(0.12 -0.12)">
      <use xlink:href="#DejaVuSans-33"/>
      <use x="63.623047" xlink:href="#DejaVuSans-3a"/>
      <use x="97.314453" xlink:href="#DejaVuSans-20"/>
      <use x="129.101562" xlink:href="#DejaVuSans-67"/>
     </g>
    </g>
    <g clip-path="url(#p2a6591b87d)">
     <!--  -->
     <g transform="translate(938.181818 452.939028)scale(0.12 -0.12)"/>
    </g>
   </g>
   <g id="text_7">
    <g clip-path="url(#p2a6591b87d)">
     <!-- &lt;9w1 -->
     <defs>
      <path d="M 10.984375 1.515625 
L 10.984375 10.5 
Q 14.703125 8.734375 18.5 7.8125 
Q 22.3125 6.890625 25.984375 6.890625 
Q 35.75 6.890625 40.890625 13.453125 
Q 46.046875 20.015625 46.78125 33.40625 
Q 43.953125 29.203125 39.59375 26.953125 
Q 35.25 24.703125 29.984375 24.703125 
Q 19.046875 24.703125 12.671875 31.3125 
Q 6.296875 37.9375 6.296875 49.421875 
Q 6.296875 60.640625 12.9375 67.421875 
Q 19.578125 74.21875 30.609375 74.21875 
Q 43.265625 74.21875 49.921875 64.515625 
Q 56.59375 54.828125 56.59375 36.375 
Q 56.59375 19.140625 48.40625 8.859375 
Q 40.234375 -1.421875 26.421875 -1.421875 
Q 22.703125 -1.421875 18.890625 -0.6875 
Q 15.09375 0.046875 10.984375 1.515625 
z
M 30.609375 32.421875 
Q 37.25 32.421875 41.125 36.953125 
Q 45.015625 41.5 45.015625 49.421875 
Q 45.015625 57.28125 41.125 61.84375 
Q 37.25 66.40625 30.609375 66.40625 
Q 23.96875 66.40625 20.09375 61.84375 
Q 16.21875 57.28125 16.21875 49.421875 
Q 16.21875 41.5 20.09375 36.953125 
Q 23.96875 32.421875 30.609375 32.421875 
z
" id="DejaVuSans-39"/>
     </defs>
     <g transform="translate(1356.975767 363.138017)scale(0.12 -0.12)">
      <use xlink:href="#DejaVuSans-3c"/>
      <use x="83.789062" xlink:href="#DejaVuSans-39"/>
      <use x="147.412109" xlink:href="#DejaVuSans-77"/>
      <use x="229.199219" xlink:href="#DejaVuSans-31"/>
     </g>
    </g>
    <g clip-path="url(#p2a6591b87d)">
     <!-- +7 -->
     <g transform="translate(1365.700142 376.575392)scale(0.12 -0.12)">
      <use xlink:href="#DejaVuSans-2b"/>
      <use x="83.789062" xlink:href="#DejaVuSans-37"/>
     </g>
    </g>
   </g>
   <g id="text_8">
    <g clip-path="url(#p2a6591b87d)">
     <!-- &lt;1w1 -->
     <g transform="translate(775.157585 286.774381)scale(0.12 -0.12)">
      <use xlink:href="#DejaVuSans-3c"/>
      <use x="83.789062" xlink:href="#DejaVuSans-31"/>
      <use x="147.412109" xlink:href="#DejaVuSans-77"/>
      <use x="229.199219" xlink:href="#DejaVuSans-31"/>
     </g>
    </g>
    <g clip-path="url(#p2a6591b87d)">
     <!-- +0 -->
     <g transform="translate(783.88196 300.211756)scale(0.12 -0.12)">
      <use xlink:href="#DejaVuSans-2b"/>
      <use x="83.789062" xlink:href="#DejaVuSans-30"/>
     </g>
    </g>
   </g>
   <g id="text_9">
    <g clip-path="url(#p2a6591b87d)">
     <!-- &lt;1w1 -->
     <g transform="translate(1066.066676 363.138017)scale(0.12 -0.12)">
      <use xlink:href="#DejaVuSans-3c"/>
      <use x="83.789062" xlink:href="#DejaVuSans-31"/>
      <use x="147.412109" xlink:href="#DejaVuSans-77"/>
      <use x="229.199219" xlink:href="#DejaVuSans-31"/>
     </g>
    </g>
    <g clip-path="url(#p2a6591b87d)">
     <!-- +0 -->
     <g transform="translate(1074.791051 376.575392)scale(0.12 -0.12)">
      <use xlink:href="#DejaVuSans-2b"/>
      <use x="83.789062" xlink:href="#DejaVuSans-30"/>
     </g>
    </g>
   </g>
   <g id="text_10">
    <g clip-path="url(#p2a6591b87d)">
     <!-- &lt;2w2 -->
     <g transform="translate(629.70304 210.410744)scale(0.12 -0.12)">
      <use xlink:href="#DejaVuSans-3c"/>
      <use x="83.789062" xlink:href="#DejaVuSans-32"/>
      <use x="147.412109" xlink:href="#DejaVuSans-77"/>
      <use x="229.199219" xlink:href="#DejaVuSans-32"/>
     </g>
    </g>
    <g clip-path="url(#p2a6591b87d)">
     <!-- +0 -->
     <g transform="translate(638.427415 223.848119)scale(0.12 -0.12)">
      <use xlink:href="#DejaVuSans-2b"/>
      <use x="83.789062" xlink:href="#DejaVuSans-30"/>
     </g>
    </g>
   </g>
   <g id="text_11">
    <g clip-path="url(#p2a6591b87d)">
     <!-- &lt;3w3 -->
     <g transform="translate(1356.975767 57.683472)scale(0.12 -0.12)">
      <use xlink:href="#DejaVuSans-3c"/>
      <use x="83.789062" xlink:href="#DejaVuSans-33"/>
      <use x="147.412109" xlink:href="#DejaVuSans-77"/>
      <use x="229.199219" xlink:href="#DejaVuSans-33"/>
     </g>
    </g>
    <g clip-path="url(#p2a6591b87d)">
     <!-- +0 -->
     <g transform="translate(1365.700142 71.120847)scale(0.12 -0.12)">
      <use xlink:href="#DejaVuSans-2b"/>
      <use x="83.789062" xlink:href="#DejaVuSans-30"/>
     </g>
    </g>
   </g>
   <g id="text_12">
    <g clip-path="url(#p2a6591b87d)">
     <!-- &gt;=1w2 -->
     <g transform="translate(1206.493409 363.138017)scale(0.12 -0.12)">
      <use xlink:href="#DejaVuSans-3e"/>
      <use x="83.789062" xlink:href="#DejaVuSans-3d"/>
      <use x="167.578125" xlink:href="#DejaVuSans-31"/>
      <use x="231.201172" xlink:href="#DejaVuSans-77"/>
      <use x="312.988281" xlink:href="#DejaVuSans-32"/>
     </g>
    </g>
    <g clip-path="url(#p2a6591b87d)">
     <!-- +1 -->
     <g transform="translate(1220.245597 376.575392)scale(0.12 -0.12)">
      <use xlink:href="#DejaVuSans-2b"/>
      <use x="83.789062" xlink:href="#DejaVuSans-31"/>
     </g>
    </g>
   </g>
   <g id="text_13">
    <g clip-path="url(#p2a6591b87d)">
     <!-- &gt;=3w3 -->
     <g transform="translate(770.129773 210.410744)scale(0.12 -0.12)">
      <use xlink:href="#DejaVuSans-3e"/>
      <use x="83.789062" xlink:href="#DejaVuSans-3d"/>
      <use x="167.578125" xlink:href="#DejaVuSans-33"/>
      <use x="231.201172" xlink:href="#DejaVuSans-77"/>
      <use x="312.988281" xlink:href="#DejaVuSans-33"/>
     </g>
    </g>
    <g clip-path="url(#p2a6591b87d)">
     <!-- +1 -->
     <g transform="translate(783.88196 223.848119)scale(0.12 -0.12)">
      <use xlink:href="#DejaVuSans-2b"/>
      <use x="83.789062" xlink:href="#DejaVuSans-31"/>
     </g>
    </g>
   </g>
   <g id="text_14">
    <g clip-path="url(#p2a6591b87d)">
     <!-- 1: c -->
     <defs>
      <path d="M 48.78125 52.59375 
L 48.78125 44.1875 
Q 44.96875 46.296875 41.140625 47.34375 
Q 37.3125 48.390625 33.40625 48.390625 
Q 24.65625 48.390625 19.8125 42.84375 
Q 14.984375 37.3125 14.984375 27.296875 
Q 14.984375 17.28125 19.8125 11.734375 
Q 24.65625 6.203125 33.40625 6.203125 
Q 37.3125 6.203125 41.140625 7.25 
Q 44.96875 8.296875 48.78125 10.40625 
L 48.78125 2.09375 
Q 45.015625 0.34375 40.984375 -0.53125 
Q 36.96875 -1.421875 32.421875 -1.421875 
Q 20.0625 -1.421875 12.78125 6.34375 
Q 5.515625 14.109375 5.515625 27.296875 
Q 5.515625 40.671875 12.859375 48.328125 
Q 20.21875 56 33.015625 56 
Q 37.15625 56 41.109375 55.140625 
Q 45.0625 54.296875 48.78125 52.59375 
z
" id="DejaVuSans-63"/>
     </defs>
     <g transform="translate(345.318949 439.501653)scale(0.12 -0.12)">
      <use xlink:href="#DejaVuSans-31"/>
      <use x="63.623047" xlink:href="#DejaVuSans-3a"/>
      <use x="97.314453" xlink:href="#DejaVuSans-20"/>
      <use x="129.101562" xlink:href="#DejaVuSans-63"/>
     </g>
    </g>
    <g clip-path="url(#p2a6591b87d)">
     <!--  -->
     <g transform="translate(356.363636 452.939028)scale(0.12 -0.12)"/>
    </g>
   </g>
   <g id="text_15">
    <g clip-path="url(#p2a6591b87d)">
     <!-- &lt;3w1 -->
     <g transform="translate(629.70304 286.774381)scale(0.12 -0.12)">
      <use xlink:href="#DejaVuSans-3c"/>
      <use x="83.789062" xlink:href="#DejaVuSans-33"/>
      <use x="147.412109" xlink:href="#DejaVuSans-77"/>
      <use x="229.199219" xlink:href="#DejaVuSans-31"/>
     </g>
    </g>
    <g clip-path="url(#p2a6591b87d)">
     <!-- +1 -->
     <g transform="translate(638.427415 300.211756)scale(0.12 -0.12)">
      <use xlink:href="#DejaVuSans-2b"/>
      <use x="83.789062" xlink:href="#DejaVuSans-31"/>
     </g>
    </g>
   </g>
   <g id="text_16">
    <g clip-path="url(#p2a6591b87d)">
     <!-- 1: b -->
     <defs>
      <path d="M 48.6875 27.296875 
Q 48.6875 37.203125 44.609375 42.84375 
Q 40.53125 48.484375 33.40625 48.484375 
Q 26.265625 48.484375 22.1875 42.84375 
Q 18.109375 37.203125 18.109375 27.296875 
Q 18.109375 17.390625 22.1875 11.75 
Q 26.265625 6.109375 33.40625 6.109375 
Q 40.53125 6.109375 44.609375 11.75 
Q 48.6875 17.390625 48.6875 27.296875 
z
M 18.109375 46.390625 
Q 20.953125 51.265625 25.265625 53.625 
Q 29.59375 56 35.59375 56 
Q 45.5625 56 51.78125 48.09375 
Q 58.015625 40.1875 58.015625 27.296875 
Q 58.015625 14.40625 51.78125 6.484375 
Q 45.5625 -1.421875 35.59375 -1.421875 
Q 29.59375 -1.421875 25.265625 0.953125 
Q 20.953125 3.328125 18.109375 8.203125 
L 18.109375 0 
L 9.078125 0 
L 9.078125 75.984375 
L 18.109375 75.984375 
z
" id="DejaVuSans-62"/>
     </defs>
     <g transform="translate(199.354403 439.501653)scale(0.12 -0.12)">
      <use xlink:href="#DejaVuSans-31"/>
      <use x="63.623047" xlink:href="#DejaVuSans-3a"/>
      <use x="97.314453" xlink:href="#DejaVuSans-20"/>
      <use x="129.101562" xlink:href="#DejaVuSans-62"/>
     </g>
    </g>
    <g clip-path="url(#p2a6591b87d)">
     <!--  -->
     <g transform="translate(210.909091 452.939028)scale(0.12 -0.12)"/>
    </g>
   </g>
   <g id="text_17">
    <g clip-path="url(#p2a6591b87d)">
     <!-- 0: d -->
     <defs>
      <path d="M 45.40625 46.390625 
L 45.40625 75.984375 
L 54.390625 75.984375 
L 54.390625 0 
L 45.40625 0 
L 45.40625 8.203125 
Q 42.578125 3.328125 38.25 0.953125 
Q 33.9375 -1.421875 27.875 -1.421875 
Q 17.96875 -1.421875 11.734375 6.484375 
Q 5.515625 14.40625 5.515625 27.296875 
Q 5.515625 40.1875 11.734375 48.09375 
Q 17.96875 56 27.875 56 
Q 33.9375 56 38.25 53.625 
Q 42.578125 51.265625 45.40625 46.390625 
z
M 14.796875 27.296875 
Q 14.796875 17.390625 18.875 11.75 
Q 22.953125 6.109375 30.078125 6.109375 
Q 37.203125 6.109375 41.296875 11.75 
Q 45.40625 17.390625 45.40625 27.296875 
Q 45.40625 37.203125 41.296875 42.84375 
Q 37.203125 48.484375 30.078125 48.484375 
Q 22.953125 48.484375 18.875 42.84375 
Q 14.796875 37.203125 14.796875 27.296875 
z
" id="DejaVuSans-64"/>
     </defs>
     <g transform="translate(490.263494 439.501653)scale(0.12 -0.12)">
      <use xlink:href="#DejaVuSans-30"/>
      <use x="63.623047" xlink:href="#DejaVuSans-3a"/>
      <use x="97.314453" xlink:href="#DejaVuSans-20"/>
      <use x="129.101562" xlink:href="#DejaVuSans-64"/>
     </g>
    </g>
    <g clip-path="url(#p2a6591b87d)">
     <!--  -->
     <g transform="translate(501.818182 452.939028)scale(0.12 -0.12)"/>
    </g>
   </g>
   <g id="text_18">
    <g clip-path="url(#p2a6591b87d)">
     <!-- 0: a -->
     <defs>
      <path d="M 34.28125 27.484375 
Q 23.390625 27.484375 19.1875 25 
Q 14.984375 22.515625 14.984375 16.5 
Q 14.984375 11.71875 18.140625 8.90625 
Q 21.296875 6.109375 26.703125 6.109375 
Q 34.1875 6.109375 38.703125 11.40625 
Q 43.21875 16.703125 43.21875 25.484375 
L 43.21875 27.484375 
z
M 52.203125 31.203125 
L 52.203125 0 
L 43.21875 0 
L 43.21875 8.296875 
Q 40.140625 3.328125 35.546875 0.953125 
Q 30.953125 -1.421875 24.3125 -1.421875 
Q 15.921875 -1.421875 10.953125 3.296875 
Q 6 8.015625 6 15.921875 
Q 6 25.140625 12.171875 29.828125 
Q 18.359375 34.515625 30.609375 34.515625 
L 43.21875 34.515625 
L 43.21875 35.40625 
Q 43.21875 41.609375 39.140625 45 
Q 35.0625 48.390625 27.6875 48.390625 
Q 23 48.390625 18.546875 47.265625 
Q 14.109375 46.140625 10.015625 43.890625 
L 10.015625 52.203125 
Q 14.9375 54.109375 19.578125 55.046875 
Q 24.21875 56 28.609375 56 
Q 40.484375 56 46.34375 49.84375 
Q 52.203125 43.703125 52.203125 31.203125 
z
" id="DejaVuSans-61"/>
     </defs>
     <g transform="translate(54.032045 439.501653)scale(0.12 -0.12)">
      <use xlink:href="#DejaVuSans-30"/>
      <use x="63.623047" xlink:href="#DejaVuSans-3a"/>
      <use x="97.314453" xlink:href="#DejaVuSans-20"/>
      <use x="129.101562" xlink:href="#DejaVuSans-61"/>
     </g>
    </g>
    <g clip-path="url(#p2a6591b87d)">
     <!--  -->
     <g transform="translate(65.454545 452.939028)scale(0.12 -0.12)"/>
    </g>
   </g>
   <g id="text_19">
    <g clip-path="url(#p2a6591b87d)">
     <!-- 0: i -->
     <defs>
      <path d="M 9.421875 54.6875 
L 18.40625 54.6875 
L 18.40625 0 
L 9.421875 0 
z
M 9.421875 75.984375 
L 18.40625 75.984375 
L 18.40625 64.59375 
L 9.421875 64.59375 
z
" id="DejaVuSans-69"/>
     </defs>
     <g transform="translate(1219.678409 439.501653)scale(0.12 -0.12)">
      <use xlink:href="#DejaVuSans-30"/>
      <use x="63.623047" xlink:href="#DejaVuSans-3a"/>
      <use x="97.314453" xlink:href="#DejaVuSans-20"/>
      <use x="129.101562" xlink:href="#DejaVuSans-69"/>
     </g>
    </g>
    <g clip-path="url(#p2a6591b87d)">
     <!--  -->
     <g transform="translate(1229.090909 452.939028)scale(0.12 -0.12)"/>
    </g>
   </g>
   <g id="text_20">
    <g clip-path="url(#p2a6591b87d)">
     <!-- &gt;=2w2 -->
     <g transform="translate(1061.038864 286.774381)scale(0.12 -0.12)">
      <use xlink:href="#DejaVuSans-3e"/>
      <use x="83.789062" xlink:href="#DejaVuSans-3d"/>
      <use x="167.578125" xlink:href="#DejaVuSans-32"/>
      <use x="231.201172" xlink:href="#DejaVuSans-77"/>
      <use x="312.988281" xlink:href="#DejaVuSans-32"/>
     </g>
    </g>
    <g clip-path="url(#p2a6591b87d)">
     <!-- +1 -->
     <g transform="translate(1074.791051 300.211756)scale(0.12 -0.12)">
      <use xlink:href="#DejaVuSans-2b"/>
      <use x="83.789062" xlink:href="#DejaVuSans-31"/>
     </g>
    </g>
   </g>
   <g id="text_21">
    <g clip-path="url(#p2a6591b87d)">
     <!-- &lt;8w1 -->
     <defs>
      <path d="M 31.78125 34.625 
Q 24.75 34.625 20.71875 30.859375 
Q 16.703125 27.09375 16.703125 20.515625 
Q 16.703125 13.921875 20.71875 10.15625 
Q 24.75 6.390625 31.78125 6.390625 
Q 38.8125 6.390625 42.859375 10.171875 
Q 46.921875 13.96875 46.921875 20.515625 
Q 46.921875 27.09375 42.890625 30.859375 
Q 38.875 34.625 31.78125 34.625 
z
M 21.921875 38.8125 
Q 15.578125 40.375 12.03125 44.71875 
Q 8.5 49.078125 8.5 55.328125 
Q 8.5 64.0625 14.71875 69.140625 
Q 20.953125 74.21875 31.78125 74.21875 
Q 42.671875 74.21875 48.875 69.140625 
Q 55.078125 64.0625 55.078125 55.328125 
Q 55.078125 49.078125 51.53125 44.71875 
Q 48 40.375 41.703125 38.8125 
Q 48.828125 37.15625 52.796875 32.3125 
Q 56.78125 27.484375 56.78125 20.515625 
Q 56.78125 9.90625 50.3125 4.234375 
Q 43.84375 -1.421875 31.78125 -1.421875 
Q 19.734375 -1.421875 13.25 4.234375 
Q 6.78125 9.90625 6.78125 20.515625 
Q 6.78125 27.484375 10.78125 32.3125 
Q 14.796875 37.15625 21.921875 38.8125 
z
M 18.3125 54.390625 
Q 18.3125 48.734375 21.84375 45.5625 
Q 25.390625 42.390625 31.78125 42.390625 
Q 38.140625 42.390625 41.71875 45.5625 
Q 45.3125 48.734375 45.3125 54.390625 
Q 45.3125 60.0625 41.71875 63.234375 
Q 38.140625 66.40625 31.78125 66.40625 
Q 25.390625 66.40625 21.84375 63.234375 
Q 18.3125 60.0625 18.3125 54.390625 
z
" id="DejaVuSans-38"/>
     </defs>
     <g transform="translate(1356.975767 286.774381)scale(0.12 -0.12)">
      <use xlink:href="#DejaVuSans-3c"/>
      <use x="83.789062" xlink:href="#DejaVuSans-38"/>
      <use x="147.412109" xlink:href="#DejaVuSans-77"/>
      <use x="229.199219" xlink:href="#DejaVuSans-31"/>
     </g>
    </g>
    <g clip-path="url(#p2a6591b87d)">
     <!-- +7 -->
     <g transform="translate(1365.700142 300.211756)scale(0.12 -0.12)">
      <use xlink:href="#DejaVuSans-2b"/>
      <use x="83.789062" xlink:href="#DejaVuSans-37"/>
     </g>
    </g>
   </g>
   <g id="text_22">
    <g clip-path="url(#p2a6591b87d)">
     <!-- &lt;3w3 -->
     <g transform="translate(920.612131 286.774381)scale(0.12 -0.12)">
      <use xlink:href="#DejaVuSans-3c"/>
      <use x="83.789062" xlink:href="#DejaVuSans-33"/>
      <use x="147.412109" xlink:href="#DejaVuSans-77"/>
      <use x="229.199219" xlink:href="#DejaVuSans-33"/>
     </g>
    </g>
    <g clip-path="url(#p2a6591b87d)">
     <!-- +0 -->
     <g transform="translate(929.336506 300.211756)scale(0.12 -0.12)">
      <use xlink:href="#DejaVuSans-2b"/>
      <use x="83.789062" xlink:href="#DejaVuSans-30"/>
     </g>
    </g>
   </g>
   <g id="text_23">
    <g clip-path="url(#p2a6591b87d)">
     <!-- &gt;=4w1 -->
     <defs>
      <path d="M 37.796875 64.3125 
L 12.890625 25.390625 
L 37.796875 25.390625 
z
M 35.203125 72.90625 
L 47.609375 72.90625 
L 47.609375 25.390625 
L 58.015625 25.390625 
L 58.015625 17.1875 
L 47.609375 17.1875 
L 47.609375 0 
L 37.796875 0 
L 37.796875 17.1875 
L 4.890625 17.1875 
L 4.890625 26.703125 
z
" id="DejaVuSans-34"/>
     </defs>
     <g transform="translate(624.675227 363.138017)scale(0.12 -0.12)">
      <use xlink:href="#DejaVuSans-3e"/>
      <use x="83.789062" xlink:href="#DejaVuSans-3d"/>
      <use x="167.578125" xlink:href="#DejaVuSans-34"/>
      <use x="231.201172" xlink:href="#DejaVuSans-77"/>
      <use x="312.988281" xlink:href="#DejaVuSans-31"/>
     </g>
    </g>
    <g clip-path="url(#p2a6591b87d)">
     <!-- +3 -->
     <g transform="translate(638.427415 376.575392)scale(0.12 -0.12)">
      <use xlink:href="#DejaVuSans-2b"/>
      <use x="83.789062" xlink:href="#DejaVuSans-33"/>
     </g>
    </g>
   </g>
   <g id="text_24">
    <g clip-path="url(#p2a6591b87d)">
     <!-- &lt;1w1 -->
     <g transform="translate(193.339403 363.138017)scale(0.12 -0.12)">
      <use xlink:href="#DejaVuSans-3c"/>
      <use x="83.789062" xlink:href="#DejaVuSans-31"/>
      <use x="147.412109" xlink:href="#DejaVuSans-77"/>
      <use x="229.199219" xlink:href="#DejaVuSans-31"/>
     </g>
    </g>
    <g clip-path="url(#p2a6591b87d)">
     <!-- +0 -->
     <g transform="translate(202.063778 376.575392)scale(0.12 -0.12)">
      <use xlink:href="#DejaVuSans-2b"/>
      <use x="83.789062" xlink:href="#DejaVuSans-30"/>
     </g>
    </g>
   </g>
   <g id="text_25">
    <g clip-path="url(#p2a6591b87d)">
     <!-- 2: f -->
     <defs>
      <path d="M 37.109375 75.984375 
L 37.109375 68.5 
L 28.515625 68.5 
Q 23.6875 68.5 21.796875 66.546875 
Q 19.921875 64.59375 19.921875 59.515625 
L 19.921875 54.6875 
L 34.71875 54.6875 
L 34.71875 47.703125 
L 19.921875 47.703125 
L 19.921875 0 
L 10.890625 0 
L 10.890625 47.703125 
L 2.296875 47.703125 
L 2.296875 54.6875 
L 10.890625 54.6875 
L 10.890625 58.5 
Q 10.890625 67.625 15.140625 71.796875 
Q 19.390625 75.984375 28.609375 75.984375 
z
" id="DejaVuSans-66"/>
     </defs>
     <g transform="translate(782.86946 439.501653)scale(0.12 -0.12)">
      <use xlink:href="#DejaVuSans-32"/>
      <use x="63.623047" xlink:href="#DejaVuSans-3a"/>
      <use x="97.314453" xlink:href="#DejaVuSans-20"/>
      <use x="129.101562" xlink:href="#DejaVuSans-66"/>
     </g>
    </g>
    <g clip-path="url(#p2a6591b87d)">
     <!--  -->
     <g transform="translate(792.727273 452.939028)scale(0.12 -0.12)"/>
    </g>
   </g>
   <g id="text_26">
    <g clip-path="url(#p2a6591b87d)">
     <!-- &gt;=4w4 -->
     <g transform="translate(1061.038864 210.410744)scale(0.12 -0.12)">
      <use xlink:href="#DejaVuSans-3e"/>
      <use x="83.789062" xlink:href="#DejaVuSans-3d"/>
      <use x="167.578125" xlink:href="#DejaVuSans-34"/>
      <use x="231.201172" xlink:href="#DejaVuSans-77"/>
      <use x="312.988281" xlink:href="#DejaVuSans-34"/>
     </g>
    </g>
    <g clip-path="url(#p2a6591b87d)">
     <!-- +1 -->
     <g transform="translate(1074.791051 223.848119)scale(0.12 -0.12)">
      <use xlink:href="#DejaVuSans-2b"/>
      <use x="83.789062" xlink:href="#DejaVuSans-31"/>
     </g>
    </g>
   </g>
   <g id="text_27">
    <g clip-path="url(#p2a6591b87d)">
     <!-- &gt;=10w2 -->
     <g transform="translate(1348.130455 210.410744)scale(0.12 -0.12)">
      <use xlink:href="#DejaVuSans-3e"/>
      <use x="83.789062" xlink:href="#DejaVuSans-3d"/>
      <use x="167.578125" xlink:href="#DejaVuSans-31"/>
      <use x="231.201172" xlink:href="#DejaVuSans-30"/>
      <use x="294.824219" xlink:href="#DejaVuSans-77"/>
      <use x="376.611328" xlink:href="#DejaVuSans-32"/>
     </g>
    </g>
    <g clip-path="url(#p2a6591b87d)">
     <!-- +7 -->
     <g transform="translate(1365.700142 223.848119)scale(0.12 -0.12)">
      <use xlink:href="#DejaVuSans-2b"/>
      <use x="83.789062" xlink:href="#DejaVuSans-37"/>
     </g>
    </g>
   </g>
   <g id="text_28">
    <g clip-path="url(#p2a6591b87d)">
     <!-- &gt;=4w3 -->
     <g transform="translate(915.584318 363.138017)scale(0.12 -0.12)">
      <use xlink:href="#DejaVuSans-3e"/>
      <use x="83.789062" xlink:href="#DejaVuSans-3d"/>
      <use x="167.578125" xlink:href="#DejaVuSans-34"/>
      <use x="231.201172" xlink:href="#DejaVuSans-77"/>
      <use x="312.988281" xlink:href="#DejaVuSans-33"/>
     </g>
    </g>
    <g clip-path="url(#p2a6591b87d)">
     <!-- +3 -->
     <g transform="translate(929.336506 376.575392)scale(0.12 -0.12)">
      <use xlink:href="#DejaVuSans-2b"/>
      <use x="83.789062" xlink:href="#DejaVuSans-33"/>
     </g>
    </g>
   </g>
   <g id="text_29">
    <g clip-path="url(#p2a6591b87d)">
     <!-- &gt;=1w1 -->
     <g transform="translate(479.220682 363.138017)scale(0.12 -0.12)">
      <use xlink:href="#DejaVuSans-3e"/>
      <use x="83.789062" xlink:href="#DejaVuSans-3d"/>
      <use x="167.578125" xlink:href="#DejaVuSans-31"/>
      <use x="231.201172" xlink:href="#DejaVuSans-77"/>
      <use x="312.988281" xlink:href="#DejaVuSans-31"/>
     </g>
    </g>
    <g clip-path="url(#p2a6591b87d)">
     <!-- +1 -->
     <g transform="translate(492.972869 376.575392)scale(0.12 -0.12)">
      <use xlink:href="#DejaVuSans-2b"/>
      <use x="83.789062" xlink:href="#DejaVuSans-31"/>
     </g>
    </g>
   </g>
   <g id="text_30">
    <g clip-path="url(#p2a6591b87d)">
     <!-- &gt;=2w1 -->
     <g transform="translate(333.766136 286.774381)scale(0.12 -0.12)">
      <use xlink:href="#DejaVuSans-3e"/>
      <use x="83.789062" xlink:href="#DejaVuSans-3d"/>
      <use x="167.578125" xlink:href="#DejaVuSans-32"/>
      <use x="231.201172" xlink:href="#DejaVuSans-77"/>
      <use x="312.988281" xlink:href="#DejaVuSans-31"/>
     </g>
    </g>
    <g clip-path="url(#p2a6591b87d)">
     <!-- +1 -->
     <g transform="translate(347.518324 300.211756)scale(0.12 -0.12)">
      <use xlink:href="#DejaVuSans-2b"/>
      <use x="83.789062" xlink:href="#DejaVuSans-31"/>
     </g>
    </g>
   </g>
   <g id="text_31">
    <g clip-path="url(#p2a6591b87d)">
     <!-- 3: e -->
     <defs>
      <path d="M 56.203125 29.59375 
L 56.203125 25.203125 
L 14.890625 25.203125 
Q 15.484375 15.921875 20.484375 11.0625 
Q 25.484375 6.203125 34.421875 6.203125 
Q 39.59375 6.203125 44.453125 7.46875 
Q 49.3125 8.734375 54.109375 11.28125 
L 54.109375 2.78125 
Q 49.265625 0.734375 44.1875 -0.34375 
Q 39.109375 -1.421875 33.890625 -1.421875 
Q 20.796875 -1.421875 13.15625 6.1875 
Q 5.515625 13.8125 5.515625 26.8125 
Q 5.515625 40.234375 12.765625 48.109375 
Q 20.015625 56 32.328125 56 
Q 43.359375 56 49.78125 48.890625 
Q 56.203125 41.796875 56.203125 29.59375 
z
M 47.21875 32.234375 
Q 47.125 39.59375 43.09375 43.984375 
Q 39.0625 48.390625 32.421875 48.390625 
Q 24.90625 48.390625 20.390625 44.140625 
Q 15.875 39.890625 15.1875 32.171875 
z
" id="DejaVuSans-65"/>
     </defs>
     <g transform="translate(635.835227 439.501653)scale(0.12 -0.12)">
      <use xlink:href="#DejaVuSans-33"/>
      <use x="63.623047" xlink:href="#DejaVuSans-3a"/>
      <use x="97.314453" xlink:href="#DejaVuSans-20"/>
      <use x="129.101562" xlink:href="#DejaVuSans-65"/>
     </g>
    </g>
    <g clip-path="url(#p2a6591b87d)">
     <!--  -->
     <g transform="translate(647.272727 452.939028)scale(0.12 -0.12)"/>
    </g>
   </g>
   <g id="text_32">
    <g clip-path="url(#p2a6591b87d)">
     <!-- 9: j -->
     <defs>
      <path d="M 9.421875 54.6875 
L 18.40625 54.6875 
L 18.40625 -0.984375 
Q 18.40625 -11.421875 14.421875 -16.109375 
Q 10.453125 -20.796875 1.609375 -20.796875 
L -1.8125 -20.796875 
L -1.8125 -13.1875 
L 0.59375 -13.1875 
Q 5.71875 -13.1875 7.5625 -10.8125 
Q 9.421875 -8.453125 9.421875 -0.984375 
z
M 9.421875 75.984375 
L 18.40625 75.984375 
L 18.40625 64.59375 
L 9.421875 64.59375 
z
" id="DejaVuSans-6a"/>
     </defs>
     <g transform="translate(1365.132955 439.501653)scale(0.12 -0.12)">
      <use xlink:href="#DejaVuSans-39"/>
      <use x="63.623047" xlink:href="#DejaVuSans-3a"/>
      <use x="97.314453" xlink:href="#DejaVuSans-20"/>
      <use x="129.101562" xlink:href="#DejaVuSans-6a"/>
     </g>
    </g>
    <g clip-path="url(#p2a6591b87d)">
     <!--  -->
     <g transform="translate(1374.545455 452.939028)scale(0.12 -0.12)"/>
    </g>
   </g>
   <g id="text_33">
    <g clip-path="url(#p2a6591b87d)">
     <!-- &lt;2w1 -->
     <g transform="translate(775.157585 363.138017)scale(0.12 -0.12)">
      <use xlink:href="#DejaVuSans-3c"/>
      <use x="83.789062" xlink:href="#DejaVuSans-32"/>
      <use x="147.412109" xlink:href="#DejaVuSans-77"/>
      <use x="229.199219" xlink:href="#DejaVuSans-31"/>
     </g>
    </g>
    <g clip-path="url(#p2a6591b87d)">
     <!-- +1 -->
     <g transform="translate(783.88196 376.575392)scale(0.12 -0.12)">
      <use xlink:href="#DejaVuSans-2b"/>
      <use x="83.789062" xlink:href="#DejaVuSans-31"/>
     </g>
    </g>
   </g>
  </g>
 </g>
 <defs>
  <clipPath id="p2a6591b87d">
   <rect height="504" width="1440" x="0" y="0"/>
  </clipPath>
 </defs>
</svg>
