<?xml version="1.0" encoding="utf-8" standalone="no"?>
<!DOCTYPE svg PUBLIC "-//W3C//DTD SVG 1.1//EN"
  "http://www.w3.org/Graphics/SVG/1.1/DTD/svg11.dtd">
<!-- Created with matplotlib (https://matplotlib.org/) -->
<svg height="504pt" version="1.1" viewBox="0 0 1152 504" width="1152pt" xmlns="http://www.w3.org/2000/svg" xmlns:xlink="http://www.w3.org/1999/xlink">
 <defs>
  <style type="text/css">
*{stroke-linecap:butt;stroke-linejoin:round;}
  </style>
 </defs>
 <g id="figure_1">
  <g id="patch_1">
   <path d="M 0 504 
L 1152 504 
L 1152 0 
L 0 0 
z
" style="fill:#ffffff;"/>
  </g>
  <g id="axes_1">
   <g id="patch_2">
    <path clip-path="url(#pff1f3395db)" d="M 680.727273 188.363636 
Q 589.693359 188.363636 500.895514 188.363636 
" style="fill:none;stroke:#000000;stroke-linecap:round;stroke-width:2;"/>
    <path clip-path="url(#pff1f3395db)" d="M 504.895514 190.363636 
L 500.895514 188.363636 
L 504.895514 186.363636 
L 504.895514 190.363636 
z
" style="stroke:#000000;stroke-linecap:round;stroke-width:2;"/>
   </g>
   <g id="patch_3">
    <path clip-path="url(#pff1f3395db)" d="M 680.727273 188.363636 
Q 680.727273 238.306763 680.727273 286.013821 
" style="fill:none;stroke:#000000;stroke-linecap:round;stroke-width:2;"/>
    <path clip-path="url(#pff1f3395db)" d="M 682.727273 282.013821 
L 680.727273 286.013821 
L 678.727273 282.013821 
L 682.727273 282.013821 
z
" style="stroke:#000000;stroke-linecap:round;stroke-width:2;"/>
   </g>
   <g id="patch_4">
    <path clip-path="url(#pff1f3395db)" d="M 1099.636364 315.636364 
Q 1006.611328 372.161993 915.497235 427.526459 
" style="fill:none;stroke:#000000;stroke-linecap:round;stroke-width:2;"/>
    <path clip-path="url(#pff1f3395db)" d="M 919.954208 427.158507 
L 915.497235 427.526459 
L 917.877057 423.740109 
L 919.954208 427.158507 
z
" style="stroke:#000000;stroke-linecap:round;stroke-width:2;"/>
   </g>
   <g id="patch_5">
    <path clip-path="url(#pff1f3395db)" d="M 1099.636364 315.636364 
Q 1099.636364 365.57949 1099.636364 413.286548 
" style="fill:none;stroke:#000000;stroke-linecap:round;stroke-width:2;"/>
    <path clip-path="url(#pff1f3395db)" d="M 1101.636364 409.286548 
L 1099.636364 413.286548 
L 1097.636364 409.286548 
L 1101.636364 409.286548 
z
" style="stroke:#000000;stroke-linecap:round;stroke-width:2;"/>
   </g>
   <g id="patch_6">
    <path clip-path="url(#pff1f3395db)" d="M 680.727273 315.636364 
Q 680.727273 365.57949 680.727273 413.286548 
" style="fill:none;stroke:#000000;stroke-linecap:round;stroke-width:2;"/>
    <path clip-path="url(#pff1f3395db)" d="M 682.727273 409.286548 
L 680.727273 413.286548 
L 678.727273 409.286548 
L 682.727273 409.286548 
z
" style="stroke:#000000;stroke-linecap:round;stroke-width:2;"/>
   </g>
   <g id="patch_7">
    <path clip-path="url(#pff1f3395db)" d="M 680.727273 315.636364 
Q 379.966353 376.554374 81.396999 437.028491 
" style="fill:none;stroke:#000000;stroke-linecap:round;stroke-width:2;"/>
    <path clip-path="url(#pff1f3395db)" d="M 85.71442 438.194626 
L 81.396999 437.028491 
L 84.920359 434.274235 
L 85.71442 438.194626 
z
" style="stroke:#000000;stroke-linecap:round;stroke-width:2;"/>
   </g>
   <g id="patch_8">
    <path clip-path="url(#pff1f3395db)" d="M 471.272727 315.636364 
Q 274.920277 375.292056 80.707329 434.297726 
" style="fill:none;stroke:#000000;stroke-linecap:round;stroke-width:2;"/>
    <path clip-path="url(#pff1f3395db)" d="M 85.115985 435.04856 
L 80.707329 434.297726 
L 83.95319 431.221301 
L 85.115985 435.04856 
z
" style="stroke:#000000;stroke-linecap:round;stroke-width:2;"/>
   </g>
   <g id="patch_9">
    <path clip-path="url(#pff1f3395db)" d="M 471.272727 315.636364 
Q 471.272727 365.57949 471.272727 413.286548 
" style="fill:none;stroke:#000000;stroke-linecap:round;stroke-width:2;"/>
    <path clip-path="url(#pff1f3395db)" d="M 473.272727 409.286548 
L 471.272727 413.286548 
L 469.272727 409.286548 
L 473.272727 409.286548 
z
" style="stroke:#000000;stroke-linecap:round;stroke-width:2;"/>
   </g>
   <g id="patch_10">
    <path clip-path="url(#pff1f3395db)" d="M 471.272727 188.363636 
Q 375.245827 305.062994 280.63972 420.035693 
" style="fill:none;stroke:#000000;stroke-linecap:round;stroke-width:2;"/>
    <path clip-path="url(#pff1f3395db)" d="M 284.725682 418.217749 
L 280.63972 420.035693 
L 281.636942 415.676158 
L 284.725682 418.217749 
z
" style="stroke:#000000;stroke-linecap:round;stroke-width:2;"/>
   </g>
   <g id="patch_11">
    <path clip-path="url(#pff1f3395db)" d="M 471.272727 188.363636 
Q 471.272727 238.306763 471.272727 286.013821 
" style="fill:none;stroke:#000000;stroke-linecap:round;stroke-width:2;"/>
    <path clip-path="url(#pff1f3395db)" d="M 473.272727 282.013821 
L 471.272727 286.013821 
L 469.272727 282.013821 
L 473.272727 282.013821 
z
" style="stroke:#000000;stroke-linecap:round;stroke-width:2;"/>
   </g>
   <g id="patch_12">
    <path clip-path="url(#pff1f3395db)" d="M 1099.636364 61.090909 
Q 798.875444 122.008919 500.306089 182.483036 
" style="fill:none;stroke:#000000;stroke-linecap:round;stroke-width:2;"/>
    <path clip-path="url(#pff1f3395db)" d="M 504.623511 183.649171 
L 500.306089 182.483036 
L 503.82945 179.72878 
L 504.623511 183.649171 
z
" style="stroke:#000000;stroke-linecap:round;stroke-width:2;"/>
   </g>
   <g id="patch_13">
    <path clip-path="url(#pff1f3395db)" d="M 1099.636364 61.090909 
Q 1099.636364 111.034035 1099.636364 158.741094 
" style="fill:none;stroke:#000000;stroke-linecap:round;stroke-width:2;"/>
    <path clip-path="url(#pff1f3395db)" d="M 1101.636364 154.741094 
L 1099.636364 158.741094 
L 1097.636364 154.741094 
L 1101.636364 154.741094 
z
" style="stroke:#000000;stroke-linecap:round;stroke-width:2;"/>
   </g>
   <g id="patch_14">
    <path clip-path="url(#pff1f3395db)" d="M 1099.636364 188.363636 
Q 903.283913 248.019329 709.070966 307.024999 
" style="fill:none;stroke:#000000;stroke-linecap:round;stroke-width:2;"/>
    <path clip-path="url(#pff1f3395db)" d="M 713.479622 307.775832 
L 709.070966 307.024999 
L 712.316826 303.948574 
L 713.479622 307.775832 
z
" style="stroke:#000000;stroke-linecap:round;stroke-width:2;"/>
   </g>
   <g id="patch_15">
    <path clip-path="url(#pff1f3395db)" d="M 1099.636364 188.363636 
Q 1099.636364 238.306763 1099.636364 286.013821 
" style="fill:none;stroke:#000000;stroke-linecap:round;stroke-width:2;"/>
    <path clip-path="url(#pff1f3395db)" d="M 1101.636364 282.013821 
L 1099.636364 286.013821 
L 1097.636364 282.013821 
L 1101.636364 282.013821 
z
" style="stroke:#000000;stroke-linecap:round;stroke-width:2;"/>
   </g>
   <g id="patch_16">
    <path clip-path="url(#pff1f3395db)" d="M 261.818182 315.636364 
Q 168.793146 372.161993 77.679053 427.526459 
" style="fill:none;stroke:#000000;stroke-linecap:round;stroke-width:2;"/>
    <path clip-path="url(#pff1f3395db)" d="M 82.136026 427.158507 
L 77.679053 427.526459 
L 80.058875 423.740109 
L 82.136026 427.158507 
z
" style="stroke:#000000;stroke-linecap:round;stroke-width:2;"/>
   </g>
   <g id="patch_17">
    <path clip-path="url(#pff1f3395db)" d="M 261.818182 315.636364 
Q 261.818182 365.57949 261.818182 413.286548 
" style="fill:none;stroke:#000000;stroke-linecap:round;stroke-width:2;"/>
    <path clip-path="url(#pff1f3395db)" d="M 263.818182 409.286548 
L 261.818182 413.286548 
L 259.818182 409.286548 
L 263.818182 409.286548 
z
" style="stroke:#000000;stroke-linecap:round;stroke-width:2;"/>
   </g>
   <g id="patch_18">
    <path clip-path="url(#pff1f3395db)" d="M 890.181818 315.636364 
Q 890.181818 365.57949 890.181818 413.286548 
" style="fill:none;stroke:#000000;stroke-linecap:round;stroke-width:2;"/>
    <path clip-path="url(#pff1f3395db)" d="M 892.181818 409.286548 
L 890.181818 413.286548 
L 888.181818 409.286548 
L 892.181818 409.286548 
z
" style="stroke:#000000;stroke-linecap:round;stroke-width:2;"/>
   </g>
   <g id="patch_19">
    <path clip-path="url(#pff1f3395db)" d="M 890.181818 315.636364 
Q 799.147905 315.636364 710.350059 315.636364 
" style="fill:none;stroke:#000000;stroke-linecap:round;stroke-width:2;"/>
    <path clip-path="url(#pff1f3395db)" d="M 714.350059 317.636364 
L 710.350059 315.636364 
L 714.350059 313.636364 
L 714.350059 317.636364 
z
" style="stroke:#000000;stroke-linecap:round;stroke-width:2;"/>
   </g>
   <g id="patch_20">
    <path clip-path="url(#pff1f3395db)" d="M 890.181818 188.363636 
Q 694.420632 188.363636 500.895514 188.363636 
" style="fill:none;stroke:#000000;stroke-linecap:round;stroke-width:2;"/>
    <path clip-path="url(#pff1f3395db)" d="M 504.895514 190.363636 
L 500.895514 188.363636 
L 504.895514 186.363636 
L 504.895514 190.363636 
z
" style="stroke:#000000;stroke-linecap:round;stroke-width:2;"/>
   </g>
   <g id="patch_21">
    <path clip-path="url(#pff1f3395db)" d="M 890.181818 188.363636 
Q 890.181818 238.306763 890.181818 286.013821 
" style="fill:none;stroke:#000000;stroke-linecap:round;stroke-width:2;"/>
    <path clip-path="url(#pff1f3395db)" d="M 892.181818 282.013821 
L 890.181818 286.013821 
L 888.181818 282.013821 
L 892.181818 282.013821 
z
" style="stroke:#000000;stroke-linecap:round;stroke-width:2;"/>
   </g>
   <g id="PathCollection_1">
    <defs>
     <path d="M 0 27.386128 
C 7.262886 27.386128 14.229281 24.500553 19.364917 19.364917 
C 24.500553 14.229281 27.386128 7.262886 27.386128 0 
C 27.386128 -7.262886 24.500553 -14.229281 19.364917 -19.364917 
C 14.229281 -24.500553 7.262886 -27.386128 0 -27.386128 
C -7.262886 -27.386128 -14.229281 -24.500553 -19.364917 -19.364917 
C -24.500553 -14.229281 -27.386128 -7.262886 -27.386128 0 
C -27.386128 7.262886 -24.500553 14.229281 -19.364917 19.364917 
C -14.229281 24.500553 -7.262886 27.386128 0 27.386128 
z
" id="m5d57f58b19" style="stroke:#000000;stroke-width:2;"/>
    </defs>
    <g clip-path="url(#pff1f3395db)">
     <use style="fill:#ffffff;stroke:#000000;stroke-width:2;" x="680.727273" xlink:href="#m5d57f58b19" y="442.909091"/>
     <use style="fill:#ffffff;stroke:#000000;stroke-width:2;" x="52.363636" xlink:href="#m5d57f58b19" y="442.909091"/>
     <use style="fill:#ffffff;stroke:#000000;stroke-width:2;" x="680.727273" xlink:href="#m5d57f58b19" y="188.363636"/>
     <use style="fill:#ffffff;stroke:#000000;stroke-width:2;" x="1099.636364" xlink:href="#m5d57f58b19" y="315.636364"/>
     <use style="fill:#ffffff;stroke:#000000;stroke-width:2;" x="680.727273" xlink:href="#m5d57f58b19" y="315.636364"/>
     <use style="fill:#ffffff;stroke:#000000;stroke-width:2;" x="471.272727" xlink:href="#m5d57f58b19" y="315.636364"/>
     <use style="fill:#ffffff;stroke:#000000;stroke-width:2;" x="471.272727" xlink:href="#m5d57f58b19" y="188.363636"/>
     <use style="fill:#ffffff;stroke:#000000;stroke-width:2;" x="1099.636364" xlink:href="#m5d57f58b19" y="61.090909"/>
     <use style="fill:#ffffff;stroke:#000000;stroke-width:2;" x="471.272727" xlink:href="#m5d57f58b19" y="442.909091"/>
     <use style="fill:#ffffff;stroke:#000000;stroke-width:2;" x="1099.636364" xlink:href="#m5d57f58b19" y="188.363636"/>
     <use style="fill:#ffffff;stroke:#000000;stroke-width:2;" x="890.181818" xlink:href="#m5d57f58b19" y="442.909091"/>
     <use style="fill:#ffffff;stroke:#000000;stroke-width:2;" x="261.818182" xlink:href="#m5d57f58b19" y="315.636364"/>
     <use style="fill:#ffffff;stroke:#000000;stroke-width:2;" x="1099.636364" xlink:href="#m5d57f58b19" y="442.909091"/>
     <use style="fill:#ffffff;stroke:#000000;stroke-width:2;" x="890.181818" xlink:href="#m5d57f58b19" y="315.636364"/>
     <use style="fill:#ffffff;stroke:#000000;stroke-width:2;" x="261.818182" xlink:href="#m5d57f58b19" y="442.909091"/>
     <use style="fill:#ffffff;stroke:#000000;stroke-width:2;" x="890.181818" xlink:href="#m5d57f58b19" y="188.363636"/>
    </g>
   </g>
   <g id="text_1">
    <g clip-path="url(#pff1f3395db)">
     <!-- 2: l -->
     <defs>
      <path d="M 19.1875 8.296875 
L 53.609375 8.296875 
L 53.609375 0 
L 7.328125 0 
L 7.328125 8.296875 
Q 12.9375 14.109375 22.625 23.890625 
Q 32.328125 33.6875 34.8125 36.53125 
Q 39.546875 41.84375 41.421875 45.53125 
Q 43.3125 49.21875 43.3125 52.78125 
Q 43.3125 58.59375 39.234375 62.25 
Q 35.15625 65.921875 28.609375 65.921875 
Q 23.96875 65.921875 18.8125 64.3125 
Q 13.671875 62.703125 7.8125 59.421875 
L 7.8125 69.390625 
Q 13.765625 71.78125 18.9375 73 
Q 24.125 74.21875 28.421875 74.21875 
Q 39.75 74.21875 46.484375 68.546875 
Q 53.21875 62.890625 53.21875 53.421875 
Q 53.21875 48.921875 51.53125 44.890625 
Q 49.859375 40.875 45.40625 35.40625 
Q 44.1875 33.984375 37.640625 27.21875 
Q 31.109375 20.453125 19.1875 8.296875 
z
" id="DejaVuSans-50"/>
      <path d="M 11.71875 12.40625 
L 22.015625 12.40625 
L 22.015625 0 
L 11.71875 0 
z
M 11.71875 51.703125 
L 22.015625 51.703125 
L 22.015625 39.3125 
L 11.71875 39.3125 
z
" id="DejaVuSans-58"/>
      <path id="DejaVuSans-32"/>
      <path d="M 9.421875 75.984375 
L 18.40625 75.984375 
L 18.40625 0 
L 9.421875 0 
z
" id="DejaVuSans-108"/>
     </defs>
     <g transform="translate(671.314773 446.220341)scale(0.12 -0.12)">
      <use xlink:href="#DejaVuSans-50"/>
      <use x="63.623047" xlink:href="#DejaVuSans-58"/>
      <use x="97.314453" xlink:href="#DejaVuSans-32"/>
      <use x="129.101562" xlink:href="#DejaVuSans-108"/>
     </g>
    </g>
   </g>
   <g id="text_2">
    <g clip-path="url(#pff1f3395db)">
     <!-- 3: l -->
     <defs>
      <path d="M 40.578125 39.3125 
Q 47.65625 37.796875 51.625 33 
Q 55.609375 28.21875 55.609375 21.1875 
Q 55.609375 10.40625 48.1875 4.484375 
Q 40.765625 -1.421875 27.09375 -1.421875 
Q 22.515625 -1.421875 17.65625 -0.515625 
Q 12.796875 0.390625 7.625 2.203125 
L 7.625 11.71875 
Q 11.71875 9.328125 16.59375 8.109375 
Q 21.484375 6.890625 26.8125 6.890625 
Q 36.078125 6.890625 40.9375 10.546875 
Q 45.796875 14.203125 45.796875 21.1875 
Q 45.796875 27.640625 41.28125 31.265625 
Q 36.765625 34.90625 28.71875 34.90625 
L 20.21875 34.90625 
L 20.21875 43.015625 
L 29.109375 43.015625 
Q 36.375 43.015625 40.234375 45.921875 
Q 44.09375 48.828125 44.09375 54.296875 
Q 44.09375 59.90625 40.109375 62.90625 
Q 36.140625 65.921875 28.71875 65.921875 
Q 24.65625 65.921875 20.015625 65.03125 
Q 15.375 64.15625 9.8125 62.3125 
L 9.8125 71.09375 
Q 15.4375 72.65625 20.34375 73.4375 
Q 25.25 74.21875 29.59375 74.21875 
Q 40.828125 74.21875 47.359375 69.109375 
Q 53.90625 64.015625 53.90625 55.328125 
Q 53.90625 49.265625 50.4375 45.09375 
Q 46.96875 40.921875 40.578125 39.3125 
z
" id="DejaVuSans-51"/>
     </defs>
     <g transform="translate(42.951136 446.220341)scale(0.12 -0.12)">
      <use xlink:href="#DejaVuSans-51"/>
      <use x="63.623047" xlink:href="#DejaVuSans-58"/>
      <use x="97.314453" xlink:href="#DejaVuSans-32"/>
      <use x="129.101562" xlink:href="#DejaVuSans-108"/>
     </g>
    </g>
   </g>
   <g id="text_3">
    <g clip-path="url(#pff1f3395db)">
     <!-- ≥4 -->
     <defs>
      <path d="M 10.59375 49.609375 
L 10.59375 58.203125 
L 73.1875 40.28125 
L 73.1875 31.984375 
L 10.59375 14.015625 
L 10.59375 22.703125 
L 57.515625 36.078125 
z
M 73.1875 8.296875 
L 73.1875 0 
L 10.59375 0 
L 10.59375 8.296875 
z
" id="DejaVuSans-8805"/>
      <path d="M 37.796875 64.3125 
L 12.890625 25.390625 
L 37.796875 25.390625 
z
M 35.203125 72.90625 
L 47.609375 72.90625 
L 47.609375 25.390625 
L 58.015625 25.390625 
L 58.015625 17.1875 
L 47.609375 17.1875 
L 47.609375 0 
L 37.796875 0 
L 37.796875 17.1875 
L 4.890625 17.1875 
L 4.890625 26.703125 
z
" id="DejaVuSans-52"/>
     </defs>
     <g transform="translate(671.88196 191.674886)scale(0.12 -0.12)">
      <use xlink:href="#DejaVuSans-8805"/>
      <use x="83.789062" xlink:href="#DejaVuSans-52"/>
     </g>
    </g>
   </g>
   <g id="text_4">
    <g clip-path="url(#pff1f3395db)">
     <!-- &lt;1 -->
     <defs>
      <path d="M 73.1875 49.21875 
L 22.796875 31.296875 
L 73.1875 13.484375 
L 73.1875 4.59375 
L 10.59375 27.296875 
L 10.59375 35.40625 
L 73.1875 58.109375 
z
" id="DejaVuSans-60"/>
      <path d="M 12.40625 8.296875 
L 28.515625 8.296875 
L 28.515625 63.921875 
L 10.984375 60.40625 
L 10.984375 69.390625 
L 28.421875 72.90625 
L 38.28125 72.90625 
L 38.28125 8.296875 
L 54.390625 8.296875 
L 54.390625 0 
L 12.40625 0 
z
" id="DejaVuSans-49"/>
     </defs>
     <g transform="translate(1090.791051 318.947614)scale(0.12 -0.12)">
      <use xlink:href="#DejaVuSans-60"/>
      <use x="83.789062" xlink:href="#DejaVuSans-49"/>
     </g>
    </g>
   </g>
   <g id="text_5">
    <g clip-path="url(#pff1f3395db)">
     <!-- ≥3 -->
     <g transform="translate(671.88196 318.947614)scale(0.12 -0.12)">
      <use xlink:href="#DejaVuSans-8805"/>
      <use x="83.789062" xlink:href="#DejaVuSans-51"/>
     </g>
    </g>
   </g>
   <g id="text_6">
    <g clip-path="url(#pff1f3395db)">
     <!-- &lt;4 -->
     <g transform="translate(462.427415 318.947614)scale(0.12 -0.12)">
      <use xlink:href="#DejaVuSans-60"/>
      <use x="83.789062" xlink:href="#DejaVuSans-52"/>
     </g>
    </g>
   </g>
   <g id="text_7">
    <g clip-path="url(#pff1f3395db)">
     <!-- ≥5 -->
     <defs>
      <path d="M 10.796875 72.90625 
L 49.515625 72.90625 
L 49.515625 64.59375 
L 19.828125 64.59375 
L 19.828125 46.734375 
Q 21.96875 47.46875 24.109375 47.828125 
Q 26.265625 48.1875 28.421875 48.1875 
Q 40.625 48.1875 47.75 41.5 
Q 54.890625 34.8125 54.890625 23.390625 
Q 54.890625 11.625 47.5625 5.09375 
Q 40.234375 -1.421875 26.90625 -1.421875 
Q 22.3125 -1.421875 17.546875 -0.640625 
Q 12.796875 0.140625 7.71875 1.703125 
L 7.71875 11.625 
Q 12.109375 9.234375 16.796875 8.0625 
Q 21.484375 6.890625 26.703125 6.890625 
Q 35.15625 6.890625 40.078125 11.328125 
Q 45.015625 15.765625 45.015625 23.390625 
Q 45.015625 31 40.078125 35.4375 
Q 35.15625 39.890625 26.703125 39.890625 
Q 22.75 39.890625 18.8125 39.015625 
Q 14.890625 38.140625 10.796875 36.28125 
z
" id="DejaVuSans-53"/>
     </defs>
     <g transform="translate(462.427415 191.674886)scale(0.12 -0.12)">
      <use xlink:href="#DejaVuSans-8805"/>
      <use x="83.789062" xlink:href="#DejaVuSans-53"/>
     </g>
    </g>
   </g>
   <g id="text_8">
    <g clip-path="url(#pff1f3395db)">
     <!-- ≥4 -->
     <g transform="translate(1090.791051 64.402159)scale(0.12 -0.12)">
      <use xlink:href="#DejaVuSans-8805"/>
      <use x="83.789062" xlink:href="#DejaVuSans-52"/>
     </g>
    </g>
   </g>
   <g id="text_9">
    <g clip-path="url(#pff1f3395db)">
     <!-- 4: o -->
     <defs>
      <path d="M 30.609375 48.390625 
Q 23.390625 48.390625 19.1875 42.75 
Q 14.984375 37.109375 14.984375 27.296875 
Q 14.984375 17.484375 19.15625 11.84375 
Q 23.34375 6.203125 30.609375 6.203125 
Q 37.796875 6.203125 41.984375 11.859375 
Q 46.1875 17.53125 46.1875 27.296875 
Q 46.1875 37.015625 41.984375 42.703125 
Q 37.796875 48.390625 30.609375 48.390625 
z
M 30.609375 56 
Q 42.328125 56 49.015625 48.375 
Q 55.71875 40.765625 55.71875 27.296875 
Q 55.71875 13.875 49.015625 6.21875 
Q 42.328125 -1.421875 30.609375 -1.421875 
Q 18.84375 -1.421875 12.171875 6.21875 
Q 5.515625 13.875 5.515625 27.296875 
Q 5.515625 40.765625 12.171875 48.375 
Q 18.84375 56 30.609375 56 
z
" id="DejaVuSans-111"/>
     </defs>
     <g transform="translate(459.855852 446.220341)scale(0.12 -0.12)">
      <use xlink:href="#DejaVuSans-52"/>
      <use x="63.623047" xlink:href="#DejaVuSans-58"/>
      <use x="97.314453" xlink:href="#DejaVuSans-32"/>
      <use x="129.101562" xlink:href="#DejaVuSans-111"/>
     </g>
    </g>
   </g>
   <g id="text_10">
    <g clip-path="url(#pff1f3395db)">
     <!-- ≥2 -->
     <g transform="translate(1090.791051 191.674886)scale(0.12 -0.12)">
      <use xlink:href="#DejaVuSans-8805"/>
      <use x="83.789062" xlink:href="#DejaVuSans-50"/>
     </g>
    </g>
   </g>
   <g id="text_11">
    <g clip-path="url(#pff1f3395db)">
     <!-- 0: h -->
     <defs>
      <path d="M 31.78125 66.40625 
Q 24.171875 66.40625 20.328125 58.90625 
Q 16.5 51.421875 16.5 36.375 
Q 16.5 21.390625 20.328125 13.890625 
Q 24.171875 6.390625 31.78125 6.390625 
Q 39.453125 6.390625 43.28125 13.890625 
Q 47.125 21.390625 47.125 36.375 
Q 47.125 51.421875 43.28125 58.90625 
Q 39.453125 66.40625 31.78125 66.40625 
z
M 31.78125 74.21875 
Q 44.046875 74.21875 50.515625 64.515625 
Q 56.984375 54.828125 56.984375 36.375 
Q 56.984375 17.96875 50.515625 8.265625 
Q 44.046875 -1.421875 31.78125 -1.421875 
Q 19.53125 -1.421875 13.0625 8.265625 
Q 6.59375 17.96875 6.59375 36.375 
Q 6.59375 54.828125 13.0625 64.515625 
Q 19.53125 74.21875 31.78125 74.21875 
z
" id="DejaVuSans-48"/>
      <path d="M 54.890625 33.015625 
L 54.890625 0 
L 45.90625 0 
L 45.90625 32.71875 
Q 45.90625 40.484375 42.875 44.328125 
Q 39.84375 48.1875 33.796875 48.1875 
Q 26.515625 48.1875 22.3125 43.546875 
Q 18.109375 38.921875 18.109375 30.90625 
L 18.109375 0 
L 9.078125 0 
L 9.078125 75.984375 
L 18.109375 75.984375 
L 18.109375 46.1875 
Q 21.34375 51.125 25.703125 53.5625 
Q 30.078125 56 35.796875 56 
Q 45.21875 56 50.046875 50.171875 
Q 54.890625 44.34375 54.890625 33.015625 
z
" id="DejaVuSans-104"/>
     </defs>
     <g transform="translate(878.633693 446.220341)scale(0.12 -0.12)">
      <use xlink:href="#DejaVuSans-48"/>
      <use x="63.623047" xlink:href="#DejaVuSans-58"/>
      <use x="97.314453" xlink:href="#DejaVuSans-32"/>
      <use x="129.101562" xlink:href="#DejaVuSans-104"/>
     </g>
    </g>
   </g>
   <g id="text_12">
    <g clip-path="url(#pff1f3395db)">
     <!-- &lt;5 -->
     <g transform="translate(252.972869 318.947614)scale(0.12 -0.12)">
      <use xlink:href="#DejaVuSans-60"/>
      <use x="83.789062" xlink:href="#DejaVuSans-53"/>
     </g>
    </g>
   </g>
   <g id="text_13">
    <g clip-path="url(#pff1f3395db)">
     <!-- 1: e -->
     <defs>
      <path d="M 56.203125 29.59375 
L 56.203125 25.203125 
L 14.890625 25.203125 
Q 15.484375 15.921875 20.484375 11.0625 
Q 25.484375 6.203125 34.421875 6.203125 
Q 39.59375 6.203125 44.453125 7.46875 
Q 49.3125 8.734375 54.109375 11.28125 
L 54.109375 2.78125 
Q 49.265625 0.734375 44.1875 -0.34375 
Q 39.109375 -1.421875 33.890625 -1.421875 
Q 20.796875 -1.421875 13.15625 6.1875 
Q 5.515625 13.8125 5.515625 26.8125 
Q 5.515625 40.234375 12.765625 48.109375 
Q 20.015625 56 32.328125 56 
Q 43.359375 56 49.78125 48.890625 
Q 56.203125 41.796875 56.203125 29.59375 
z
M 47.21875 32.234375 
Q 47.125 39.59375 43.09375 43.984375 
Q 39.0625 48.390625 32.421875 48.390625 
Q 24.90625 48.390625 20.390625 44.140625 
Q 15.875 39.890625 15.1875 32.171875 
z
" id="DejaVuSans-101"/>
     </defs>
     <g transform="translate(1088.198864 446.220341)scale(0.12 -0.12)">
      <use xlink:href="#DejaVuSans-49"/>
      <use x="63.623047" xlink:href="#DejaVuSans-58"/>
      <use x="97.314453" xlink:href="#DejaVuSans-32"/>
      <use x="129.101562" xlink:href="#DejaVuSans-101"/>
     </g>
    </g>
   </g>
   <g id="text_14">
    <g clip-path="url(#pff1f3395db)">
     <!-- ≥2 -->
     <g transform="translate(881.336506 318.947614)scale(0.12 -0.12)">
      <use xlink:href="#DejaVuSans-8805"/>
      <use x="83.789062" xlink:href="#DejaVuSans-50"/>
     </g>
    </g>
   </g>
   <g id="text_15">
    <g clip-path="url(#pff1f3395db)">
     <!-- 5: ! -->
     <defs>
      <path d="M 15.09375 12.40625 
L 25 12.40625 
L 25 0 
L 15.09375 0 
z
M 15.09375 72.90625 
L 25 72.90625 
L 25 40.921875 
L 24.03125 23.484375 
L 16.109375 23.484375 
L 15.09375 40.921875 
z
" id="DejaVuSans-33"/>
     </defs>
     <g transform="translate(251.666932 446.220341)scale(0.12 -0.12)">
      <use xlink:href="#DejaVuSans-53"/>
      <use x="63.623047" xlink:href="#DejaVuSans-58"/>
      <use x="97.314453" xlink:href="#DejaVuSans-32"/>
      <use x="129.101562" xlink:href="#DejaVuSans-33"/>
     </g>
    </g>
   </g>
   <g id="text_16">
    <g clip-path="url(#pff1f3395db)">
     <!-- ≥4 -->
     <g transform="translate(881.336506 191.674886)scale(0.12 -0.12)">
      <use xlink:href="#DejaVuSans-8805"/>
      <use x="83.789062" xlink:href="#DejaVuSans-52"/>
     </g>
    </g>
   </g>
  </g>
 </g>
 <defs>
  <clipPath id="pff1f3395db">
   <rect height="504" width="1152" x="0" y="0"/>
  </clipPath>
 </defs>
</svg>
