<?xml version="1.0" encoding="utf-8" standalone="no"?>
<!DOCTYPE svg PUBLIC "-//W3C//DTD SVG 1.1//EN"
  "http://www.w3.org/Graphics/SVG/1.1/DTD/svg11.dtd">
<!-- Created with matplotlib (https://matplotlib.org/) -->
<svg height="504pt" version="1.1" viewBox="0 0 1368 504" width="1368pt" xmlns="http://www.w3.org/2000/svg" xmlns:xlink="http://www.w3.org/1999/xlink">
 <defs>
  <style type="text/css">
*{stroke-linecap:butt;stroke-linejoin:round;}
  </style>
 </defs>
 <g id="figure_1">
  <g id="patch_1">
   <path d="M 0 504 
L 1368 504 
L 1368 0 
L 0 0 
z
" style="fill:#ffffff;"/>
  </g>
  <g id="axes_1">
   <g id="patch_2">
    <path clip-path="url(#pf02eab0150)" d="M 1150.363636 156.545455 
Q 929.853892 246.812601 711.413541 336.232628 
" style="fill:none;stroke:#000000;stroke-linecap:round;stroke-width:2;"/>
    <path clip-path="url(#pf02eab0150)" d="M 715.873071 336.568175 
L 711.413541 336.232628 
L 714.357697 332.866332 
L 715.873071 336.568175 
z
" style="stroke:#000000;stroke-linecap:round;stroke-width:2;"/>
   </g>
   <g id="patch_3">
    <path clip-path="url(#pf02eab0150)" d="M 1150.363636 156.545455 
Q 1150.363636 190.579975 1150.363636 222.378428 
" style="fill:none;stroke:#000000;stroke-linecap:round;stroke-width:2;"/>
    <path clip-path="url(#pf02eab0150)" d="M 1152.363636 218.378428 
L 1150.363636 222.378428 
L 1148.363636 218.378428 
L 1152.363636 218.378428 
z
" style="stroke:#000000;stroke-linecap:round;stroke-width:2;"/>
   </g>
   <g id="patch_4">
    <path clip-path="url(#pf02eab0150)" d="M 528.545455 252 
Q 464.512016 252 402.714645 252 
" style="fill:none;stroke:#c44e52;stroke-linecap:round;stroke-width:2;"/>
    <path clip-path="url(#pf02eab0150)" d="M 406.714645 254 
L 402.714645 252 
L 406.714645 250 
L 406.714645 254 
z
" style="fill:#c44e52;stroke:#c44e52;stroke-linecap:round;stroke-width:2;"/>
   </g>
   <g id="patch_5">
    <path clip-path="url(#pf02eab0150)" d="M 528.545455 252 
Q 528.545455 286.034521 528.545455 317.832974 
" style="fill:none;stroke:#c44e52;stroke-linecap:round;stroke-width:2;"/>
    <path clip-path="url(#pf02eab0150)" d="M 530.545455 313.832974 
L 528.545455 317.832974 
L 526.545455 313.832974 
L 530.545455 313.832974 
z
" style="fill:#c44e52;stroke:#c44e52;stroke-linecap:round;stroke-width:2;"/>
   </g>
   <g id="patch_6">
    <path clip-path="url(#pf02eab0150)" d="M 1150.363636 347.454545 
Q 1150.363636 381.489066 1150.363636 413.287519 
" style="fill:none;stroke:#000000;stroke-linecap:round;stroke-width:2;"/>
    <path clip-path="url(#pf02eab0150)" d="M 1152.363636 409.287519 
L 1150.363636 413.287519 
L 1148.363636 409.287519 
L 1152.363636 409.287519 
z
" style="stroke:#000000;stroke-linecap:round;stroke-width:2;"/>
   </g>
   <g id="patch_7">
    <path clip-path="url(#pf02eab0150)" d="M 1150.363636 347.454545 
Q 697.622079 393.787746 247.104972 439.893298 
" style="fill:none;stroke:#000000;stroke-linecap:round;stroke-width:2;"/>
    <path clip-path="url(#pf02eab0150)" d="M 251.287803 441.475676 
L 247.104972 439.893298 
L 250.880574 437.49646 
L 251.287803 441.475676 
z
" style="stroke:#000000;stroke-linecap:round;stroke-width:2;"/>
   </g>
   <g id="patch_8">
    <path clip-path="url(#pf02eab0150)" d="M 1305.818182 156.545455 
Q 1305.818182 190.579975 1305.818182 222.378428 
" style="fill:none;stroke:#000000;stroke-linecap:round;stroke-width:2;"/>
    <path clip-path="url(#pf02eab0150)" d="M 1307.818182 218.378428 
L 1305.818182 222.378428 
L 1303.818182 218.378428 
L 1307.818182 218.378428 
z
" style="stroke:#000000;stroke-linecap:round;stroke-width:2;"/>
   </g>
   <g id="patch_9">
    <path clip-path="url(#pf02eab0150)" d="M 1305.818182 156.545455 
Q 1241.784743 156.545455 1179.987372 156.545455 
" style="fill:none;stroke:#c44e52;stroke-linecap:round;stroke-width:2;"/>
    <path clip-path="url(#pf02eab0150)" d="M 1183.987372 158.545455 
L 1179.987372 156.545455 
L 1183.987372 154.545455 
L 1183.987372 158.545455 
z
" style="fill:#c44e52;stroke:#c44e52;stroke-linecap:round;stroke-width:2;"/>
   </g>
   <g id="patch_10">
    <path clip-path="url(#pf02eab0150)" d="M 994.909091 61.090909 
Q 994.909091 95.12543 994.909091 126.923883 
" style="fill:none;stroke:#c44e52;stroke-linecap:round;stroke-width:2;"/>
    <path clip-path="url(#pf02eab0150)" d="M 996.909091 122.923883 
L 994.909091 126.923883 
L 992.909091 122.923883 
L 996.909091 122.923883 
z
" style="fill:#c44e52;stroke:#c44e52;stroke-linecap:round;stroke-width:2;"/>
   </g>
   <g id="patch_11">
    <path clip-path="url(#pf02eab0150)" d="M 994.909091 61.090909 
Q 773.39597 197.107737 553.788363 331.954514 
" style="fill:none;stroke:#000000;stroke-linecap:round;stroke-width:2;"/>
    <path clip-path="url(#pf02eab0150)" d="M 558.243574 331.565804 
L 553.788363 331.954514 
L 556.150522 328.15712 
L 558.243574 331.565804 
z
" style="stroke:#000000;stroke-linecap:round;stroke-width:2;"/>
   </g>
   <g id="patch_12">
    <path clip-path="url(#pf02eab0150)" d="M 373.090909 347.454545 
Q 307.032927 388.016464 242.880458 427.408331 
" style="fill:none;stroke:#000000;stroke-linecap:round;stroke-width:2;"/>
    <path clip-path="url(#pf02eab0150)" d="M 247.335669 427.019622 
L 242.880458 427.408331 
L 245.242617 423.610937 
L 247.335669 427.019622 
z
" style="stroke:#000000;stroke-linecap:round;stroke-width:2;"/>
   </g>
   <g id="patch_13">
    <path clip-path="url(#pf02eab0150)" d="M 373.090909 347.454545 
Q 373.090909 381.489066 373.090909 413.287519 
" style="fill:none;stroke:#000000;stroke-linecap:round;stroke-width:2;"/>
    <path clip-path="url(#pf02eab0150)" d="M 375.090909 409.287519 
L 373.090909 413.287519 
L 371.090909 409.287519 
L 375.090909 409.287519 
z
" style="stroke:#000000;stroke-linecap:round;stroke-width:2;"/>
   </g>
   <g id="patch_14">
    <path clip-path="url(#pf02eab0150)" d="M 994.909091 252 
Q 994.909091 286.034521 994.909091 317.832974 
" style="fill:none;stroke:#c44e52;stroke-linecap:round;stroke-width:2;"/>
    <path clip-path="url(#pf02eab0150)" d="M 996.909091 313.832974 
L 994.909091 317.832974 
L 992.909091 313.832974 
L 996.909091 313.832974 
z
" style="fill:#c44e52;stroke:#c44e52;stroke-linecap:round;stroke-width:2;"/>
   </g>
   <g id="patch_15">
    <path clip-path="url(#pf02eab0150)" d="M 994.909091 252 
Q 925.82912 336.835052 858.161061 419.936178 
" style="fill:none;stroke:#000000;stroke-linecap:round;stroke-width:2;"/>
    <path clip-path="url(#pf02eab0150)" d="M 862.237638 418.097287 
L 858.161061 419.936178 
L 859.135894 415.571582 
L 862.237638 418.097287 
z
" style="stroke:#000000;stroke-linecap:round;stroke-width:2;"/>
   </g>
   <g id="patch_16">
    <path clip-path="url(#pf02eab0150)" d="M 684 347.454545 
Q 386.623444 393.104455 91.457065 438.415084 
" style="fill:none;stroke:#000000;stroke-linecap:round;stroke-width:2;"/>
    <path clip-path="url(#pf02eab0150)" d="M 95.714215 439.785002 
L 91.457065 438.415084 
L 95.10729 435.831314 
L 95.714215 439.785002 
z
" style="stroke:#000000;stroke-linecap:round;stroke-width:2;"/>
   </g>
   <g id="patch_17">
    <path clip-path="url(#pf02eab0150)" d="M 684 347.454545 
Q 684 381.489066 684 413.287519 
" style="fill:none;stroke:#000000;stroke-linecap:round;stroke-width:2;"/>
    <path clip-path="url(#pf02eab0150)" d="M 686 409.287519 
L 684 413.287519 
L 682 409.287519 
L 686 409.287519 
z
" style="stroke:#000000;stroke-linecap:round;stroke-width:2;"/>
   </g>
   <g id="patch_18">
    <path clip-path="url(#pf02eab0150)" d="M 839.454545 252 
Q 773.396563 292.561919 709.244094 331.953786 
" style="fill:none;stroke:#c44e52;stroke-linecap:round;stroke-width:2;"/>
    <path clip-path="url(#pf02eab0150)" d="M 713.699305 331.565076 
L 709.244094 331.953786 
L 711.606253 328.156391 
L 713.699305 331.565076 
z
" style="fill:#c44e52;stroke:#c44e52;stroke-linecap:round;stroke-width:2;"/>
   </g>
   <g id="patch_19">
    <path clip-path="url(#pf02eab0150)" d="M 839.454545 252 
Q 839.454545 286.034521 839.454545 317.832974 
" style="fill:none;stroke:#c44e52;stroke-linecap:round;stroke-width:2;"/>
    <path clip-path="url(#pf02eab0150)" d="M 841.454545 313.832974 
L 839.454545 317.832974 
L 837.454545 313.832974 
L 841.454545 313.832974 
z
" style="fill:#c44e52;stroke:#c44e52;stroke-linecap:round;stroke-width:2;"/>
   </g>
   <g id="patch_20">
    <path clip-path="url(#pf02eab0150)" d="M 217.636364 347.454545 
Q 151.578382 388.016464 87.425912 427.408331 
" style="fill:none;stroke:#000000;stroke-linecap:round;stroke-width:2;"/>
    <path clip-path="url(#pf02eab0150)" d="M 91.881123 427.019622 
L 87.425912 427.408331 
L 89.788071 423.610937 
L 91.881123 427.019622 
z
" style="stroke:#000000;stroke-linecap:round;stroke-width:2;"/>
   </g>
   <g id="patch_21">
    <path clip-path="url(#pf02eab0150)" d="M 217.636364 347.454545 
Q 217.636364 381.489066 217.636364 413.287519 
" style="fill:none;stroke:#000000;stroke-linecap:round;stroke-width:2;"/>
    <path clip-path="url(#pf02eab0150)" d="M 219.636364 409.287519 
L 217.636364 413.287519 
L 215.636364 409.287519 
L 219.636364 409.287519 
z
" style="stroke:#000000;stroke-linecap:round;stroke-width:2;"/>
   </g>
   <g id="patch_22">
    <path clip-path="url(#pf02eab0150)" d="M 1150.363636 252 
Q 1150.363636 286.034521 1150.363636 317.832974 
" style="fill:none;stroke:#c44e52;stroke-linecap:round;stroke-width:2;"/>
    <path clip-path="url(#pf02eab0150)" d="M 1152.363636 313.832974 
L 1150.363636 317.832974 
L 1148.363636 313.832974 
L 1152.363636 313.832974 
z
" style="fill:#c44e52;stroke:#c44e52;stroke-linecap:round;stroke-width:2;"/>
   </g>
   <g id="patch_23">
    <path clip-path="url(#pf02eab0150)" d="M 1150.363636 252 
Q 1086.330197 252 1024.532826 252 
" style="fill:none;stroke:#c44e52;stroke-linecap:round;stroke-width:2;"/>
    <path clip-path="url(#pf02eab0150)" d="M 1028.532826 254 
L 1024.532826 252 
L 1028.532826 250 
L 1028.532826 254 
z
" style="fill:#c44e52;stroke:#c44e52;stroke-linecap:round;stroke-width:2;"/>
   </g>
   <g id="patch_24">
    <path clip-path="url(#pf02eab0150)" d="M 1150.363636 61.090909 
Q 851.89238 198.544777 555.452164 335.063298 
" style="fill:none;stroke:#000000;stroke-linecap:round;stroke-width:2;"/>
    <path clip-path="url(#pf02eab0150)" d="M 559.921999 335.206715 
L 555.452164 335.063298 
L 558.248799 331.57348 
L 559.921999 335.206715 
z
" style="stroke:#000000;stroke-linecap:round;stroke-width:2;"/>
   </g>
   <g id="patch_25">
    <path clip-path="url(#pf02eab0150)" d="M 1150.363636 61.090909 
Q 1150.363636 95.12543 1150.363636 126.923883 
" style="fill:none;stroke:#c44e52;stroke-linecap:round;stroke-width:2;"/>
    <path clip-path="url(#pf02eab0150)" d="M 1152.363636 122.923883 
L 1150.363636 126.923883 
L 1148.363636 122.923883 
L 1152.363636 122.923883 
z
" style="fill:#c44e52;stroke:#c44e52;stroke-linecap:round;stroke-width:2;"/>
   </g>
   <g id="patch_26">
    <path clip-path="url(#pf02eab0150)" d="M 1305.818182 252 
Q 1305.818182 286.034521 1305.818182 317.832974 
" style="fill:none;stroke:#c44e52;stroke-linecap:round;stroke-width:2;"/>
    <path clip-path="url(#pf02eab0150)" d="M 1307.818182 313.832974 
L 1305.818182 317.832974 
L 1303.818182 313.832974 
L 1307.818182 313.832974 
z
" style="fill:#c44e52;stroke:#c44e52;stroke-linecap:round;stroke-width:2;"/>
   </g>
   <g id="patch_27">
    <path clip-path="url(#pf02eab0150)" d="M 1305.818182 252 
Q 852.870257 344.70864 402.112983 436.9689 
" style="fill:none;stroke:#000000;stroke-linecap:round;stroke-width:2;"/>
    <path clip-path="url(#pf02eab0150)" d="M 406.432783 438.126194 
L 402.112983 436.9689 
L 405.630698 434.207437 
L 406.432783 438.126194 
z
" style="stroke:#000000;stroke-linecap:round;stroke-width:2;"/>
   </g>
   <g id="patch_28">
    <path clip-path="url(#pf02eab0150)" d="M 684 252 
Q 684 286.034521 684 317.832974 
" style="fill:none;stroke:#c44e52;stroke-linecap:round;stroke-width:2;"/>
    <path clip-path="url(#pf02eab0150)" d="M 686 313.832974 
L 684 317.832974 
L 682 313.832974 
L 686 313.832974 
z
" style="fill:#c44e52;stroke:#c44e52;stroke-linecap:round;stroke-width:2;"/>
   </g>
   <g id="patch_29">
    <path clip-path="url(#pf02eab0150)" d="M 684 252 
Q 541.636788 295.708004 401.411168 338.759729 
" style="fill:none;stroke:#000000;stroke-linecap:round;stroke-width:2;"/>
    <path clip-path="url(#pf02eab0150)" d="M 405.822002 339.497663 
L 401.411168 338.759729 
L 404.648016 335.673823 
L 405.822002 339.497663 
z
" style="stroke:#000000;stroke-linecap:round;stroke-width:2;"/>
   </g>
   <g id="patch_30">
    <path clip-path="url(#pf02eab0150)" d="M 994.909091 156.545455 
Q 851.123836 244.834646 709.244094 331.953786 
" style="fill:none;stroke:#000000;stroke-linecap:round;stroke-width:2;"/>
    <path clip-path="url(#pf02eab0150)" d="M 713.699305 331.565076 
L 709.244094 331.953786 
L 711.606253 328.156391 
L 713.699305 331.565076 
z
" style="stroke:#000000;stroke-linecap:round;stroke-width:2;"/>
   </g>
   <g id="patch_31">
    <path clip-path="url(#pf02eab0150)" d="M 994.909091 156.545455 
Q 994.909091 190.579975 994.909091 222.378428 
" style="fill:none;stroke:#000000;stroke-linecap:round;stroke-width:2;"/>
    <path clip-path="url(#pf02eab0150)" d="M 996.909091 218.378428 
L 994.909091 222.378428 
L 992.909091 218.378428 
L 996.909091 218.378428 
z
" style="stroke:#000000;stroke-linecap:round;stroke-width:2;"/>
   </g>
   <g id="patch_32">
    <path clip-path="url(#pf02eab0150)" d="M 528.545455 347.454545 
Q 528.545455 381.489066 528.545455 413.287519 
" style="fill:none;stroke:#000000;stroke-linecap:round;stroke-width:2;"/>
    <path clip-path="url(#pf02eab0150)" d="M 530.545455 409.287519 
L 528.545455 413.287519 
L 526.545455 409.287519 
L 530.545455 409.287519 
z
" style="stroke:#000000;stroke-linecap:round;stroke-width:2;"/>
   </g>
   <g id="patch_33">
    <path clip-path="url(#pf02eab0150)" d="M 528.545455 347.454545 
Q 462.487473 388.016464 398.335003 427.408331 
" style="fill:none;stroke:#000000;stroke-linecap:round;stroke-width:2;"/>
    <path clip-path="url(#pf02eab0150)" d="M 402.790214 427.019622 
L 398.335003 427.408331 
L 400.697162 423.610937 
L 402.790214 427.019622 
z
" style="stroke:#000000;stroke-linecap:round;stroke-width:2;"/>
   </g>
   <g id="patch_34">
    <path clip-path="url(#pf02eab0150)" d="M 1305.818182 347.454545 
Q 1305.818182 381.489066 1305.818182 413.287519 
" style="fill:none;stroke:#000000;stroke-linecap:round;stroke-width:2;"/>
    <path clip-path="url(#pf02eab0150)" d="M 1307.818182 409.287519 
L 1305.818182 413.287519 
L 1303.818182 409.287519 
L 1307.818182 409.287519 
z
" style="stroke:#000000;stroke-linecap:round;stroke-width:2;"/>
   </g>
   <g id="patch_35">
    <path clip-path="url(#pf02eab0150)" d="M 1305.818182 347.454545 
Q 930.772171 393.512827 557.945556 439.298552 
" style="fill:none;stroke:#000000;stroke-linecap:round;stroke-width:2;"/>
    <path clip-path="url(#pf02eab0150)" d="M 562.159512 440.796074 
L 557.945556 439.298552 
L 561.671947 436.8259 
L 562.159512 440.796074 
z
" style="stroke:#000000;stroke-linecap:round;stroke-width:2;"/>
   </g>
   <g id="patch_36">
    <path clip-path="url(#pf02eab0150)" d="M 994.909091 347.454545 
Q 994.909091 381.489066 994.909091 413.287519 
" style="fill:none;stroke:#000000;stroke-linecap:round;stroke-width:2;"/>
    <path clip-path="url(#pf02eab0150)" d="M 996.909091 409.287519 
L 994.909091 413.287519 
L 992.909091 409.287519 
L 996.909091 409.287519 
z
" style="stroke:#000000;stroke-linecap:round;stroke-width:2;"/>
   </g>
   <g id="patch_37">
    <path clip-path="url(#pf02eab0150)" d="M 994.909091 347.454545 
Q 619.86308 393.512827 247.036465 439.298552 
" style="fill:none;stroke:#000000;stroke-linecap:round;stroke-width:2;"/>
    <path clip-path="url(#pf02eab0150)" d="M 251.250421 440.796074 
L 247.036465 439.298552 
L 250.762856 436.8259 
L 251.250421 440.796074 
z
" style="stroke:#000000;stroke-linecap:round;stroke-width:2;"/>
   </g>
   <g id="patch_38">
    <path clip-path="url(#pf02eab0150)" d="M 373.090909 252 
Q 229.305654 340.289192 87.425912 427.408331 
" style="fill:none;stroke:#000000;stroke-linecap:round;stroke-width:2;"/>
    <path clip-path="url(#pf02eab0150)" d="M 91.881123 427.019622 
L 87.425912 427.408331 
L 89.788071 423.610937 
L 91.881123 427.019622 
z
" style="stroke:#000000;stroke-linecap:round;stroke-width:2;"/>
   </g>
   <g id="patch_39">
    <path clip-path="url(#pf02eab0150)" d="M 373.090909 252 
Q 373.090909 286.034521 373.090909 317.832974 
" style="fill:none;stroke:#c44e52;stroke-linecap:round;stroke-width:2;"/>
    <path clip-path="url(#pf02eab0150)" d="M 375.090909 313.832974 
L 373.090909 317.832974 
L 371.090909 313.832974 
L 375.090909 313.832974 
z
" style="fill:#c44e52;stroke:#c44e52;stroke-linecap:round;stroke-width:2;"/>
   </g>
   <g id="patch_40">
    <path clip-path="url(#pf02eab0150)" d="M 839.454545 156.545455 
Q 839.454545 190.579975 839.454545 222.378428 
" style="fill:none;stroke:#000000;stroke-linecap:round;stroke-width:2;"/>
    <path clip-path="url(#pf02eab0150)" d="M 841.454545 218.378428 
L 839.454545 222.378428 
L 837.454545 218.378428 
L 841.454545 218.378428 
z
" style="stroke:#000000;stroke-linecap:round;stroke-width:2;"/>
   </g>
   <g id="patch_41">
    <path clip-path="url(#pf02eab0150)" d="M 839.454545 156.545455 
Q 695.669291 244.834646 553.789549 331.953786 
" style="fill:none;stroke:#000000;stroke-linecap:round;stroke-width:2;"/>
    <path clip-path="url(#pf02eab0150)" d="M 558.24476 331.565076 
L 553.789549 331.953786 
L 556.151708 328.156391 
L 558.24476 331.565076 
z
" style="stroke:#000000;stroke-linecap:round;stroke-width:2;"/>
   </g>
   <g id="patch_42">
    <path clip-path="url(#pf02eab0150)" d="M 684 156.545455 
Q 614.920029 241.380507 547.25197 324.481632 
" style="fill:none;stroke:#000000;stroke-linecap:round;stroke-width:2;"/>
    <path clip-path="url(#pf02eab0150)" d="M 551.328547 322.642741 
L 547.25197 324.481632 
L 548.226803 320.117036 
L 551.328547 322.642741 
z
" style="stroke:#000000;stroke-linecap:round;stroke-width:2;"/>
   </g>
   <g id="patch_43">
    <path clip-path="url(#pf02eab0150)" d="M 684 156.545455 
Q 684 190.579975 684 222.378428 
" style="fill:none;stroke:#000000;stroke-linecap:round;stroke-width:2;"/>
    <path clip-path="url(#pf02eab0150)" d="M 686 218.378428 
L 684 222.378428 
L 682 218.378428 
L 686 218.378428 
z
" style="stroke:#000000;stroke-linecap:round;stroke-width:2;"/>
   </g>
   <g id="patch_44">
    <path clip-path="url(#pf02eab0150)" d="M 839.454545 347.454545 
Q 542.077989 393.104455 246.911611 438.415084 
" style="fill:none;stroke:#000000;stroke-linecap:round;stroke-width:2;"/>
    <path clip-path="url(#pf02eab0150)" d="M 251.168761 439.785002 
L 246.911611 438.415084 
L 250.561835 435.831314 
L 251.168761 439.785002 
z
" style="stroke:#000000;stroke-linecap:round;stroke-width:2;"/>
   </g>
   <g id="patch_45">
    <path clip-path="url(#pf02eab0150)" d="M 839.454545 347.454545 
Q 839.454545 381.489066 839.454545 413.287519 
" style="fill:none;stroke:#000000;stroke-linecap:round;stroke-width:2;"/>
    <path clip-path="url(#pf02eab0150)" d="M 841.454545 409.287519 
L 839.454545 413.287519 
L 837.454545 409.287519 
L 841.454545 409.287519 
z
" style="stroke:#000000;stroke-linecap:round;stroke-width:2;"/>
   </g>
   <g id="PathCollection_1">
    <defs>
     <path d="M 0 27.386128 
C 7.262886 27.386128 14.229281 24.500553 19.364917 19.364917 
C 24.500553 14.229281 27.386128 7.262886 27.386128 0 
C 27.386128 -7.262886 24.500553 -14.229281 19.364917 -19.364917 
C 14.229281 -24.500553 7.262886 -27.386128 0 -27.386128 
C -7.262886 -27.386128 -14.229281 -24.500553 -19.364917 -19.364917 
C -24.500553 -14.229281 -27.386128 -7.262886 -27.386128 0 
C -27.386128 7.262886 -24.500553 14.229281 -19.364917 19.364917 
C -14.229281 24.500553 -7.262886 27.386128 0 27.386128 
z
" id="m24c0507181" style="stroke:#000000;stroke-width:2;"/>
    </defs>
    <g clip-path="url(#pf02eab0150)">
     <use style="fill:#ffffff;stroke:#000000;stroke-width:2;" x="994.909091" xlink:href="#m24c0507181" y="442.909091"/>
     <use style="fill:#ffffff;stroke:#000000;stroke-width:2;" x="528.545455" xlink:href="#m24c0507181" y="442.909091"/>
     <use style="fill:#ffffff;stroke:#000000;stroke-width:2;" x="62.181818" xlink:href="#m24c0507181" y="442.909091"/>
     <use style="fill:#ffffff;stroke:#000000;stroke-width:2;" x="684" xlink:href="#m24c0507181" y="442.909091"/>
     <use style="fill:#ffffff;stroke:#000000;stroke-width:2;" x="1150.363636" xlink:href="#m24c0507181" y="156.545455"/>
     <use style="fill:#ffffff;stroke:#000000;stroke-width:2;" x="528.545455" xlink:href="#m24c0507181" y="252"/>
     <use style="fill:#ffffff;stroke:#000000;stroke-width:2;" x="1150.363636" xlink:href="#m24c0507181" y="347.454545"/>
     <use style="fill:#ffffff;stroke:#000000;stroke-width:2;" x="1305.818182" xlink:href="#m24c0507181" y="156.545455"/>
     <use style="fill:#ffffff;stroke:#000000;stroke-width:2;" x="994.909091" xlink:href="#m24c0507181" y="61.090909"/>
     <use style="fill:#ffffff;stroke:#000000;stroke-width:2;" x="373.090909" xlink:href="#m24c0507181" y="347.454545"/>
     <use style="fill:#ffffff;stroke:#000000;stroke-width:2;" x="994.909091" xlink:href="#m24c0507181" y="252"/>
     <use style="fill:#ffffff;stroke:#000000;stroke-width:2;" x="684" xlink:href="#m24c0507181" y="347.454545"/>
     <use style="fill:#ffffff;stroke:#000000;stroke-width:2;" x="839.454545" xlink:href="#m24c0507181" y="252"/>
     <use style="fill:#ffffff;stroke:#000000;stroke-width:2;" x="217.636364" xlink:href="#m24c0507181" y="347.454545"/>
     <use style="fill:#ffffff;stroke:#000000;stroke-width:2;" x="1150.363636" xlink:href="#m24c0507181" y="252"/>
     <use style="fill:#ffffff;stroke:#000000;stroke-width:2;" x="839.454545" xlink:href="#m24c0507181" y="442.909091"/>
     <use style="fill:#ffffff;stroke:#000000;stroke-width:2;" x="1150.363636" xlink:href="#m24c0507181" y="442.909091"/>
     <use style="fill:#ffffff;stroke:#000000;stroke-width:2;" x="1305.818182" xlink:href="#m24c0507181" y="442.909091"/>
     <use style="fill:#ffffff;stroke:#000000;stroke-width:2;" x="1150.363636" xlink:href="#m24c0507181" y="61.090909"/>
     <use style="fill:#ffffff;stroke:#000000;stroke-width:2;" x="1305.818182" xlink:href="#m24c0507181" y="252"/>
     <use style="fill:#ffffff;stroke:#000000;stroke-width:2;" x="684" xlink:href="#m24c0507181" y="252"/>
     <use style="fill:#ffffff;stroke:#000000;stroke-width:2;" x="994.909091" xlink:href="#m24c0507181" y="156.545455"/>
     <use style="fill:#ffffff;stroke:#000000;stroke-width:2;" x="528.545455" xlink:href="#m24c0507181" y="347.454545"/>
     <use style="fill:#ffffff;stroke:#000000;stroke-width:2;" x="1305.818182" xlink:href="#m24c0507181" y="347.454545"/>
     <use style="fill:#ffffff;stroke:#000000;stroke-width:2;" x="994.909091" xlink:href="#m24c0507181" y="347.454545"/>
     <use style="fill:#ffffff;stroke:#000000;stroke-width:2;" x="373.090909" xlink:href="#m24c0507181" y="252"/>
     <use style="fill:#ffffff;stroke:#000000;stroke-width:2;" x="839.454545" xlink:href="#m24c0507181" y="156.545455"/>
     <use style="fill:#ffffff;stroke:#000000;stroke-width:2;" x="373.090909" xlink:href="#m24c0507181" y="442.909091"/>
     <use style="fill:#ffffff;stroke:#000000;stroke-width:2;" x="684" xlink:href="#m24c0507181" y="156.545455"/>
     <use style="fill:#ffffff;stroke:#000000;stroke-width:2;" x="839.454545" xlink:href="#m24c0507181" y="347.454545"/>
     <use style="fill:#ffffff;stroke:#000000;stroke-width:2;" x="217.636364" xlink:href="#m24c0507181" y="442.909091"/>
    </g>
   </g>
   <g id="text_1">
    <g clip-path="url(#pf02eab0150)">
     <!-- 4: g -->
     <defs>
      <path d="M 37.796875 64.3125 
L 12.890625 25.390625 
L 37.796875 25.390625 
z
M 35.203125 72.90625 
L 47.609375 72.90625 
L 47.609375 25.390625 
L 58.015625 25.390625 
L 58.015625 17.1875 
L 47.609375 17.1875 
L 47.609375 0 
L 37.796875 0 
L 37.796875 17.1875 
L 4.890625 17.1875 
L 4.890625 26.703125 
z
" id="DejaVuSans-52"/>
      <path d="M 11.71875 12.40625 
L 22.015625 12.40625 
L 22.015625 0 
L 11.71875 0 
z
M 11.71875 51.703125 
L 22.015625 51.703125 
L 22.015625 39.3125 
L 11.71875 39.3125 
z
" id="DejaVuSans-58"/>
      <path id="DejaVuSans-32"/>
      <path d="M 45.40625 27.984375 
Q 45.40625 37.75 41.375 43.109375 
Q 37.359375 48.484375 30.078125 48.484375 
Q 22.859375 48.484375 18.828125 43.109375 
Q 14.796875 37.75 14.796875 27.984375 
Q 14.796875 18.265625 18.828125 12.890625 
Q 22.859375 7.515625 30.078125 7.515625 
Q 37.359375 7.515625 41.375 12.890625 
Q 45.40625 18.265625 45.40625 27.984375 
z
M 54.390625 6.78125 
Q 54.390625 -7.171875 48.1875 -13.984375 
Q 42 -20.796875 29.203125 -20.796875 
Q 24.46875 -20.796875 20.265625 -20.09375 
Q 16.0625 -19.390625 12.109375 -17.921875 
L 12.109375 -9.1875 
Q 16.0625 -11.328125 19.921875 -12.34375 
Q 23.78125 -13.375 27.78125 -13.375 
Q 36.625 -13.375 41.015625 -8.765625 
Q 45.40625 -4.15625 45.40625 5.171875 
L 45.40625 9.625 
Q 42.625 4.78125 38.28125 2.390625 
Q 33.9375 0 27.875 0 
Q 17.828125 0 11.671875 7.65625 
Q 5.515625 15.328125 5.515625 27.984375 
Q 5.515625 40.671875 11.671875 48.328125 
Q 17.828125 56 27.875 56 
Q 33.9375 56 38.28125 53.609375 
Q 42.625 51.21875 45.40625 46.390625 
L 45.40625 54.6875 
L 54.390625 54.6875 
z
" id="DejaVuSans-103"/>
     </defs>
     <g transform="translate(983.354403 446.220341)scale(0.12 -0.12)">
      <use xlink:href="#DejaVuSans-52"/>
      <use x="63.623047" xlink:href="#DejaVuSans-58"/>
      <use x="97.314453" xlink:href="#DejaVuSans-32"/>
      <use x="129.101562" xlink:href="#DejaVuSans-103"/>
     </g>
    </g>
   </g>
   <g id="text_2">
    <g clip-path="url(#pf02eab0150)">
     <!-- 7: d -->
     <defs>
      <path d="M 8.203125 72.90625 
L 55.078125 72.90625 
L 55.078125 68.703125 
L 28.609375 0 
L 18.3125 0 
L 43.21875 64.59375 
L 8.203125 64.59375 
z
" id="DejaVuSans-55"/>
      <path d="M 45.40625 46.390625 
L 45.40625 75.984375 
L 54.390625 75.984375 
L 54.390625 0 
L 45.40625 0 
L 45.40625 8.203125 
Q 42.578125 3.328125 38.25 0.953125 
Q 33.9375 -1.421875 27.875 -1.421875 
Q 17.96875 -1.421875 11.734375 6.484375 
Q 5.515625 14.40625 5.515625 27.296875 
Q 5.515625 40.1875 11.734375 48.09375 
Q 17.96875 56 27.875 56 
Q 33.9375 56 38.25 53.625 
Q 42.578125 51.265625 45.40625 46.390625 
z
M 14.796875 27.296875 
Q 14.796875 17.390625 18.875 11.75 
Q 22.953125 6.109375 30.078125 6.109375 
Q 37.203125 6.109375 41.296875 11.75 
Q 45.40625 17.390625 45.40625 27.296875 
Q 45.40625 37.203125 41.296875 42.84375 
Q 37.203125 48.484375 30.078125 48.484375 
Q 22.953125 48.484375 18.875 42.84375 
Q 14.796875 37.203125 14.796875 27.296875 
z
" id="DejaVuSans-100"/>
     </defs>
     <g transform="translate(516.990767 446.220341)scale(0.12 -0.12)">
      <use xlink:href="#DejaVuSans-55"/>
      <use x="63.623047" xlink:href="#DejaVuSans-58"/>
      <use x="97.314453" xlink:href="#DejaVuSans-32"/>
      <use x="129.101562" xlink:href="#DejaVuSans-100"/>
     </g>
    </g>
   </g>
   <g id="text_3">
    <g clip-path="url(#pf02eab0150)">
     <!-- 0: a -->
     <defs>
      <path d="M 31.78125 66.40625 
Q 24.171875 66.40625 20.328125 58.90625 
Q 16.5 51.421875 16.5 36.375 
Q 16.5 21.390625 20.328125 13.890625 
Q 24.171875 6.390625 31.78125 6.390625 
Q 39.453125 6.390625 43.28125 13.890625 
Q 47.125 21.390625 47.125 36.375 
Q 47.125 51.421875 43.28125 58.90625 
Q 39.453125 66.40625 31.78125 66.40625 
z
M 31.78125 74.21875 
Q 44.046875 74.21875 50.515625 64.515625 
Q 56.984375 54.828125 56.984375 36.375 
Q 56.984375 17.96875 50.515625 8.265625 
Q 44.046875 -1.421875 31.78125 -1.421875 
Q 19.53125 -1.421875 13.0625 8.265625 
Q 6.59375 17.96875 6.59375 36.375 
Q 6.59375 54.828125 13.0625 64.515625 
Q 19.53125 74.21875 31.78125 74.21875 
z
" id="DejaVuSans-48"/>
      <path d="M 34.28125 27.484375 
Q 23.390625 27.484375 19.1875 25 
Q 14.984375 22.515625 14.984375 16.5 
Q 14.984375 11.71875 18.140625 8.90625 
Q 21.296875 6.109375 26.703125 6.109375 
Q 34.1875 6.109375 38.703125 11.40625 
Q 43.21875 16.703125 43.21875 25.484375 
L 43.21875 27.484375 
z
M 52.203125 31.203125 
L 52.203125 0 
L 43.21875 0 
L 43.21875 8.296875 
Q 40.140625 3.328125 35.546875 0.953125 
Q 30.953125 -1.421875 24.3125 -1.421875 
Q 15.921875 -1.421875 10.953125 3.296875 
Q 6 8.015625 6 15.921875 
Q 6 25.140625 12.171875 29.828125 
Q 18.359375 34.515625 30.609375 34.515625 
L 43.21875 34.515625 
L 43.21875 35.40625 
Q 43.21875 41.609375 39.140625 45 
Q 35.0625 48.390625 27.6875 48.390625 
Q 23 48.390625 18.546875 47.265625 
Q 14.109375 46.140625 10.015625 43.890625 
L 10.015625 52.203125 
Q 14.9375 54.109375 19.578125 55.046875 
Q 24.21875 56 28.609375 56 
Q 40.484375 56 46.34375 49.84375 
Q 52.203125 43.703125 52.203125 31.203125 
z
" id="DejaVuSans-97"/>
     </defs>
     <g transform="translate(50.759318 446.220341)scale(0.12 -0.12)">
      <use xlink:href="#DejaVuSans-48"/>
      <use x="63.623047" xlink:href="#DejaVuSans-58"/>
      <use x="97.314453" xlink:href="#DejaVuSans-32"/>
      <use x="129.101562" xlink:href="#DejaVuSans-97"/>
     </g>
    </g>
   </g>
   <g id="text_4">
    <g clip-path="url(#pf02eab0150)">
     <!-- 1: e -->
     <defs>
      <path d="M 12.40625 8.296875 
L 28.515625 8.296875 
L 28.515625 63.921875 
L 10.984375 60.40625 
L 10.984375 69.390625 
L 28.421875 72.90625 
L 38.28125 72.90625 
L 38.28125 8.296875 
L 54.390625 8.296875 
L 54.390625 0 
L 12.40625 0 
z
" id="DejaVuSans-49"/>
      <path d="M 56.203125 29.59375 
L 56.203125 25.203125 
L 14.890625 25.203125 
Q 15.484375 15.921875 20.484375 11.0625 
Q 25.484375 6.203125 34.421875 6.203125 
Q 39.59375 6.203125 44.453125 7.46875 
Q 49.3125 8.734375 54.109375 11.28125 
L 54.109375 2.78125 
Q 49.265625 0.734375 44.1875 -0.34375 
Q 39.109375 -1.421875 33.890625 -1.421875 
Q 20.796875 -1.421875 13.15625 6.1875 
Q 5.515625 13.8125 5.515625 26.8125 
Q 5.515625 40.234375 12.765625 48.109375 
Q 20.015625 56 32.328125 56 
Q 43.359375 56 49.78125 48.890625 
Q 56.203125 41.796875 56.203125 29.59375 
z
M 47.21875 32.234375 
Q 47.125 39.59375 43.09375 43.984375 
Q 39.0625 48.390625 32.421875 48.390625 
Q 24.90625 48.390625 20.390625 44.140625 
Q 15.875 39.890625 15.1875 32.171875 
z
" id="DejaVuSans-101"/>
     </defs>
     <g transform="translate(672.5625 446.220341)scale(0.12 -0.12)">
      <use xlink:href="#DejaVuSans-49"/>
      <use x="63.623047" xlink:href="#DejaVuSans-58"/>
      <use x="97.314453" xlink:href="#DejaVuSans-32"/>
      <use x="129.101562" xlink:href="#DejaVuSans-101"/>
     </g>
    </g>
   </g>
   <g id="text_5">
    <g clip-path="url(#pf02eab0150)">
     <!-- &lt;2 -->
     <defs>
      <path d="M 73.1875 49.21875 
L 22.796875 31.296875 
L 73.1875 13.484375 
L 73.1875 4.59375 
L 10.59375 27.296875 
L 10.59375 35.40625 
L 73.1875 58.109375 
z
" id="DejaVuSans-60"/>
      <path d="M 19.1875 8.296875 
L 53.609375 8.296875 
L 53.609375 0 
L 7.328125 0 
L 7.328125 8.296875 
Q 12.9375 14.109375 22.625 23.890625 
Q 32.328125 33.6875 34.8125 36.53125 
Q 39.546875 41.84375 41.421875 45.53125 
Q 43.3125 49.21875 43.3125 52.78125 
Q 43.3125 58.59375 39.234375 62.25 
Q 35.15625 65.921875 28.609375 65.921875 
Q 23.96875 65.921875 18.8125 64.3125 
Q 13.671875 62.703125 7.8125 59.421875 
L 7.8125 69.390625 
Q 13.765625 71.78125 18.9375 73 
Q 24.125 74.21875 28.421875 74.21875 
Q 39.75 74.21875 46.484375 68.546875 
Q 53.21875 62.890625 53.21875 53.421875 
Q 53.21875 48.921875 51.53125 44.890625 
Q 49.859375 40.875 45.40625 35.40625 
Q 44.1875 33.984375 37.640625 27.21875 
Q 31.109375 20.453125 19.1875 8.296875 
z
" id="DejaVuSans-50"/>
     </defs>
     <g transform="translate(1141.518324 159.856705)scale(0.12 -0.12)">
      <use xlink:href="#DejaVuSans-60"/>
      <use x="83.789062" xlink:href="#DejaVuSans-50"/>
     </g>
    </g>
   </g>
   <g id="text_6">
    <g clip-path="url(#pf02eab0150)">
     <!-- &lt;6 -->
     <defs>
      <path d="M 33.015625 40.375 
Q 26.375 40.375 22.484375 35.828125 
Q 18.609375 31.296875 18.609375 23.390625 
Q 18.609375 15.53125 22.484375 10.953125 
Q 26.375 6.390625 33.015625 6.390625 
Q 39.65625 6.390625 43.53125 10.953125 
Q 47.40625 15.53125 47.40625 23.390625 
Q 47.40625 31.296875 43.53125 35.828125 
Q 39.65625 40.375 33.015625 40.375 
z
M 52.59375 71.296875 
L 52.59375 62.3125 
Q 48.875 64.0625 45.09375 64.984375 
Q 41.3125 65.921875 37.59375 65.921875 
Q 27.828125 65.921875 22.671875 59.328125 
Q 17.53125 52.734375 16.796875 39.40625 
Q 19.671875 43.65625 24.015625 45.921875 
Q 28.375 48.1875 33.59375 48.1875 
Q 44.578125 48.1875 50.953125 41.515625 
Q 57.328125 34.859375 57.328125 23.390625 
Q 57.328125 12.15625 50.6875 5.359375 
Q 44.046875 -1.421875 33.015625 -1.421875 
Q 20.359375 -1.421875 13.671875 8.265625 
Q 6.984375 17.96875 6.984375 36.375 
Q 6.984375 53.65625 15.1875 63.9375 
Q 23.390625 74.21875 37.203125 74.21875 
Q 40.921875 74.21875 44.703125 73.484375 
Q 48.484375 72.75 52.59375 71.296875 
z
" id="DejaVuSans-54"/>
     </defs>
     <g transform="translate(519.700142 255.31125)scale(0.12 -0.12)">
      <use xlink:href="#DejaVuSans-60"/>
      <use x="83.789062" xlink:href="#DejaVuSans-54"/>
     </g>
    </g>
   </g>
   <g id="text_7">
    <g clip-path="url(#pf02eab0150)">
     <!-- &lt;3 -->
     <defs>
      <path d="M 40.578125 39.3125 
Q 47.65625 37.796875 51.625 33 
Q 55.609375 28.21875 55.609375 21.1875 
Q 55.609375 10.40625 48.1875 4.484375 
Q 40.765625 -1.421875 27.09375 -1.421875 
Q 22.515625 -1.421875 17.65625 -0.515625 
Q 12.796875 0.390625 7.625 2.203125 
L 7.625 11.71875 
Q 11.71875 9.328125 16.59375 8.109375 
Q 21.484375 6.890625 26.8125 6.890625 
Q 36.078125 6.890625 40.9375 10.546875 
Q 45.796875 14.203125 45.796875 21.1875 
Q 45.796875 27.640625 41.28125 31.265625 
Q 36.765625 34.90625 28.71875 34.90625 
L 20.21875 34.90625 
L 20.21875 43.015625 
L 29.109375 43.015625 
Q 36.375 43.015625 40.234375 45.921875 
Q 44.09375 48.828125 44.09375 54.296875 
Q 44.09375 59.90625 40.109375 62.90625 
Q 36.140625 65.921875 28.71875 65.921875 
Q 24.65625 65.921875 20.015625 65.03125 
Q 15.375 64.15625 9.8125 62.3125 
L 9.8125 71.09375 
Q 15.4375 72.65625 20.34375 73.4375 
Q 25.25 74.21875 29.59375 74.21875 
Q 40.828125 74.21875 47.359375 69.109375 
Q 53.90625 64.015625 53.90625 55.328125 
Q 53.90625 49.265625 50.4375 45.09375 
Q 46.96875 40.921875 40.578125 39.3125 
z
" id="DejaVuSans-51"/>
     </defs>
     <g transform="translate(1141.518324 350.765795)scale(0.12 -0.12)">
      <use xlink:href="#DejaVuSans-60"/>
      <use x="83.789062" xlink:href="#DejaVuSans-51"/>
     </g>
    </g>
   </g>
   <g id="text_8">
    <g clip-path="url(#pf02eab0150)">
     <!-- &lt;6 -->
     <g transform="translate(1296.972869 159.856705)scale(0.12 -0.12)">
      <use xlink:href="#DejaVuSans-60"/>
      <use x="83.789062" xlink:href="#DejaVuSans-54"/>
     </g>
    </g>
   </g>
   <g id="text_9">
    <g clip-path="url(#pf02eab0150)">
     <!-- ≥6 -->
     <defs>
      <path d="M 10.59375 49.609375 
L 10.59375 58.203125 
L 73.1875 40.28125 
L 73.1875 31.984375 
L 10.59375 14.015625 
L 10.59375 22.703125 
L 57.515625 36.078125 
z
M 73.1875 8.296875 
L 73.1875 0 
L 10.59375 0 
L 10.59375 8.296875 
z
" id="DejaVuSans-8805"/>
     </defs>
     <g transform="translate(986.063778 64.402159)scale(0.12 -0.12)">
      <use xlink:href="#DejaVuSans-8805"/>
      <use x="83.789062" xlink:href="#DejaVuSans-54"/>
     </g>
    </g>
   </g>
   <g id="text_10">
    <g clip-path="url(#pf02eab0150)">
     <!-- &lt;6 -->
     <g transform="translate(364.245597 350.765795)scale(0.12 -0.12)">
      <use xlink:href="#DejaVuSans-60"/>
      <use x="83.789062" xlink:href="#DejaVuSans-54"/>
     </g>
    </g>
   </g>
   <g id="text_11">
    <g clip-path="url(#pf02eab0150)">
     <!-- ≥5 -->
     <defs>
      <path d="M 10.796875 72.90625 
L 49.515625 72.90625 
L 49.515625 64.59375 
L 19.828125 64.59375 
L 19.828125 46.734375 
Q 21.96875 47.46875 24.109375 47.828125 
Q 26.265625 48.1875 28.421875 48.1875 
Q 40.625 48.1875 47.75 41.5 
Q 54.890625 34.8125 54.890625 23.390625 
Q 54.890625 11.625 47.5625 5.09375 
Q 40.234375 -1.421875 26.90625 -1.421875 
Q 22.3125 -1.421875 17.546875 -0.640625 
Q 12.796875 0.140625 7.71875 1.703125 
L 7.71875 11.625 
Q 12.109375 9.234375 16.796875 8.0625 
Q 21.484375 6.890625 26.703125 6.890625 
Q 35.15625 6.890625 40.078125 11.328125 
Q 45.015625 15.765625 45.015625 23.390625 
Q 45.015625 31 40.078125 35.4375 
Q 35.15625 39.890625 26.703125 39.890625 
Q 22.75 39.890625 18.8125 39.015625 
Q 14.890625 38.140625 10.796875 36.28125 
z
" id="DejaVuSans-53"/>
     </defs>
     <g transform="translate(986.063778 255.31125)scale(0.12 -0.12)">
      <use xlink:href="#DejaVuSans-8805"/>
      <use x="83.789062" xlink:href="#DejaVuSans-53"/>
     </g>
    </g>
   </g>
   <g id="text_12">
    <g clip-path="url(#pf02eab0150)">
     <!-- &lt;1 -->
     <g transform="translate(675.154688 350.765795)scale(0.12 -0.12)">
      <use xlink:href="#DejaVuSans-60"/>
      <use x="83.789062" xlink:href="#DejaVuSans-49"/>
     </g>
    </g>
   </g>
   <g id="text_13">
    <g clip-path="url(#pf02eab0150)">
     <!-- &lt;2 -->
     <g transform="translate(830.609233 255.31125)scale(0.12 -0.12)">
      <use xlink:href="#DejaVuSans-60"/>
      <use x="83.789062" xlink:href="#DejaVuSans-50"/>
     </g>
    </g>
   </g>
   <g id="text_14">
    <g clip-path="url(#pf02eab0150)">
     <!-- &lt;2 -->
     <g transform="translate(208.791051 350.765795)scale(0.12 -0.12)">
      <use xlink:href="#DejaVuSans-60"/>
      <use x="83.789062" xlink:href="#DejaVuSans-50"/>
     </g>
    </g>
   </g>
   <g id="text_15">
    <g clip-path="url(#pf02eab0150)">
     <!-- ≥4 -->
     <g transform="translate(1141.518324 255.31125)scale(0.12 -0.12)">
      <use xlink:href="#DejaVuSans-8805"/>
      <use x="83.789062" xlink:href="#DejaVuSans-52"/>
     </g>
    </g>
   </g>
   <g id="text_16">
    <g clip-path="url(#pf02eab0150)">
     <!-- 5: f -->
     <defs>
      <path d="M 37.109375 75.984375 
L 37.109375 68.5 
L 28.515625 68.5 
Q 23.6875 68.5 21.796875 66.546875 
Q 19.921875 64.59375 19.921875 59.515625 
L 19.921875 54.6875 
L 34.71875 54.6875 
L 34.71875 47.703125 
L 19.921875 47.703125 
L 19.921875 0 
L 10.890625 0 
L 10.890625 47.703125 
L 2.296875 47.703125 
L 2.296875 54.6875 
L 10.890625 54.6875 
L 10.890625 58.5 
Q 10.890625 67.625 15.140625 71.796875 
Q 19.390625 75.984375 28.609375 75.984375 
z
" id="DejaVuSans-102"/>
     </defs>
     <g transform="translate(829.596733 446.220341)scale(0.12 -0.12)">
      <use xlink:href="#DejaVuSans-53"/>
      <use x="63.623047" xlink:href="#DejaVuSans-58"/>
      <use x="97.314453" xlink:href="#DejaVuSans-32"/>
      <use x="129.101562" xlink:href="#DejaVuSans-102"/>
     </g>
    </g>
   </g>
   <g id="text_17">
    <g clip-path="url(#pf02eab0150)">
     <!-- 3: h -->
     <defs>
      <path d="M 54.890625 33.015625 
L 54.890625 0 
L 45.90625 0 
L 45.90625 32.71875 
Q 45.90625 40.484375 42.875 44.328125 
Q 39.84375 48.1875 33.796875 48.1875 
Q 26.515625 48.1875 22.3125 43.546875 
Q 18.109375 38.921875 18.109375 30.90625 
L 18.109375 0 
L 9.078125 0 
L 9.078125 75.984375 
L 18.109375 75.984375 
L 18.109375 46.1875 
Q 21.34375 51.125 25.703125 53.5625 
Q 30.078125 56 35.796875 56 
Q 45.21875 56 50.046875 50.171875 
Q 54.890625 44.34375 54.890625 33.015625 
z
" id="DejaVuSans-104"/>
     </defs>
     <g transform="translate(1138.815511 446.220341)scale(0.12 -0.12)">
      <use xlink:href="#DejaVuSans-51"/>
      <use x="63.623047" xlink:href="#DejaVuSans-58"/>
      <use x="97.314453" xlink:href="#DejaVuSans-32"/>
      <use x="129.101562" xlink:href="#DejaVuSans-104"/>
     </g>
    </g>
   </g>
   <g id="text_18">
    <g clip-path="url(#pf02eab0150)">
     <!-- 8: i -->
     <defs>
      <path d="M 31.78125 34.625 
Q 24.75 34.625 20.71875 30.859375 
Q 16.703125 27.09375 16.703125 20.515625 
Q 16.703125 13.921875 20.71875 10.15625 
Q 24.75 6.390625 31.78125 6.390625 
Q 38.8125 6.390625 42.859375 10.171875 
Q 46.921875 13.96875 46.921875 20.515625 
Q 46.921875 27.09375 42.890625 30.859375 
Q 38.875 34.625 31.78125 34.625 
z
M 21.921875 38.8125 
Q 15.578125 40.375 12.03125 44.71875 
Q 8.5 49.078125 8.5 55.328125 
Q 8.5 64.0625 14.71875 69.140625 
Q 20.953125 74.21875 31.78125 74.21875 
Q 42.671875 74.21875 48.875 69.140625 
Q 55.078125 64.0625 55.078125 55.328125 
Q 55.078125 49.078125 51.53125 44.71875 
Q 48 40.375 41.703125 38.8125 
Q 48.828125 37.15625 52.796875 32.3125 
Q 56.78125 27.484375 56.78125 20.515625 
Q 56.78125 9.90625 50.3125 4.234375 
Q 43.84375 -1.421875 31.78125 -1.421875 
Q 19.734375 -1.421875 13.25 4.234375 
Q 6.78125 9.90625 6.78125 20.515625 
Q 6.78125 27.484375 10.78125 32.3125 
Q 14.796875 37.15625 21.921875 38.8125 
z
M 18.3125 54.390625 
Q 18.3125 48.734375 21.84375 45.5625 
Q 25.390625 42.390625 31.78125 42.390625 
Q 38.140625 42.390625 41.71875 45.5625 
Q 45.3125 48.734375 45.3125 54.390625 
Q 45.3125 60.0625 41.71875 63.234375 
Q 38.140625 66.40625 31.78125 66.40625 
Q 25.390625 66.40625 21.84375 63.234375 
Q 18.3125 60.0625 18.3125 54.390625 
z
" id="DejaVuSans-56"/>
      <path d="M 9.421875 54.6875 
L 18.40625 54.6875 
L 18.40625 0 
L 9.421875 0 
z
M 9.421875 75.984375 
L 18.40625 75.984375 
L 18.40625 64.59375 
L 9.421875 64.59375 
z
" id="DejaVuSans-105"/>
     </defs>
     <g transform="translate(1296.405682 446.220341)scale(0.12 -0.12)">
      <use xlink:href="#DejaVuSans-56"/>
      <use x="63.623047" xlink:href="#DejaVuSans-58"/>
      <use x="97.314453" xlink:href="#DejaVuSans-32"/>
      <use x="129.101562" xlink:href="#DejaVuSans-105"/>
     </g>
    </g>
   </g>
   <g id="text_19">
    <g clip-path="url(#pf02eab0150)">
     <!-- ≥6 -->
     <g transform="translate(1141.518324 64.402159)scale(0.12 -0.12)">
      <use xlink:href="#DejaVuSans-8805"/>
      <use x="83.789062" xlink:href="#DejaVuSans-54"/>
     </g>
    </g>
   </g>
   <g id="text_20">
    <g clip-path="url(#pf02eab0150)">
     <!-- &lt;7 -->
     <g transform="translate(1296.972869 255.31125)scale(0.12 -0.12)">
      <use xlink:href="#DejaVuSans-60"/>
      <use x="83.789062" xlink:href="#DejaVuSans-55"/>
     </g>
    </g>
   </g>
   <g id="text_21">
    <g clip-path="url(#pf02eab0150)">
     <!-- ≥2 -->
     <g transform="translate(675.154688 255.31125)scale(0.12 -0.12)">
      <use xlink:href="#DejaVuSans-8805"/>
      <use x="83.789062" xlink:href="#DejaVuSans-50"/>
     </g>
    </g>
   </g>
   <g id="text_22">
    <g clip-path="url(#pf02eab0150)">
     <!-- &lt;2 -->
     <g transform="translate(986.063778 159.856705)scale(0.12 -0.12)">
      <use xlink:href="#DejaVuSans-60"/>
      <use x="83.789062" xlink:href="#DejaVuSans-50"/>
     </g>
    </g>
   </g>
   <g id="text_23">
    <g clip-path="url(#pf02eab0150)">
     <!-- &lt;7 -->
     <g transform="translate(519.700142 350.765795)scale(0.12 -0.12)">
      <use xlink:href="#DejaVuSans-60"/>
      <use x="83.789062" xlink:href="#DejaVuSans-55"/>
     </g>
    </g>
   </g>
   <g id="text_24">
    <g clip-path="url(#pf02eab0150)">
     <!-- &lt;8 -->
     <g transform="translate(1296.972869 350.765795)scale(0.12 -0.12)">
      <use xlink:href="#DejaVuSans-60"/>
      <use x="83.789062" xlink:href="#DejaVuSans-56"/>
     </g>
    </g>
   </g>
   <g id="text_25">
    <g clip-path="url(#pf02eab0150)">
     <!-- &lt;4 -->
     <g transform="translate(986.063778 350.765795)scale(0.12 -0.12)">
      <use xlink:href="#DejaVuSans-60"/>
      <use x="83.789062" xlink:href="#DejaVuSans-52"/>
     </g>
    </g>
   </g>
   <g id="text_26">
    <g clip-path="url(#pf02eab0150)">
     <!-- &lt;2 -->
     <g transform="translate(364.245597 255.31125)scale(0.12 -0.12)">
      <use xlink:href="#DejaVuSans-60"/>
      <use x="83.789062" xlink:href="#DejaVuSans-50"/>
     </g>
    </g>
   </g>
   <g id="text_27">
    <g clip-path="url(#pf02eab0150)">
     <!-- ≥6 -->
     <g transform="translate(830.609233 159.856705)scale(0.12 -0.12)">
      <use xlink:href="#DejaVuSans-8805"/>
      <use x="83.789062" xlink:href="#DejaVuSans-54"/>
     </g>
    </g>
   </g>
   <g id="text_28">
    <g clip-path="url(#pf02eab0150)">
     <!-- 6: c -->
     <defs>
      <path d="M 48.78125 52.59375 
L 48.78125 44.1875 
Q 44.96875 46.296875 41.140625 47.34375 
Q 37.3125 48.390625 33.40625 48.390625 
Q 24.65625 48.390625 19.8125 42.84375 
Q 14.984375 37.3125 14.984375 27.296875 
Q 14.984375 17.28125 19.8125 11.734375 
Q 24.65625 6.203125 33.40625 6.203125 
Q 37.3125 6.203125 41.140625 7.25 
Q 44.96875 8.296875 48.78125 10.40625 
L 48.78125 2.09375 
Q 45.015625 0.34375 40.984375 -0.53125 
Q 36.96875 -1.421875 32.421875 -1.421875 
Q 20.0625 -1.421875 12.78125 6.34375 
Q 5.515625 14.109375 5.515625 27.296875 
Q 5.515625 40.671875 12.859375 48.328125 
Q 20.21875 56 33.015625 56 
Q 37.15625 56 41.109375 55.140625 
Q 45.0625 54.296875 48.78125 52.59375 
z
" id="DejaVuSans-99"/>
     </defs>
     <g transform="translate(362.046222 446.220341)scale(0.12 -0.12)">
      <use xlink:href="#DejaVuSans-54"/>
      <use x="63.623047" xlink:href="#DejaVuSans-58"/>
      <use x="97.314453" xlink:href="#DejaVuSans-32"/>
      <use x="129.101562" xlink:href="#DejaVuSans-99"/>
     </g>
    </g>
   </g>
   <g id="text_29">
    <g clip-path="url(#pf02eab0150)">
     <!-- ≥6 -->
     <g transform="translate(675.154688 159.856705)scale(0.12 -0.12)">
      <use xlink:href="#DejaVuSans-8805"/>
      <use x="83.789062" xlink:href="#DejaVuSans-54"/>
     </g>
    </g>
   </g>
   <g id="text_30">
    <g clip-path="url(#pf02eab0150)">
     <!-- &lt;5 -->
     <g transform="translate(830.609233 350.765795)scale(0.12 -0.12)">
      <use xlink:href="#DejaVuSans-60"/>
      <use x="83.789062" xlink:href="#DejaVuSans-53"/>
     </g>
    </g>
   </g>
   <g id="text_31">
    <g clip-path="url(#pf02eab0150)">
     <!-- 2: b -->
     <defs>
      <path d="M 48.6875 27.296875 
Q 48.6875 37.203125 44.609375 42.84375 
Q 40.53125 48.484375 33.40625 48.484375 
Q 26.265625 48.484375 22.1875 42.84375 
Q 18.109375 37.203125 18.109375 27.296875 
Q 18.109375 17.390625 22.1875 11.75 
Q 26.265625 6.109375 33.40625 6.109375 
Q 40.53125 6.109375 44.609375 11.75 
Q 48.6875 17.390625 48.6875 27.296875 
z
M 18.109375 46.390625 
Q 20.953125 51.265625 25.265625 53.625 
Q 29.59375 56 35.59375 56 
Q 45.5625 56 51.78125 48.09375 
Q 58.015625 40.1875 58.015625 27.296875 
Q 58.015625 14.40625 51.78125 6.484375 
Q 45.5625 -1.421875 35.59375 -1.421875 
Q 29.59375 -1.421875 25.265625 0.953125 
Q 20.953125 3.328125 18.109375 8.203125 
L 18.109375 0 
L 9.078125 0 
L 9.078125 75.984375 
L 18.109375 75.984375 
z
" id="DejaVuSans-98"/>
     </defs>
     <g transform="translate(206.081676 446.220341)scale(0.12 -0.12)">
      <use xlink:href="#DejaVuSans-50"/>
      <use x="63.623047" xlink:href="#DejaVuSans-58"/>
      <use x="97.314453" xlink:href="#DejaVuSans-32"/>
      <use x="129.101562" xlink:href="#DejaVuSans-98"/>
     </g>
    </g>
   </g>
  </g>
 </g>
 <defs>
  <clipPath id="pf02eab0150">
   <rect height="504" width="1368" x="0" y="0"/>
  </clipPath>
 </defs>
</svg>
