<?xml version="1.0" encoding="utf-8" standalone="no"?>
<!DOCTYPE svg PUBLIC "-//W3C//DTD SVG 1.1//EN"
  "http://www.w3.org/Graphics/SVG/1.1/DTD/svg11.dtd">
<!-- Created with matplotlib (http://matplotlib.org/) -->
<svg height="504pt" version="1.1" viewBox="0 0 1440 504" width="1440pt" xmlns="http://www.w3.org/2000/svg" xmlns:xlink="http://www.w3.org/1999/xlink">
 <defs>
  <style type="text/css">
*{stroke-linecap:butt;stroke-linejoin:round;}
  </style>
 </defs>
 <g id="figure_1">
  <g id="patch_1">
   <path d="M 0 504 
L 1440 504 
L 1440 0 
L 0 0 
z
" style="fill:#ffffff;"/>
  </g>
  <g id="axes_1">
   <g id="patch_2">
    <path clip-path="url(#p631ed2c2fa)" d="M 1374.545455 61.090909 
Q 1170.058261 61.090909 967.807135 61.090909 
" style="fill:none;stroke:#000000;stroke-linecap:round;stroke-width:2;"/>
    <path clip-path="url(#p631ed2c2fa)" d="M 971.807135 63.090909 
L 967.807135 61.090909 
L 971.807135 59.090909 
L 971.807135 63.090909 
z
" style="stroke:#000000;stroke-linecap:round;stroke-width:2;"/>
   </g>
   <g id="patch_3">
    <path clip-path="url(#p631ed2c2fa)" d="M 1374.545455 61.090909 
Q 1374.545455 142.852703 1374.545455 222.378428 
" style="fill:none;stroke:#000000;stroke-linecap:round;stroke-width:2;"/>
    <path clip-path="url(#p631ed2c2fa)" d="M 1376.545455 218.378428 
L 1374.545455 222.378428 
L 1372.545455 218.378428 
L 1376.545455 218.378428 
z
" style="stroke:#000000;stroke-linecap:round;stroke-width:2;"/>
   </g>
   <g id="patch_4">
    <path clip-path="url(#p631ed2c2fa)" d="M 1374.545455 252 
Q 1374.545455 333.761794 1374.545455 413.287519 
" style="fill:none;stroke:#000000;stroke-linecap:round;stroke-width:2;"/>
    <path clip-path="url(#p631ed2c2fa)" d="M 1376.545455 409.287519 
L 1374.545455 413.287519 
L 1372.545455 409.287519 
L 1376.545455 409.287519 
z
" style="stroke:#000000;stroke-linecap:round;stroke-width:2;"/>
   </g>
   <g id="patch_5">
    <path clip-path="url(#p631ed2c2fa)" d="M 1374.545455 252 
Q 733.549389 345.478593 94.765986 438.634506 
" style="fill:none;stroke:#000000;stroke-linecap:round;stroke-width:2;"/>
    <path clip-path="url(#p631ed2c2fa)" d="M 99.012731 440.036344 
L 94.765986 438.634506 
L 98.435504 436.078212 
L 99.012731 440.036344 
z
" style="stroke:#000000;stroke-linecap:round;stroke-width:2;"/>
   </g>
   <g id="patch_6">
    <path clip-path="url(#p631ed2c2fa)" d="M 938.181818 252 
Q 515.196533 344.528031 94.395663 436.578221 
" style="fill:none;stroke:#000000;stroke-linecap:round;stroke-width:2;"/>
    <path clip-path="url(#p631ed2c2fa)" d="M 98.730657 437.677234 
L 94.395663 436.578221 
L 97.875869 433.769634 
L 98.730657 437.677234 
z
" style="stroke:#000000;stroke-linecap:round;stroke-width:2;"/>
   </g>
   <g id="patch_7">
    <path clip-path="url(#p631ed2c2fa)" d="M 938.181818 252 
Q 938.181818 333.761794 938.181818 413.287519 
" style="fill:none;stroke:#000000;stroke-linecap:round;stroke-width:2;"/>
    <path clip-path="url(#p631ed2c2fa)" d="M 940.181818 409.287519 
L 938.181818 413.287519 
L 936.181818 409.287519 
L 940.181818 409.287519 
z
" style="stroke:#000000;stroke-linecap:round;stroke-width:2;"/>
   </g>
   <g id="patch_8">
    <path clip-path="url(#p631ed2c2fa)" d="M 938.181818 61.090909 
Q 730.305509 242.98268 524.112012 423.40199 
" style="fill:none;stroke:#000000;stroke-linecap:round;stroke-width:2;"/>
    <path clip-path="url(#p631ed2c2fa)" d="M 528.439328 422.273125 
L 524.112012 423.40199 
L 525.805309 419.262818 
L 528.439328 422.273125 
z
" style="stroke:#000000;stroke-linecap:round;stroke-width:2;"/>
   </g>
   <g id="patch_9">
    <path clip-path="url(#p631ed2c2fa)" d="M 938.181818 61.090909 
Q 938.181818 142.852703 938.181818 222.378428 
" style="fill:none;stroke:#000000;stroke-linecap:round;stroke-width:2;"/>
    <path clip-path="url(#p631ed2c2fa)" d="M 940.181818 218.378428 
L 938.181818 222.378428 
L 936.181818 218.378428 
L 940.181818 218.378428 
z
" style="stroke:#000000;stroke-linecap:round;stroke-width:2;"/>
   </g>
   <g id="patch_10">
    <path clip-path="url(#p631ed2c2fa)" d="M 501.818182 252 
Q 296.182417 341.965647 92.595243 431.035036 
" style="fill:none;stroke:#000000;stroke-linecap:round;stroke-width:2;"/>
    <path clip-path="url(#p631ed2c2fa)" d="M 97.06151 431.264075 
L 92.595243 431.035036 
L 95.458235 427.599446 
L 97.06151 431.264075 
z
" style="stroke:#000000;stroke-linecap:round;stroke-width:2;"/>
   </g>
   <g id="patch_11">
    <path clip-path="url(#p631ed2c2fa)" d="M 501.818182 252 
Q 501.818182 333.761794 501.818182 413.287519 
" style="fill:none;stroke:#000000;stroke-linecap:round;stroke-width:2;"/>
    <path clip-path="url(#p631ed2c2fa)" d="M 503.818182 409.287519 
L 501.818182 413.287519 
L 499.818182 409.287519 
L 503.818182 409.287519 
z
" style="stroke:#000000;stroke-linecap:round;stroke-width:2;"/>
   </g>
   <g id="PathCollection_1">
    <defs>
     <path d="M 0 27.386128 
C 7.262886 27.386128 14.229281 24.500553 19.364917 19.364917 
C 24.500553 14.229281 27.386128 7.262886 27.386128 0 
C 27.386128 -7.262886 24.500553 -14.229281 19.364917 -19.364917 
C 14.229281 -24.500553 7.262886 -27.386128 0 -27.386128 
C -7.262886 -27.386128 -14.229281 -24.500553 -19.364917 -19.364917 
C -24.500553 -14.229281 -27.386128 -7.262886 -27.386128 0 
C -27.386128 7.262886 -24.500553 14.229281 -19.364917 19.364917 
C -14.229281 24.500553 -7.262886 27.386128 0 27.386128 
z
" id="mc3ce925d39" style="stroke:#000000;stroke-width:2;"/>
    </defs>
    <g clip-path="url(#p631ed2c2fa)">
     <use style="fill:#ffffff;stroke:#000000;stroke-width:2;" x="1374.545455" xlink:href="#mc3ce925d39" y="442.909091"/>
     <use style="fill:#ffffff;stroke:#000000;stroke-width:2;" x="65.454545" xlink:href="#mc3ce925d39" y="442.909091"/>
     <use style="fill:#ffffff;stroke:#000000;stroke-width:2;" x="1374.545455" xlink:href="#mc3ce925d39" y="61.090909"/>
     <use style="fill:#ffffff;stroke:#000000;stroke-width:2;" x="1374.545455" xlink:href="#mc3ce925d39" y="252"/>
     <use style="fill:#ffffff;stroke:#000000;stroke-width:2;" x="938.181818" xlink:href="#mc3ce925d39" y="252"/>
     <use style="fill:#ffffff;stroke:#000000;stroke-width:2;" x="938.181818" xlink:href="#mc3ce925d39" y="61.090909"/>
     <use style="fill:#ffffff;stroke:#000000;stroke-width:2;" x="938.181818" xlink:href="#mc3ce925d39" y="442.909091"/>
     <use style="fill:#ffffff;stroke:#000000;stroke-width:2;" x="501.818182" xlink:href="#mc3ce925d39" y="252"/>
     <use style="fill:#ffffff;stroke:#000000;stroke-width:2;" x="501.818182" xlink:href="#mc3ce925d39" y="442.909091"/>
    </g>
   </g>
   <g id="text_1">
    <g clip-path="url(#p631ed2c2fa)">
     <!-- 3: 3 -->
     <defs>
      <path d="M 40.578125 39.3125 
Q 47.65625 37.796875 51.625 33 
Q 55.609375 28.21875 55.609375 21.1875 
Q 55.609375 10.40625 48.1875 4.484375 
Q 40.765625 -1.421875 27.09375 -1.421875 
Q 22.515625 -1.421875 17.65625 -0.515625 
Q 12.796875 0.390625 7.625 2.203125 
L 7.625 11.71875 
Q 11.71875 9.328125 16.59375 8.109375 
Q 21.484375 6.890625 26.8125 6.890625 
Q 36.078125 6.890625 40.9375 10.546875 
Q 45.796875 14.203125 45.796875 21.1875 
Q 45.796875 27.640625 41.28125 31.265625 
Q 36.765625 34.90625 28.71875 34.90625 
L 20.21875 34.90625 
L 20.21875 43.015625 
L 29.109375 43.015625 
Q 36.375 43.015625 40.234375 45.921875 
Q 44.09375 48.828125 44.09375 54.296875 
Q 44.09375 59.90625 40.109375 62.90625 
Q 36.140625 65.921875 28.71875 65.921875 
Q 24.65625 65.921875 20.015625 65.03125 
Q 15.375 64.15625 9.8125 62.3125 
L 9.8125 71.09375 
Q 15.4375 72.65625 20.34375 73.4375 
Q 25.25 74.21875 29.59375 74.21875 
Q 40.828125 74.21875 47.359375 69.109375 
Q 53.90625 64.015625 53.90625 55.328125 
Q 53.90625 49.265625 50.4375 45.09375 
Q 46.96875 40.921875 40.578125 39.3125 
z
" id="DejaVuSans-33"/>
      <path d="M 11.71875 12.40625 
L 22.015625 12.40625 
L 22.015625 0 
L 11.71875 0 
z
M 11.71875 51.703125 
L 22.015625 51.703125 
L 22.015625 39.3125 
L 11.71875 39.3125 
z
" id="DejaVuSans-3a"/>
      <path id="DejaVuSans-20"/>
     </defs>
     <g transform="translate(1362.98233 439.501653)scale(0.12 -0.12)">
      <use xlink:href="#DejaVuSans-33"/>
      <use x="63.623047" xlink:href="#DejaVuSans-3a"/>
      <use x="97.314453" xlink:href="#DejaVuSans-20"/>
      <use x="129.101562" xlink:href="#DejaVuSans-33"/>
     </g>
    </g>
    <g clip-path="url(#p631ed2c2fa)">
     <!--  -->
     <g transform="translate(1374.545455 452.939028)scale(0.12 -0.12)"/>
    </g>
   </g>
   <g id="text_2">
    <g clip-path="url(#p631ed2c2fa)">
     <!-- 0: 0 -->
     <defs>
      <path d="M 31.78125 66.40625 
Q 24.171875 66.40625 20.328125 58.90625 
Q 16.5 51.421875 16.5 36.375 
Q 16.5 21.390625 20.328125 13.890625 
Q 24.171875 6.390625 31.78125 6.390625 
Q 39.453125 6.390625 43.28125 13.890625 
Q 47.125 21.390625 47.125 36.375 
Q 47.125 51.421875 43.28125 58.90625 
Q 39.453125 66.40625 31.78125 66.40625 
z
M 31.78125 74.21875 
Q 44.046875 74.21875 50.515625 64.515625 
Q 56.984375 54.828125 56.984375 36.375 
Q 56.984375 17.96875 50.515625 8.265625 
Q 44.046875 -1.421875 31.78125 -1.421875 
Q 19.53125 -1.421875 13.0625 8.265625 
Q 6.59375 17.96875 6.59375 36.375 
Q 6.59375 54.828125 13.0625 64.515625 
Q 19.53125 74.21875 31.78125 74.21875 
z
" id="DejaVuSans-30"/>
     </defs>
     <g transform="translate(53.89142 439.501653)scale(0.12 -0.12)">
      <use xlink:href="#DejaVuSans-30"/>
      <use x="63.623047" xlink:href="#DejaVuSans-3a"/>
      <use x="97.314453" xlink:href="#DejaVuSans-20"/>
      <use x="129.101562" xlink:href="#DejaVuSans-30"/>
     </g>
    </g>
    <g clip-path="url(#p631ed2c2fa)">
     <!--  -->
     <g transform="translate(65.454545 452.939028)scale(0.12 -0.12)"/>
    </g>
   </g>
   <g id="text_3">
    <g clip-path="url(#p631ed2c2fa)">
     <!-- &lt;1w2 -->
     <defs>
      <path d="M 73.1875 49.21875 
L 22.796875 31.296875 
L 73.1875 13.484375 
L 73.1875 4.59375 
L 10.59375 27.296875 
L 10.59375 35.40625 
L 73.1875 58.109375 
z
" id="DejaVuSans-3c"/>
      <path d="M 12.40625 8.296875 
L 28.515625 8.296875 
L 28.515625 63.921875 
L 10.984375 60.40625 
L 10.984375 69.390625 
L 28.421875 72.90625 
L 38.28125 72.90625 
L 38.28125 8.296875 
L 54.390625 8.296875 
L 54.390625 0 
L 12.40625 0 
z
" id="DejaVuSans-31"/>
      <path d="M 4.203125 54.6875 
L 13.1875 54.6875 
L 24.421875 12.015625 
L 35.59375 54.6875 
L 46.1875 54.6875 
L 57.421875 12.015625 
L 68.609375 54.6875 
L 77.59375 54.6875 
L 63.28125 0 
L 52.6875 0 
L 40.921875 44.828125 
L 29.109375 0 
L 18.5 0 
z
" id="DejaVuSans-77"/>
      <path d="M 19.1875 8.296875 
L 53.609375 8.296875 
L 53.609375 0 
L 7.328125 0 
L 7.328125 8.296875 
Q 12.9375 14.109375 22.625 23.890625 
Q 32.328125 33.6875 34.8125 36.53125 
Q 39.546875 41.84375 41.421875 45.53125 
Q 43.3125 49.21875 43.3125 52.78125 
Q 43.3125 58.59375 39.234375 62.25 
Q 35.15625 65.921875 28.609375 65.921875 
Q 23.96875 65.921875 18.8125 64.3125 
Q 13.671875 62.703125 7.8125 59.421875 
L 7.8125 69.390625 
Q 13.765625 71.78125 18.9375 73 
Q 24.125 74.21875 28.421875 74.21875 
Q 39.75 74.21875 46.484375 68.546875 
Q 53.21875 62.890625 53.21875 53.421875 
Q 53.21875 48.921875 51.53125 44.890625 
Q 49.859375 40.875 45.40625 35.40625 
Q 44.1875 33.984375 37.640625 27.21875 
Q 31.109375 20.453125 19.1875 8.296875 
z
" id="DejaVuSans-32"/>
     </defs>
     <g transform="translate(1356.975767 57.683472)scale(0.12 -0.12)">
      <use xlink:href="#DejaVuSans-3c"/>
      <use x="83.789062" xlink:href="#DejaVuSans-31"/>
      <use x="147.412109" xlink:href="#DejaVuSans-77"/>
      <use x="229.199219" xlink:href="#DejaVuSans-32"/>
     </g>
    </g>
    <g clip-path="url(#p631ed2c2fa)">
     <!-- +0 -->
     <defs>
      <path d="M 46 62.703125 
L 46 35.5 
L 73.1875 35.5 
L 73.1875 27.203125 
L 46 27.203125 
L 46 0 
L 37.796875 0 
L 37.796875 27.203125 
L 10.59375 27.203125 
L 10.59375 35.5 
L 37.796875 35.5 
L 37.796875 62.703125 
z
" id="DejaVuSans-2b"/>
     </defs>
     <g transform="translate(1365.700142 71.120847)scale(0.12 -0.12)">
      <use xlink:href="#DejaVuSans-2b"/>
      <use x="83.789062" xlink:href="#DejaVuSans-30"/>
     </g>
    </g>
   </g>
   <g id="text_4">
    <g clip-path="url(#p631ed2c2fa)">
     <!-- &lt;3w1 -->
     <g transform="translate(1356.975767 248.592563)scale(0.12 -0.12)">
      <use xlink:href="#DejaVuSans-3c"/>
      <use x="83.789062" xlink:href="#DejaVuSans-33"/>
      <use x="147.412109" xlink:href="#DejaVuSans-77"/>
      <use x="229.199219" xlink:href="#DejaVuSans-31"/>
     </g>
    </g>
    <g clip-path="url(#p631ed2c2fa)">
     <!-- +0 -->
     <g transform="translate(1365.700142 262.029938)scale(0.12 -0.12)">
      <use xlink:href="#DejaVuSans-2b"/>
      <use x="83.789062" xlink:href="#DejaVuSans-30"/>
     </g>
    </g>
   </g>
   <g id="text_5">
    <g clip-path="url(#p631ed2c2fa)">
     <!-- ≥1w1 -->
     <defs>
      <path d="M 10.59375 49.609375 
L 10.59375 58.203125 
L 73.1875 40.28125 
L 73.1875 31.984375 
L 10.59375 14.015625 
L 10.59375 22.703125 
L 57.515625 36.078125 
z
M 73.1875 8.296875 
L 73.1875 0 
L 10.59375 0 
L 10.59375 8.296875 
z
" id="DejaVuSans-2265"/>
     </defs>
     <g transform="translate(920.612131 248.592563)scale(0.12 -0.12)">
      <use xlink:href="#DejaVuSans-2265"/>
      <use x="83.789062" xlink:href="#DejaVuSans-31"/>
      <use x="147.412109" xlink:href="#DejaVuSans-77"/>
      <use x="229.199219" xlink:href="#DejaVuSans-31"/>
     </g>
    </g>
    <g clip-path="url(#p631ed2c2fa)">
     <!-- +0 -->
     <g transform="translate(929.336506 262.029938)scale(0.12 -0.12)">
      <use xlink:href="#DejaVuSans-2b"/>
      <use x="83.789062" xlink:href="#DejaVuSans-30"/>
     </g>
    </g>
   </g>
   <g id="text_6">
    <g clip-path="url(#p631ed2c2fa)">
     <!-- &lt;0w1 -->
     <g transform="translate(920.612131 57.683472)scale(0.12 -0.12)">
      <use xlink:href="#DejaVuSans-3c"/>
      <use x="83.789062" xlink:href="#DejaVuSans-30"/>
      <use x="147.412109" xlink:href="#DejaVuSans-77"/>
      <use x="229.199219" xlink:href="#DejaVuSans-31"/>
     </g>
    </g>
    <g clip-path="url(#p631ed2c2fa)">
     <!-- +0 -->
     <g transform="translate(929.336506 71.120847)scale(0.12 -0.12)">
      <use xlink:href="#DejaVuSans-2b"/>
      <use x="83.789062" xlink:href="#DejaVuSans-30"/>
     </g>
    </g>
   </g>
   <g id="text_7">
    <g clip-path="url(#p631ed2c2fa)">
     <!-- 1: 1 -->
     <g transform="translate(926.618693 439.501653)scale(0.12 -0.12)">
      <use xlink:href="#DejaVuSans-31"/>
      <use x="63.623047" xlink:href="#DejaVuSans-3a"/>
      <use x="97.314453" xlink:href="#DejaVuSans-20"/>
      <use x="129.101562" xlink:href="#DejaVuSans-31"/>
     </g>
    </g>
    <g clip-path="url(#p631ed2c2fa)">
     <!--  -->
     <g transform="translate(938.181818 452.939028)scale(0.12 -0.12)"/>
    </g>
   </g>
   <g id="text_8">
    <g clip-path="url(#p631ed2c2fa)">
     <!-- ≥0w1 -->
     <g transform="translate(484.248494 248.592563)scale(0.12 -0.12)">
      <use xlink:href="#DejaVuSans-2265"/>
      <use x="83.789062" xlink:href="#DejaVuSans-30"/>
      <use x="147.412109" xlink:href="#DejaVuSans-77"/>
      <use x="229.199219" xlink:href="#DejaVuSans-31"/>
     </g>
    </g>
    <g clip-path="url(#p631ed2c2fa)">
     <!-- +0 -->
     <g transform="translate(492.972869 262.029938)scale(0.12 -0.12)">
      <use xlink:href="#DejaVuSans-2b"/>
      <use x="83.789062" xlink:href="#DejaVuSans-30"/>
     </g>
    </g>
   </g>
   <g id="text_9">
    <g clip-path="url(#p631ed2c2fa)">
     <!-- 0: 0 -->
     <g transform="translate(490.255057 439.501653)scale(0.12 -0.12)">
      <use xlink:href="#DejaVuSans-30"/>
      <use x="63.623047" xlink:href="#DejaVuSans-3a"/>
      <use x="97.314453" xlink:href="#DejaVuSans-20"/>
      <use x="129.101562" xlink:href="#DejaVuSans-30"/>
     </g>
    </g>
    <g clip-path="url(#p631ed2c2fa)">
     <!--  -->
     <g transform="translate(501.818182 452.939028)scale(0.12 -0.12)"/>
    </g>
   </g>
  </g>
 </g>
 <defs>
  <clipPath id="p631ed2c2fa">
   <rect height="504" width="1440" x="0" y="0"/>
  </clipPath>
 </defs>
</svg>
